<svg width="325" height="127" viewBox="0 0 325 127" fill="black" xmlns="http://www.w3.org/2000/svg">
<path d="M40.2 27.64C38.68 27.12 36.8 26.7 34.56 26.38C32.36 26.02 30 25.82 27.48 25.78C25 25.7 22.48 25.82 19.92 26.14C17.36 26.42 14.96 26.98 12.72 27.82C10.52 28.62 8.58 29.72 6.9 31.12C5.26 32.48 4.08 34.2 3.36 36.28C2.8 37.84 2.66 39.4 2.94 40.96C3.26 42.48 3.78 43.94 4.5 45.34C5.22 46.7 6.04 47.98 6.96 49.18C7.92 50.34 8.78 51.34 9.54 52.18C10.26 52.98 10.5 53.5 10.26 53.74C10.06 53.94 9.56 53.68 8.76 52.96C6.04 50.32 4.02 47.74 2.7 45.22C1.42 42.7 1 40.18 1.44 37.66C1.88 35.26 2.94 33.22 4.62 31.54C6.34 29.86 8.4 28.5 10.8 27.46C13.2 26.38 15.82 25.6 18.66 25.12C21.54 24.64 24.36 24.36 27.12 24.28C29.92 24.2 32.54 24.3 34.98 24.58C37.42 24.86 39.42 25.24 40.98 25.72C44.7 26.92 47.84 28.44 50.4 30.28C53 32.12 55.04 34.16 56.52 36.4C58.04 38.6 59 40.96 59.4 43.48C59.8 45.96 59.68 48.46 59.04 50.98C58.4 53.46 57.22 55.9 55.5 58.3C53.82 60.66 51.62 62.84 48.9 64.84C47.9 65.56 46.58 66.36 44.94 67.24C43.34 68.12 41.6 68.94 39.72 69.7C37.84 70.46 35.88 71.1 33.84 71.62C31.84 72.14 29.94 72.4 28.14 72.4C26.38 72.4 24.8 72.06 23.4 71.38C22 70.74 20.96 69.62 20.28 68.02C20.12 67.7 19.98 67.54 19.86 67.54C19.78 67.5 19.64 67.66 19.44 68.02C19.2 68.66 18.96 69.28 18.72 69.88C18.52 70.48 18.32 71.2 18.12 72.04C18 72.72 17.78 73.06 17.46 73.06C17.18 73.1 17.12 72.7 17.28 71.86C17.44 71.06 17.7 70.16 18.06 69.16C18.42 68.12 18.76 67.14 19.08 66.22C19.16 66.02 19.18 65.9 19.14 65.86C19.14 65.78 19.1 65.6 19.02 65.32C18.22 63.32 18.7 62.26 20.46 62.14C20.62 62.14 20.66 62.14 20.58 62.14C20.54 62.14 20.56 62.06 20.64 61.9C21.44 60.26 22.34 58.52 23.34 56.68C24.34 54.8 25.38 52.94 26.46 51.1C27.54 49.22 28.64 47.38 29.76 45.58C30.88 43.74 31.96 42.04 33 40.48C34.04 38.92 35.02 37.52 35.94 36.28C36.86 35 37.66 33.98 38.34 33.22C38.54 32.98 38.82 32.8 39.18 32.68C39.54 32.52 39.86 32.44 40.14 32.44C40.46 32.44 40.68 32.52 40.8 32.68C40.96 32.8 40.94 33 40.74 33.28C39.98 34.24 39.02 35.52 37.86 37.12C36.74 38.72 35.52 40.5 34.2 42.46C32.88 44.38 31.54 46.4 30.18 48.52C28.82 50.6 27.54 52.62 26.34 54.58C25.14 56.54 24.08 58.34 23.16 59.98C22.24 61.62 21.58 62.94 21.18 63.94C20.9 64.5 20.76 65.16 20.76 65.92C20.8 66.68 20.98 67.32 21.3 67.84C21.82 68.8 22.66 69.52 23.82 70C25.02 70.44 26.38 70.68 27.9 70.72C29.46 70.8 31.14 70.68 32.94 70.36C34.78 70.08 36.6 69.64 38.4 69.04C40.2 68.4 41.94 67.66 43.62 66.82C45.34 65.94 46.88 64.96 48.24 63.88C51.76 61.04 54.22 57.86 55.62 54.34C57.06 50.82 57.44 47.36 56.76 43.96C56.12 40.52 54.4 37.34 51.6 34.42C48.84 31.5 45.04 29.24 40.2 27.64ZM83.6813 51.52C83.2813 51.96 82.6213 52.5 81.7013 53.14C80.8213 53.74 79.8213 54.12 78.7013 54.28C78.0213 54.4 77.0013 54.48 75.6413 54.52C74.3213 54.56 72.8613 54.6 71.2613 54.64C69.6613 54.68 68.0613 54.7 66.4613 54.7C64.8613 54.7 63.4613 54.7 62.2613 54.7C61.8213 55.3 61.3413 55.98 60.8213 56.74C60.3413 57.46 59.8813 58.24 59.4413 59.08C59.0013 59.92 58.6213 60.8 58.3013 61.72C57.9813 62.6 57.8013 63.52 57.7612 64.48C57.7213 65.36 57.8013 66.08 58.0013 66.64C58.2413 67.2 58.5413 67.64 58.9013 67.96C59.3013 68.24 59.7413 68.44 60.2213 68.56C60.7413 68.64 61.2613 68.66 61.7813 68.62C63.1013 68.42 64.5013 68.04 65.9813 67.48C67.5013 66.92 68.8013 66.34 69.8813 65.74C70.2013 65.54 70.4413 65.52 70.6013 65.68C70.7613 65.8 70.6813 65.96 70.3613 66.16C69.9213 66.48 69.4013 66.84 68.8013 67.24C68.2013 67.6 67.5413 67.96 66.8213 68.32C66.1013 68.68 65.3413 69.02 64.5413 69.34C63.7813 69.62 63.0413 69.82 62.3213 69.94C61.7213 70.06 61.0613 70 60.3413 69.76C59.6213 69.48 58.9613 69.08 58.3613 68.56C57.7613 68.04 57.2613 67.44 56.8613 66.76C56.4613 66.04 56.2813 65.28 56.3213 64.48C56.4413 62.28 57.0413 60.08 58.1213 57.88C59.2413 55.68 60.5813 53.64 62.1413 51.76C63.7413 49.84 65.4013 48.2 67.1213 46.84C68.8813 45.44 70.4613 44.46 71.8613 43.9C72.6213 43.66 73.3013 43.7 73.9013 44.02C74.5013 44.3 74.9613 44.74 75.2813 45.34C75.6413 45.9 75.8413 46.54 75.8813 47.26C75.9613 47.98 75.8213 48.64 75.4613 49.24C74.8613 50.36 73.7813 51.3 72.2213 52.06C70.6613 52.82 68.8813 53.36 66.8813 53.68C67.9613 53.68 69.0613 53.68 70.1813 53.68C71.3413 53.68 72.4413 53.68 73.4813 53.68C74.5213 53.64 75.4813 53.6 76.3613 53.56C77.2813 53.52 78.0613 53.46 78.7013 53.38C79.5413 53.3 80.3813 53.04 81.2213 52.6C82.1013 52.16 82.7813 51.72 83.2613 51.28C83.4613 51 83.6213 50.9 83.7413 50.98C83.9013 51.06 83.8813 51.24 83.6813 51.52ZM74.0213 48.7C74.4213 48.06 74.6413 47.5 74.6813 47.02C74.7213 46.54 74.6213 46.18 74.3813 45.94C74.1413 45.66 73.7813 45.54 73.3013 45.58C72.8613 45.58 72.3413 45.74 71.7413 46.06C70.2613 46.9 68.7613 48.02 67.2413 49.42C65.7213 50.78 64.2813 52.2 62.9213 53.68C63.9613 53.68 65.0413 53.56 66.1613 53.32C67.2813 53.08 68.3413 52.74 69.3413 52.3C70.3413 51.82 71.2413 51.28 72.0413 50.68C72.8813 50.08 73.5413 49.42 74.0213 48.7ZM75.652 69.34C75.172 69.3 74.732 69.12 74.332 68.8C73.932 68.48 73.792 68.16 73.912 67.84C74.912 63.4 77.892 57.76 82.852 50.92C82.972 50.76 83.172 50.68 83.452 50.68C84.092 50.68 84.412 50.94 84.412 51.46C84.412 51.54 84.392 51.62 84.352 51.7C84.312 51.74 84.272 51.8 84.232 51.88C80.592 57.64 78.332 62.12 77.452 65.32C77.332 65.8 77.272 66.22 77.272 66.58C77.272 67.46 77.572 67.9 78.172 67.9C78.572 67.9 79.072 67.66 79.672 67.18C80.512 66.5 81.512 65.46 82.672 64.06C83.832 62.66 85.172 60.94 86.692 58.9C87.732 57.5 88.732 56.12 89.692 54.76C90.692 53.4 91.692 52.02 92.692 50.62C92.812 50.42 92.912 50.06 92.992 49.54C93.112 49.02 93.312 48.38 93.592 47.62C94.152 47.18 94.632 46.82 95.032 46.54C95.432 46.26 95.772 46.04 96.052 45.88C96.132 45.84 96.252 45.88 96.412 46C96.612 46.08 96.792 46.2 96.952 46.36C97.152 46.48 97.292 46.62 97.372 46.78C97.492 46.94 97.532 47.04 97.492 47.08C96.332 48.72 95.792 49.92 95.872 50.68C95.912 51.16 96.172 51.58 96.652 51.94C96.772 52.02 96.832 52.12 96.832 52.24C96.832 52.64 96.552 52.78 95.992 52.66C95.552 52.54 95.172 52.42 94.852 52.3C94.532 52.14 94.272 51.96 94.072 51.76C93.952 51.64 93.712 51.8 93.352 52.24C92.672 53.24 91.852 54.38 90.892 55.66C89.932 56.9 88.812 58.28 87.532 59.8C84.612 63.28 82.132 65.88 80.092 67.6C79.172 68.48 78.312 68.92 77.512 68.92C77.512 68.92 77.452 68.96 77.332 69.04C77.212 69.12 77.032 69.2 76.792 69.28C76.512 69.36 76.132 69.38 75.652 69.34ZM151.029 25.96C150.589 25.56 150.469 25.34 150.669 25.3C150.909 25.26 151.189 25.34 151.509 25.54C152.509 26.1 153.249 26.86 153.729 27.82C154.249 28.78 154.469 29.76 154.389 30.76C154.309 31.72 153.889 32.6 153.129 33.4C152.409 34.16 151.329 34.62 149.889 34.78C147.649 35.06 145.349 34.98 142.989 34.54C140.669 34.06 138.289 33.42 135.849 32.62C133.409 31.82 130.909 30.94 128.349 29.98C125.789 29.02 123.149 28.18 120.429 27.46C117.749 26.74 114.989 26.22 112.149 25.9C109.349 25.58 106.449 25.64 103.449 26.08C101.329 26.44 99.5694 27.3 98.1694 28.66C96.8094 29.98 95.7894 31.62 95.1094 33.58C94.4694 35.5 94.1294 37.6 94.0894 39.88C94.0894 42.16 94.3894 44.4 94.9894 46.6C95.5894 48.76 96.4694 50.78 97.6294 52.66C98.7894 54.5 100.229 55.98 101.949 57.1C103.269 57.9 104.689 58.36 106.209 58.48C107.769 58.6 109.249 58.42 110.649 57.94C112.089 57.42 113.369 56.62 114.489 55.54C115.649 54.46 116.469 53.12 116.949 51.52C116.989 51.4 117.149 51.32 117.429 51.28C117.709 51.24 117.849 51.32 117.849 51.52C117.609 53.16 116.889 54.58 115.689 55.78C114.529 56.98 113.169 57.92 111.609 58.6C110.049 59.24 108.449 59.58 106.809 59.62C105.169 59.66 103.789 59.34 102.669 58.66C100.389 57.22 98.4894 55.42 96.9694 53.26C95.4894 51.1 94.4094 48.78 93.7294 46.3C93.0494 43.78 92.7694 41.24 92.8894 38.68C93.0094 36.12 93.5494 33.72 94.5094 31.48C95.3894 29.44 96.5894 27.84 98.1094 26.68C99.6694 25.52 101.429 24.72 103.389 24.28C105.389 23.8 107.509 23.62 109.749 23.74C112.029 23.82 114.329 24.1 116.649 24.58C119.009 25.06 121.309 25.68 123.549 26.44C125.829 27.16 127.969 27.9 129.969 28.66C133.929 30.22 137.509 31.4 140.709 32.2C143.909 33 146.549 33.4 148.629 33.4C150.749 33.4 152.209 33 153.009 32.2C153.849 31.36 153.869 30.1 153.069 28.42C152.829 27.86 152.529 27.4 152.169 27.04C151.849 26.68 151.469 26.32 151.029 25.96ZM134.829 33.1C135.069 32.9 135.289 32.84 135.489 32.92C135.689 33 135.849 33.14 135.969 33.34C136.089 33.54 136.129 33.8 136.089 34.12C136.089 34.4 135.969 34.68 135.729 34.96C135.489 35.28 135.049 35.84 134.409 36.64C133.769 37.4 133.069 38.34 132.309 39.46C131.549 40.54 130.769 41.74 129.969 43.06C129.169 44.38 128.489 45.72 127.929 47.08C127.769 47.48 127.709 47.72 127.749 47.8C127.829 47.88 128.089 47.96 128.529 48.04C129.489 48.2 130.569 48.3 131.769 48.34C133.009 48.38 134.229 48.4 135.429 48.4C136.629 48.4 137.729 48.4 138.729 48.4C139.729 48.36 140.489 48.34 141.009 48.34C141.609 48.34 141.889 48.42 141.849 48.58C141.809 48.74 141.509 48.86 140.949 48.94C140.429 49.1 139.589 49.22 138.429 49.3C137.269 49.38 136.009 49.44 134.649 49.48C133.329 49.48 132.029 49.5 130.749 49.54C129.469 49.54 128.449 49.56 127.689 49.6C127.249 49.6 126.929 49.7 126.729 49.9C126.529 50.06 126.369 50.36 126.249 50.8C125.769 52.04 125.269 53.38 124.749 54.82C124.269 56.22 123.829 57.64 123.429 59.08C123.069 60.48 122.769 61.86 122.529 63.22C122.329 64.54 122.269 65.74 122.349 66.82C122.349 67.06 122.389 67.22 122.469 67.3C122.549 67.38 122.629 67.46 122.709 67.54C122.789 67.58 122.849 67.66 122.889 67.78C122.969 67.86 122.989 68.04 122.949 68.32C122.709 69.16 122.349 69.68 121.869 69.88C121.389 70.08 121.109 69.76 121.029 68.92C120.909 68.16 120.929 67.06 121.089 65.62C121.289 64.14 121.549 62.54 121.869 60.82C122.229 59.06 122.649 57.3 123.129 55.54C123.609 53.78 124.109 52.2 124.629 50.8C124.789 50.36 124.709 50.06 124.389 49.9C124.069 49.74 123.729 49.66 123.369 49.66C123.129 49.66 122.909 49.7 122.709 49.78C122.509 49.82 122.329 49.88 122.169 49.96C122.049 50 121.949 50.02 121.869 50.02C121.829 49.98 121.829 49.88 121.869 49.72C121.949 49.28 122.209 48.94 122.649 48.7C123.089 48.46 123.769 48.24 124.689 48.04C125.129 47.92 125.449 47.8 125.649 47.68C125.889 47.56 126.129 47.22 126.369 46.66C127.009 45.38 127.729 44 128.529 42.52C129.369 41.04 130.249 39.54 131.169 38.02C131.569 37.46 131.589 37.2 131.229 37.24C130.869 37.28 130.409 37.42 129.849 37.66C129.569 37.78 129.369 37.84 129.249 37.84C129.129 37.8 129.069 37.74 129.069 37.66C129.069 37.54 129.109 37.42 129.189 37.3C129.269 37.18 129.389 37.1 129.549 37.06C130.589 36.58 131.589 35.92 132.549 35.08C133.509 34.24 134.269 33.58 134.829 33.1ZM165.127 51.52C164.727 51.96 164.067 52.5 163.147 53.14C162.267 53.74 161.267 54.12 160.147 54.28C159.467 54.4 158.447 54.48 157.087 54.52C155.767 54.56 154.307 54.6 152.707 54.64C151.107 54.68 149.507 54.7 147.907 54.7C146.307 54.7 144.907 54.7 143.707 54.7C143.267 55.3 142.787 55.98 142.267 56.74C141.787 57.46 141.327 58.24 140.887 59.08C140.447 59.92 140.067 60.8 139.747 61.72C139.427 62.6 139.247 63.52 139.207 64.48C139.167 65.36 139.247 66.08 139.447 66.64C139.687 67.2 139.987 67.64 140.347 67.96C140.747 68.24 141.187 68.44 141.667 68.56C142.187 68.64 142.707 68.66 143.227 68.62C144.547 68.42 145.947 68.04 147.427 67.48C148.947 66.92 150.247 66.34 151.327 65.74C151.647 65.54 151.887 65.52 152.047 65.68C152.207 65.8 152.127 65.96 151.807 66.16C151.367 66.48 150.847 66.84 150.247 67.24C149.647 67.6 148.987 67.96 148.267 68.32C147.547 68.68 146.787 69.02 145.987 69.34C145.227 69.62 144.487 69.82 143.767 69.94C143.167 70.06 142.507 70 141.787 69.76C141.067 69.48 140.407 69.08 139.807 68.56C139.207 68.04 138.707 67.44 138.307 66.76C137.907 66.04 137.727 65.28 137.767 64.48C137.887 62.28 138.487 60.08 139.567 57.88C140.687 55.68 142.027 53.64 143.587 51.76C145.187 49.84 146.847 48.2 148.567 46.84C150.327 45.44 151.907 44.46 153.307 43.9C154.067 43.66 154.747 43.7 155.347 44.02C155.947 44.3 156.407 44.74 156.727 45.34C157.087 45.9 157.287 46.54 157.327 47.26C157.407 47.98 157.267 48.64 156.907 49.24C156.307 50.36 155.227 51.3 153.667 52.06C152.107 52.82 150.327 53.36 148.327 53.68C149.407 53.68 150.507 53.68 151.627 53.68C152.787 53.68 153.887 53.68 154.927 53.68C155.967 53.64 156.927 53.6 157.807 53.56C158.727 53.52 159.507 53.46 160.147 53.38C160.987 53.3 161.827 53.04 162.667 52.6C163.547 52.16 164.227 51.72 164.707 51.28C164.907 51 165.067 50.9 165.187 50.98C165.347 51.06 165.327 51.24 165.127 51.52ZM155.467 48.7C155.867 48.06 156.087 47.5 156.127 47.02C156.167 46.54 156.067 46.18 155.827 45.94C155.587 45.66 155.227 45.54 154.747 45.58C154.307 45.58 153.787 45.74 153.187 46.06C151.707 46.9 150.207 48.02 148.687 49.42C147.167 50.78 145.727 52.2 144.367 53.68C145.407 53.68 146.487 53.56 147.607 53.32C148.727 53.08 149.787 52.74 150.787 52.3C151.787 51.82 152.687 51.28 153.487 50.68C154.327 50.08 154.987 49.42 155.467 48.7ZM164.617 63.64C167.857 61.84 170.997 60.46 174.037 59.5C177.077 58.54 180.097 57.8 183.097 57.28L183.157 57.34C180.357 57.9 177.477 58.78 174.517 59.98C171.597 61.14 168.537 62.64 165.337 64.48C165.857 65.16 166.217 65.74 166.417 66.22C166.657 66.66 166.777 67.02 166.777 67.3C166.777 68.42 165.457 69.54 162.817 70.66C160.577 71.66 158.757 72.16 157.357 72.16C156.877 72.16 156.457 72.1 156.097 71.98C155.537 72.06 155.077 72.14 154.717 72.22C154.397 72.3 154.137 72.3 153.937 72.22C153.417 72.18 153.297 71.92 153.577 71.44C154.257 70.6 156.957 68.54 161.677 65.26L159.757 62.68C159.317 62.12 158.977 61.58 158.737 61.06C158.537 60.54 158.397 60 158.317 59.44C157.997 56.76 160.717 53.74 166.477 50.38C169.357 48.66 172.057 47.4 174.577 46.6C177.137 45.76 179.537 45.36 181.777 45.4C182.017 45.4 182.237 45.52 182.437 45.76C182.597 46.12 182.597 46.38 182.437 46.54C182.157 46.94 181.697 47.34 181.057 47.74C180.457 48.14 180.017 48.3 179.737 48.22C178.817 47.9 178.037 47.68 177.397 47.56C176.757 47.44 176.217 47.38 175.777 47.38C175.537 47.38 175.297 47.4 175.057 47.44C174.857 47.44 174.657 47.46 174.457 47.5C172.177 48.06 169.537 49.4 166.537 51.52C162.737 54.12 160.977 56.4 161.257 58.36C161.377 59.16 161.817 60.18 162.577 61.42C163.417 62.62 164.097 63.36 164.617 63.64ZM156.637 70.84C156.317 71.2 156.397 71.42 156.877 71.5C157.597 71.66 158.817 71.44 160.537 70.84C161.337 70.52 161.997 70.24 162.517 70C163.077 69.76 163.457 69.48 163.657 69.16C163.817 68.96 163.897 68.74 163.897 68.5C163.897 67.86 163.437 67.12 162.517 66.28C161.877 66.68 160.897 67.36 159.577 68.32C158.777 68.88 158.137 69.36 157.657 69.76C157.177 70.16 156.837 70.52 156.637 70.84ZM178.894 103.36C175.694 103.36 173.054 102.16 170.974 99.76C169.894 98.6 169.214 97.28 168.934 95.8C168.654 94.36 168.514 92.78 168.514 91.06C168.514 85.42 170.814 77.34 175.414 66.82C177.454 62.18 179.494 58 181.534 54.28C183.574 50.56 185.614 47.22 187.654 44.26C188.134 43.74 188.374 43.14 188.374 42.46C188.374 41.74 188.014 41.18 187.294 40.78C185.854 40.22 185.294 39.6 185.614 38.92C185.734 38.68 186.314 38.5 187.354 38.38C188.434 38.26 189.934 38.2 191.854 38.2C192.014 38.2 192.034 38.14 191.914 38.02C191.794 37.9 191.774 37.78 191.854 37.66C193.774 34.66 195.994 31.68 198.514 28.72C201.034 25.72 203.674 22.62 206.434 19.42C206.674 19.14 207.794 18.62 209.794 17.86C210.754 17.54 211.434 17.3 211.834 17.14C212.274 16.94 212.734 16.84 213.214 16.84C213.654 16.84 213.874 17.02 213.874 17.38C213.874 17.54 213.674 17.68 213.274 17.8C209.514 18.56 203.294 24.9 194.614 36.82C193.974 37.74 194.114 38.2 195.034 38.2H203.734C206.094 38.2 207.914 38.22 209.194 38.26C210.514 38.26 211.334 38.26 211.654 38.26C212.014 38.26 212.254 38.32 212.374 38.44C212.374 38.52 212.254 38.74 212.014 39.1C211.814 39.42 211.534 39.6 211.174 39.64C208.894 39.72 206.274 39.86 203.314 40.06C200.394 40.22 197.054 40.4 193.294 40.6C192.614 40.72 192.114 41.04 191.794 41.56C189.674 44.68 187.674 47.78 185.794 50.86C183.914 53.94 182.074 57.28 180.274 60.88C177.514 66.6 175.334 71.78 173.734 76.42C172.134 81.1 171.174 85.3 170.854 89.02C170.814 89.54 170.794 90.02 170.794 90.46C170.794 90.94 170.794 91.42 170.794 91.9C170.794 98.86 173.254 102.34 178.174 102.34C179.574 102.34 181.134 102.08 182.854 101.56C185.374 100.76 187.874 99.5 190.354 97.78C192.834 96.06 195.354 93.82 197.914 91.06C200.554 88.3 202.574 85.72 203.974 83.32C205.414 80.92 206.294 78.64 206.614 76.48C206.614 72.72 205.274 71.06 202.594 71.5C201.994 71.58 201.474 71.76 201.034 72.04C200.594 72.32 200.274 72.46 200.074 72.46C199.674 72.46 199.514 72.28 199.594 71.92C199.794 71.6 200.074 71.32 200.434 71.08C200.834 70.84 201.554 70.5 202.594 70.06C202.754 70.02 202.994 70 203.314 70C204.594 70 205.814 70.86 206.974 72.58C208.174 74.38 208.734 75.74 208.654 76.66C207.854 81.94 204.034 87.68 197.194 93.88C193.714 97 190.454 99.36 187.414 100.96C184.414 102.56 181.574 103.36 178.894 103.36ZM237.684 70C236.124 69.88 234.224 69.82 231.984 69.82C226.784 69.82 221.164 70.06 215.124 70.54C214.404 70.62 214.044 70.4 214.044 69.88C214.044 68.84 214.764 68.2 216.204 67.96C219.364 67.28 222.344 66.32 225.144 65.08C228.704 63.4 231.984 61.4 234.984 59.08C239.424 55.6 241.944 52.02 242.544 48.34C242.784 47.06 242.404 45.7 241.404 44.26C240.244 42.66 238.744 41.66 236.904 41.26C236.504 41.18 236.084 41.12 235.644 41.08C235.244 41.04 234.824 41.02 234.384 41.02C231.704 41.02 228.904 41.84 225.984 43.48C225.784 43.6 225.684 43.56 225.684 43.36C225.684 42.52 226.104 41.9 226.944 41.5C230.544 39.5 234.164 38.66 237.804 38.98C239.164 39.06 240.344 39.36 241.344 39.88C242.384 40.36 243.244 41 243.924 41.8C245.084 43.2 245.664 44.86 245.664 46.78C245.664 50.58 242.824 54.64 237.144 58.96C234.864 60.76 232.584 62.28 230.304 63.52C228.024 64.76 225.724 65.8 223.404 66.64C222.884 66.8 222.624 67.02 222.624 67.3C222.624 68.1 227.624 68.5 237.624 68.5C238.584 68.5 239.064 68.78 239.064 69.34C239.064 69.86 238.604 70.08 237.684 70ZM256.109 43.48C256.269 43.32 256.569 43.1 257.009 42.82C257.489 42.54 258.009 42.24 258.569 41.92C259.169 41.6 259.769 41.3 260.369 41.02C261.009 40.74 261.589 40.5 262.109 40.3C263.829 39.34 265.669 38.76 267.629 38.56C269.989 38.36 271.889 38.92 273.329 40.24C274.769 41.56 275.489 43.56 275.489 46.24C275.489 47.04 275.409 47.9 275.249 48.82C275.089 49.74 274.869 50.72 274.589 51.76C273.349 55.8 271.089 59.56 267.809 63.04C266.049 64.96 264.189 66.52 262.229 67.72C260.309 68.88 258.249 69.76 256.049 70.36C255.489 70.48 254.929 70.58 254.369 70.66C253.849 70.74 253.329 70.78 252.809 70.78C250.529 70.78 248.669 70.12 247.229 68.8C245.829 67.48 245.129 65.56 245.129 63.04C245.129 62.4 245.169 61.74 245.249 61.06C245.369 60.34 245.549 59.6 245.789 58.84C247.469 53.08 250.909 47.96 256.109 43.48ZM267.329 40.12C264.169 40.12 260.869 41.58 257.429 44.5C255.149 46.42 253.209 48.8 251.609 51.64C250.849 52.92 250.209 54.16 249.689 55.36C249.209 56.56 248.869 57.7 248.669 58.78C248.589 59.34 248.509 59.88 248.429 60.4C248.389 60.92 248.369 61.44 248.369 61.96C248.369 63.24 248.529 64.36 248.849 65.32C249.169 66.24 249.649 67.06 250.289 67.78C251.369 68.98 252.789 69.58 254.549 69.58C258.469 69.58 262.329 67.54 266.129 63.46C269.369 59.98 271.629 56.14 272.909 51.94C273.429 50.34 273.689 48.72 273.689 47.08C273.689 42.4 271.569 40.08 267.329 40.12ZM293.407 70C291.847 69.88 289.947 69.82 287.707 69.82C282.507 69.82 276.887 70.06 270.847 70.54C270.127 70.62 269.767 70.4 269.767 69.88C269.767 68.84 270.487 68.2 271.927 67.96C275.087 67.28 278.067 66.32 280.867 65.08C284.427 63.4 287.707 61.4 290.707 59.08C295.147 55.6 297.667 52.02 298.267 48.34C298.507 47.06 298.127 45.7 297.127 44.26C295.967 42.66 294.467 41.66 292.627 41.26C292.227 41.18 291.807 41.12 291.367 41.08C290.967 41.04 290.547 41.02 290.107 41.02C287.427 41.02 284.627 41.84 281.707 43.48C281.507 43.6 281.407 43.56 281.407 43.36C281.407 42.52 281.827 41.9 282.667 41.5C286.267 39.5 289.887 38.66 293.527 38.98C294.887 39.06 296.067 39.36 297.067 39.88C298.107 40.36 298.967 41 299.647 41.8C300.807 43.2 301.387 44.86 301.387 46.78C301.387 50.58 298.547 54.64 292.867 58.96C290.587 60.76 288.307 62.28 286.027 63.52C283.747 64.76 281.447 65.8 279.127 66.64C278.607 66.8 278.347 67.02 278.347 67.3C278.347 68.1 283.347 68.5 293.347 68.5C294.307 68.5 294.787 68.78 294.787 69.34C294.787 69.86 294.327 70.08 293.407 70ZM318.682 63.7C317.882 65.42 316.602 66.96 314.842 68.32C313.122 69.68 310.942 70.92 308.302 72.04C303.942 73.88 300.022 74.82 296.542 74.86C292.582 74.98 290.602 74.32 290.602 72.88C290.602 72.44 290.742 72 291.022 71.56C291.302 71.12 291.642 70.9 292.042 70.9C292.602 70.9 292.922 71.34 293.002 72.22C293.042 73.46 294.202 74.08 296.482 74.08C299.442 74.08 302.842 73.2 306.682 71.44C311.362 69.32 314.382 66.7 315.742 63.58C315.902 63.14 316.022 62.72 316.102 62.32C316.222 61.88 316.282 61.44 316.282 61C316.282 59 315.522 57.42 314.002 56.26C312.162 54.82 309.442 54.2 305.842 54.4C305.562 54.4 305.422 54.32 305.422 54.16C305.422 53.92 305.562 53.68 305.842 53.44C306.162 53.16 306.502 53.02 306.862 53.02C309.182 53.02 311.762 52.2 314.602 50.56C315.922 49.76 317.042 48.98 317.962 48.22C318.882 47.46 319.582 46.66 320.062 45.82C320.622 44.94 320.902 44.04 320.902 43.12C320.902 41.4 320.022 40.54 318.262 40.54C315.422 40.54 312.562 41.22 309.682 42.58C309.402 42.74 309.262 42.66 309.262 42.34C309.262 41.7 309.582 41.2 310.222 40.84C312.862 39.28 316.022 38.5 319.702 38.5C322.862 38.5 324.442 39.72 324.442 42.16C324.442 43.16 324.182 44.04 323.662 44.8C321.742 47.76 318.022 50.26 312.502 52.3C312.182 52.42 312.022 52.6 312.022 52.84C312.022 53.08 312.202 53.22 312.562 53.26C313.562 53.34 314.482 53.58 315.322 53.98C316.162 54.38 316.902 54.9 317.542 55.54C318.182 56.14 318.682 56.86 319.042 57.7C319.402 58.54 319.582 59.42 319.582 60.34C319.582 61.5 319.282 62.62 318.682 63.7Z" fill="black"/>
<path d="M230.434 94.6934H226.545V91.7822H230.434C230.964 91.7822 231.393 91.6927 231.723 91.5137C232.052 91.3346 232.292 91.0876 232.442 90.7725C232.6 90.4502 232.679 90.0885 232.679 89.6875C232.679 89.2578 232.6 88.8604 232.442 88.4951C232.292 88.1299 232.052 87.8363 231.723 87.6143C231.393 87.3851 230.964 87.2705 230.434 87.2705H227.963V100H224.192V84.3594H230.434C231.687 84.3594 232.765 84.5885 233.667 85.0469C234.576 85.5052 235.275 86.1354 235.762 86.9375C236.249 87.7324 236.492 88.6419 236.492 89.666C236.492 90.6758 236.249 91.5566 235.762 92.3086C235.275 93.0605 234.576 93.6478 233.667 94.0703C232.765 94.4857 231.687 94.6934 230.434 94.6934ZM249.286 97.0996V100H240.95V97.0996H249.286ZM242.293 84.3594V100H238.522V84.3594H242.293ZM248.212 90.5684V93.3721H240.95V90.5684H248.212ZM249.318 84.3594V87.2705H240.95V84.3594H249.318ZM258.89 95.8428C258.89 95.5993 258.854 95.3809 258.782 95.1875C258.711 94.987 258.578 94.8008 258.385 94.6289C258.191 94.457 257.912 94.2852 257.547 94.1133C257.189 93.9342 256.716 93.748 256.129 93.5547C255.441 93.3255 254.779 93.0677 254.142 92.7812C253.504 92.4876 252.935 92.1475 252.434 91.7607C251.932 91.3669 251.535 90.9085 251.241 90.3857C250.948 89.8558 250.801 89.2399 250.801 88.5381C250.801 87.8649 250.951 87.2598 251.252 86.7227C251.553 86.1784 251.972 85.7165 252.509 85.3369C253.053 84.9502 253.69 84.6566 254.421 84.4561C255.151 84.2484 255.95 84.1445 256.816 84.1445C257.962 84.1445 258.972 84.3451 259.846 84.7461C260.727 85.14 261.414 85.7021 261.908 86.4326C262.41 87.1559 262.66 88.0117 262.66 89H258.911C258.911 88.6061 258.829 88.2588 258.664 87.958C258.507 87.6572 258.267 87.4209 257.944 87.249C257.622 87.0771 257.217 86.9912 256.73 86.9912C256.258 86.9912 255.86 87.0628 255.538 87.2061C255.216 87.3493 254.972 87.5426 254.808 87.7861C254.643 88.0225 254.561 88.2839 254.561 88.5703C254.561 88.8066 254.625 89.0215 254.754 89.2148C254.89 89.401 255.08 89.5765 255.323 89.7412C255.574 89.9059 255.875 90.0635 256.226 90.2139C256.584 90.3643 256.985 90.5111 257.429 90.6543C258.259 90.9193 258.997 91.2165 259.642 91.5459C260.293 91.8682 260.841 92.237 261.285 92.6523C261.736 93.0605 262.076 93.526 262.306 94.0488C262.542 94.5716 262.66 95.1624 262.66 95.8213C262.66 96.5231 262.524 97.1462 262.252 97.6904C261.98 98.2347 261.59 98.6966 261.081 99.0762C260.573 99.4486 259.964 99.7314 259.255 99.9248C258.546 100.118 257.755 100.215 256.881 100.215C256.079 100.215 255.287 100.115 254.507 99.9141C253.733 99.7064 253.032 99.3913 252.401 98.9688C251.771 98.5391 251.266 97.9912 250.887 97.3252C250.514 96.652 250.328 95.8535 250.328 94.9297H254.109C254.109 95.388 254.17 95.7747 254.292 96.0898C254.414 96.4049 254.593 96.6592 254.829 96.8525C255.065 97.0387 255.355 97.1748 255.699 97.2607C256.043 97.3395 256.437 97.3789 256.881 97.3789C257.361 97.3789 257.747 97.3109 258.041 97.1748C258.335 97.0316 258.549 96.8454 258.686 96.6162C258.822 96.3799 258.89 96.1221 258.89 95.8428ZM273.499 94.7041H277.259C277.209 95.7926 276.915 96.7523 276.378 97.583C275.841 98.4137 275.096 99.0618 274.144 99.5273C273.198 99.9857 272.081 100.215 270.792 100.215C269.746 100.215 268.812 100.039 267.988 99.6885C267.172 99.3376 266.477 98.8327 265.904 98.1738C265.339 97.515 264.905 96.7165 264.604 95.7783C264.311 94.8402 264.164 93.7839 264.164 92.6094V91.7607C264.164 90.5863 264.318 89.5299 264.626 88.5918C264.941 87.6465 265.385 86.8444 265.958 86.1855C266.538 85.5195 267.233 85.0111 268.042 84.6602C268.851 84.3092 269.75 84.1338 270.738 84.1338C272.099 84.1338 273.248 84.3773 274.187 84.8643C275.125 85.3512 275.852 86.0208 276.367 86.873C276.883 87.7181 277.187 88.6813 277.28 89.7627H273.521C273.506 89.1755 273.406 88.6849 273.22 88.291C273.034 87.89 272.74 87.5892 272.339 87.3887C271.938 87.1882 271.404 87.0879 270.738 87.0879C270.273 87.0879 269.868 87.1738 269.524 87.3457C269.181 87.5176 268.894 87.7897 268.665 88.1621C268.436 88.5345 268.264 89.0179 268.149 89.6123C268.042 90.1995 267.988 90.9085 267.988 91.7393V92.6094C267.988 93.4401 268.038 94.1491 268.139 94.7363C268.239 95.3236 268.4 95.8034 268.622 96.1758C268.844 96.5482 269.131 96.8239 269.481 97.0029C269.84 97.1748 270.276 97.2607 270.792 97.2607C271.365 97.2607 271.848 97.1712 272.242 96.9922C272.636 96.806 272.94 96.5267 273.155 96.1543C273.37 95.7747 273.485 95.2913 273.499 94.7041ZM285.67 87.6465L281.856 100H277.807L283.554 84.3594H286.121L285.67 87.6465ZM288.828 100L285.004 87.6465L284.51 84.3594H287.109L292.889 100H288.828ZM288.678 94.167V97.0781H280.653V94.167H288.678ZM294.038 84.3594H300.193C301.396 84.3594 302.442 84.5384 303.33 84.8965C304.218 85.2546 304.902 85.7845 305.382 86.4863C305.869 87.1882 306.112 88.0547 306.112 89.0859C306.112 89.9811 305.973 90.7295 305.693 91.3311C305.414 91.9326 305.024 92.4303 304.522 92.8242C304.028 93.2109 303.452 93.5296 302.793 93.7803L301.558 94.4785H296.391L296.369 91.5674H300.193C300.673 91.5674 301.071 91.4814 301.386 91.3096C301.701 91.1377 301.937 90.8942 302.095 90.5791C302.259 90.2568 302.342 89.8737 302.342 89.4297C302.342 88.9785 302.259 88.5918 302.095 88.2695C301.93 87.9473 301.687 87.7002 301.364 87.5283C301.049 87.3564 300.659 87.2705 300.193 87.2705H297.809V100H294.038V84.3594ZM302.6 100L299.141 93.082L303.137 93.0605L306.639 99.8389V100H302.6ZM315.018 87.6465L311.204 100H307.154L312.901 84.3594H315.469L315.018 87.6465ZM318.176 100L314.352 87.6465L313.857 84.3594H316.457L322.236 100H318.176ZM318.025 94.167V97.0781H310.001V94.167H318.025Z" fill="black"/>
</svg>
