<svg width="62" height="59" viewBox="0 0 62 59" fill="none" xmlns="http://www.w3.org/2000/svg">
    <g clip-path="url(#clip0_145_7748)">
        <path d="M0 29.6371C0.227606 19.7581 3.6417 11.5713 12.6094 6.67745C16.6153 4.4821 20.8943 2.56117 25.1733 1.00614C29.3157 -0.503167 33.6858 -0.183012 37.9192 1.09761C47.1145 3.88753 54.1248 9.65032 58.768 18.0201C64.6858 28.6767 61.7724 38.6015 55.1263 47.6116C46.2952 59.6402 30.7269 62.3387 16.7974 54.7464C8.28488 50.0813 2.32159 43.3123 0.36417 33.5247C0.136564 32.2441 0.136564 30.9635 0 29.6371ZM2.04846 26.5271C2.18502 34.348 3.36858 38.8759 6.69163 43.2666C12.9736 51.6364 21.5771 55.9356 31.8194 56.5302C43.6094 57.2162 51.8032 51.179 56.8106 40.8883C61.6814 30.8263 60.3612 21.3588 52.7592 12.9891C46.4317 6.12862 38.9207 1.18908 29.2247 2.42396C19.7562 3.61311 11.6079 8.00381 5.91777 16.0534C3.73275 19.1635 1.5022 22.4565 2.04846 26.5271Z" fill="white"/>
        <path d="M25.583 26.8472C25.9016 23.3712 25.8561 20.2154 26.5844 17.2426C28.0411 11.2511 37.373 8.32396 42.2438 12.1201C44.6564 13.9953 44.3833 16.1906 41.5609 17.4712C40.7871 17.8371 40.0132 18.0658 39.2394 18.4317C37.6461 19.2092 36.5536 20.1697 36.7357 22.2736C36.9178 24.3317 37.8737 25.0178 39.6946 25.6123C41.0602 26.024 42.4714 27.1674 43.3363 28.3565C45.2026 30.9178 44.2012 33.0216 41.1513 33.7077C40.1498 33.9364 39.1483 34.165 38.0103 34.3937C38.511 37.3209 39.0573 39.9736 39.3304 42.672C39.8767 47.5201 38.0558 49.441 33.185 49.3953C32.3656 49.3953 31.5007 49.3495 30.6814 49.2581C26.9486 48.8464 26.0382 47.8402 26.2658 43.9526C26.3568 41.986 26.7665 40.0193 26.9486 38.0526C27.1762 35.4914 26.6755 34.9883 24.1263 34.8968C20.5756 34.7596 19.2555 33.6619 18.8913 30.5061C18.6182 28.2193 19.5742 27.0302 21.8502 26.893C23.2159 26.7557 24.536 26.8472 25.583 26.8472ZM42.1527 15.2759C42.0617 15.0015 41.9706 14.7271 41.9251 14.4526C39.7401 13.355 37.4185 13.7666 35.1424 14.0868C31.5463 14.5899 29.953 16.0992 29.2702 19.6666C28.906 21.5418 28.815 23.4627 28.4963 25.3379C27.8135 29.5457 27.768 29.5457 23.6256 29.3627C23.2614 29.3627 22.8062 29.2712 22.4875 29.3627C21.8958 29.5914 20.8943 29.9116 20.8943 30.2774C20.8488 30.9178 21.2129 31.9697 21.7137 32.1984C22.7607 32.7015 23.9897 32.8844 25.1733 32.9302C28.0866 33.0674 29.2247 34.0736 29.0881 37.0007C28.9971 38.6472 28.6329 40.2937 28.4508 41.986C27.9501 47.2457 28.815 47.9317 33.9134 46.5139C35.5521 46.0565 36.4626 45.1875 36.235 43.4495C36.0073 41.5744 35.7342 39.6992 35.3701 37.824C34.5051 33.0674 35.7797 31.4666 40.514 31.2379C41.3333 31.1922 42.1072 30.7806 42.8811 30.5061C42.2438 29.7286 41.743 28.7681 40.9692 28.1736C40.4229 27.7619 39.5125 27.8534 38.7841 27.8077C35.5977 27.7162 34.0044 26.3899 33.5037 23.3255C33.094 20.6728 34.2775 18.7519 36.9178 17.6542C38.6931 16.9681 40.4229 16.0534 42.1527 15.2759Z" fill="white"/>
    </g>
    <defs>
        <clipPath id="clip0_145_7748">
            <rect width="62" height="59" fill="white"/>
        </clipPath>
    </defs>
</svg>
