<svg width="63" height="60" viewBox="0 0 63 60" fill="none" xmlns="http://www.w3.org/2000/svg">
    <g clip-path="url(#clip0_145_7752)">
        <path d="M0 29.9549C0.0919037 21.3835 3.40044 14.4534 9.69584 9.11903C18.4267 1.8242 28.3982 -2.68948 39.7024 1.77861C48.2035 5.15247 55.5098 10.8971 59.6455 19.423C61.2998 22.8424 62.4945 26.6722 62.8621 30.4564C63.5055 36.7938 61.1619 42.4473 56.9344 47.1889C49.4902 55.5324 40.116 60.4564 28.7199 60.0461C16.9562 59.5901 5.46827 50.1525 1.51641 38.4351C0.964989 36.7938 0.597374 35.0613 0.275711 33.3743C0.0459519 32.1433 0.0459519 30.9123 0 29.9549ZM33.0394 2.87283C20.7243 2.91843 9.60394 9.71174 4.73304 19.5598C1.70022 25.6236 1.88403 31.8698 4.18162 38.116C8.40919 49.6509 20.1729 58.3136 31.523 57.4017C42.4595 56.5354 51.4201 51.5202 57.6236 42.4017C61.6214 36.5658 61.7593 30.1373 59.14 23.7087C56.7505 17.7816 52.3851 13.3592 47.8818 8.93666C43.3786 4.46858 37.9103 3.0552 33.0394 2.87283Z" fill="white"/>
        <path d="M24.6762 12.8572C27.0197 12.6292 29.3633 12.4924 31.7068 12.1733C35.4289 11.6718 39.0132 11.8541 42.5515 13.2219C46.5952 14.7721 47.8359 17.2341 47.6521 21.4742C47.4683 25.076 47.8819 28.7234 48.0657 32.3709C48.1576 34.1034 48.3414 35.8359 48.3874 37.5684C48.3874 42.1733 46.5033 44.5441 42 45.6839C41.7243 45.7751 41.4027 45.8663 41.081 45.8663C34.0963 45.5015 27.0657 45.456 20.127 44.5441C16.0372 43.997 14.1532 40.8511 14.383 36.7022C14.7046 30.8207 15.302 24.8936 15.8075 19.0122C15.9453 17.4164 15.7156 15.456 16.5427 14.3617C18.0591 12.3557 20.6324 12.2645 23.0679 12.4468C23.6193 12.4924 24.1248 12.4924 24.6762 12.538C24.6762 12.6748 24.6762 12.766 24.6762 12.8572ZM26.6981 25.076C21.1838 23.9818 14.1532 26.5806 16.0832 34.5593C16.1751 34.8329 16.1291 35.152 16.1751 35.4712C16.5427 39.9848 18.1051 41.8541 22.6543 42.1277C28.1226 42.4468 33.6368 42.4012 39.1051 42.4012C42.2298 42.4012 44.4814 40.8511 45.6302 37.9332C47.1467 34.1034 46.5033 30.1368 46.5033 26.6718C43.4245 26.6718 40.6215 26.6718 37.8184 26.6718C39.2429 30.3648 38.9213 32.2797 36.5777 33.921C34.0963 35.6991 30.2364 35.6079 27.9847 33.7842C25.4574 31.687 24.9519 28.5411 26.6981 25.076ZM15.8994 26.9453C17.3239 26.1247 18.5186 25.1672 19.8512 24.8025C24.7681 23.3891 29.7309 23.4347 34.7396 24.5289C38.0022 25.2584 41.3567 25.3952 44.6652 25.6231C45.9979 25.7143 46.6412 25.0304 46.5493 23.4803C46.3195 19.4681 43.93 16.6414 39.2889 16.0943C33.3151 15.3648 27.2954 15 21.2758 14.6353C20.127 14.5441 18.8403 14.9544 17.7375 15.4104C17.1401 15.6383 16.5427 16.5046 16.4968 17.1429C16.221 20.38 16.0832 23.6171 15.8994 26.9453ZM32.7637 32.3709C34.0504 31.4134 35.6587 30.7751 35.7506 29.9544C35.8425 28.997 34.7856 27.8116 33.9585 26.9453C33.4989 26.4438 32.6259 26.2158 31.8906 26.0791C30.8797 25.9423 29.8228 25.9879 28.7659 25.9879C28.9038 27.2189 28.72 28.6323 29.3173 29.5897C29.9607 30.6839 31.3392 31.2766 32.7637 32.3709Z" fill="white"/>
        <path d="M42.1377 23.3434C39.6104 23.3434 38.048 21.8844 38.0021 20.2431C37.9561 18.1914 39.7942 18.6473 40.8051 18.5105C42.5054 18.2826 44.2515 19.7415 43.8839 21.0181C43.5163 22.0668 42.5053 22.8418 42.1377 23.3434Z" fill="white"/>
    </g>
    <defs>
        <clipPath id="clip0_145_7752">
            <rect width="63" height="60" fill="white"/>
        </clipPath>
    </defs>
</svg>
