<svg width="61" height="62" viewBox="0 0 61 62" fill="none" xmlns="http://www.w3.org/2000/svg">
    <g clip-path="url(#clip0_145_7738)">
        <path d="M61.0001 33.273C60.7732 35.5225 60.6824 39.3184 60.0016 42.9737C58.5038 51.5028 52.9213 56.6578 45.4778 59.4696C32.4518 64.3433 20.1973 62.0002 9.39521 53.2368C0.907857 46.3947 -1.13455 36.694 0.544762 26.103C3.81262 5.15512 25.0083 -5.95146 43.7985 3.28059C48.791 5.76434 53.5567 8.71672 56.9153 13.4499C60.7732 18.9329 60.9093 25.4 61.0001 33.273ZM58.3677 31.8203C58.2315 29.7583 58.1861 26.6653 57.8684 23.5724C57.233 17.1052 54.3282 11.9971 48.8818 8.66986C46.1132 6.98279 43.1631 5.53003 40.1221 4.31158C26.2791 -1.40573 6.26351 6.79533 3.1772 25.4C1.58866 34.7727 2.36024 43.4892 9.48598 50.5187C18.3364 59.2821 34.9934 61.8596 45.9771 56.4234C52.6943 53.0962 56.9153 47.9881 57.6869 40.1619C57.8684 37.725 58.05 35.335 58.3677 31.8203Z" fill="white"/>
        <path d="M34.0855 37.6782C33.9948 39.459 34.0402 41.2866 33.7678 43.0206C33.4955 44.8014 32.3608 46.0667 30.5 45.9261C28.503 45.7386 25.5528 46.1604 25.3259 43.3017C24.7812 37.1158 24.7812 30.883 24.7358 24.697C24.7358 23.0568 25.3259 21.5572 27.7314 22.2602C29.5922 22.8225 31.6346 22.7757 33.6317 22.9631C34.0402 23.01 34.4486 22.6351 34.8571 22.4008C38.3973 20.4325 42.5729 20.9949 45.0692 24.1816C48.7455 28.8679 50.5156 34.2571 49.3809 40.3025C49.0632 41.8958 48.2463 43.536 47.2024 44.8482C44.933 47.7069 41.2113 47.0039 40.122 43.4423C39.5774 41.6147 39.6227 39.5995 39.4412 37.6782C39.2597 36.0379 39.4412 34.304 38.8512 32.8512C38.3973 31.8203 36.9903 30.8361 35.901 30.6487C34.3125 30.3675 34.1763 32.0546 34.0402 33.273C33.904 34.7258 33.9948 36.2254 33.9948 37.725C34.0402 37.6781 34.0402 37.6782 34.0855 37.6782ZM29.1838 43.1611C31.4077 43.911 32.1339 42.7862 32.1339 40.7243C32.1339 37.6782 31.9524 34.632 32.3155 31.6328C32.6785 28.3055 34.2217 27.1339 37.1265 27.2745C39.9858 27.4151 41.4836 28.7741 41.7105 31.9608C41.8921 34.7258 41.6198 37.5844 41.7105 40.3494C41.7559 41.8958 41.7559 43.8172 43.7076 44.0515C45.75 44.2859 46.1585 42.3645 46.5669 40.7711C46.6123 40.5368 46.7031 40.3025 46.6577 40.0682C46.1585 35.8973 46.0677 31.6328 45.0692 27.6026C44.0707 23.5255 39.1235 22.3539 35.8556 24.9782C35.4472 25.3063 35.0387 25.6812 34.5848 25.9155C33.2686 26.5716 32.2247 26.9465 31.2716 25.0251C30.8631 24.2284 29.1838 23.9472 28.0037 23.8535C27.5952 23.8066 26.869 25.1657 26.7783 25.9155C26.5967 27.3682 26.5967 28.9147 26.8236 30.3206C27.4591 34.5852 28.3214 38.8029 29.1838 43.1611Z" fill="white"/>
        <path d="M13.4799 23.2912C17.7463 22.0259 20.2879 23.6192 20.6056 27.9775C20.9233 32.7107 21.0595 37.4439 21.0595 42.177C21.0595 43.3018 20.5149 45.1294 19.7887 45.4106C18.1547 46.0667 16.2485 45.5981 15.2046 43.8641C14.5692 42.88 14.2061 41.5678 14.1607 40.3962C13.843 35.1476 13.6614 29.852 13.4799 24.5565C13.4345 24.1816 13.4799 23.7129 13.4799 23.2912ZM15.5223 23.9004C15.7492 30.1332 15.9308 35.5693 16.2031 40.9586C16.2939 42.4114 16.9293 43.5361 19.1079 43.1612C18.8355 37.7719 18.6994 32.3358 18.2001 26.9465C18.2001 25.9624 16.7024 25.1657 15.5223 23.9004Z" fill="white"/>
        <path d="M17.8824 20.292C15.4769 20.292 12.9806 18.1831 13.026 16.2617C13.0714 14.5278 15.7492 11.9035 17.4285 11.9503C20.0156 11.9972 22.1488 14.1529 22.1034 16.6835C22.058 18.6986 20.1971 20.292 17.8824 20.292ZM17.6101 13.778C16.4754 14.8558 15.7946 15.5119 15.1138 16.168C16.0215 16.7772 16.8839 17.6208 17.8824 17.8551C18.3817 17.9957 19.1532 17.0115 19.7886 16.5429C19.1532 15.7931 18.5632 14.9964 17.6101 13.778Z" fill="white"/>
    </g>
    <defs>
        <clipPath id="clip0_145_7738">
            <rect width="61" height="62" fill="white"/>
        </clipPath>
    </defs>
</svg>
