<svg width="67" height="64" viewBox="0 0 67 64" fill="none" xmlns="http://www.w3.org/2000/svg">
    <g clip-path="url(#clip0_145_7757)">
        <path d="M31.6669 64C17.7353 63.1308 8.34061 55.5368 2.70381 43.2766C-3.66623 29.5983 1.51229 14.639 15.1231 6.17586C22.7305 1.41817 31.1628 -1.9671 39.87 1.28093C53.435 6.3131 63.5629 15.3253 66.5875 30.3303C67.8249 36.5061 66.1293 42.3617 62.5089 47.4396C55.039 57.9614 44.6361 63.1766 31.6669 64ZM32.7667 2.83633C31.6669 2.97357 29.6046 3.06507 27.5882 3.52253C25.5718 3.93426 23.6012 4.57471 21.7223 5.35241C4.03281 12.4889 -2.65802 30.7877 6.96578 46.2502C12.7401 55.5368 20.8516 61.7584 32.4001 61.4839C43.7654 61.2095 52.8851 55.9486 59.8967 47.2109C65.396 40.3946 66.1293 32.7091 62.6922 24.6576C60.0342 18.436 55.4514 13.6784 50.5937 9.10366C45.8276 4.57472 40.0992 2.92782 32.7667 2.83633Z" fill="white"/>
        <path d="M24.976 42.8194C22.8221 41.8587 21.3556 41.264 19.935 40.532C17.3228 39.1596 17.3228 38.2447 19.7517 36.6893C18.3768 35.4084 16.9104 34.1732 15.7188 32.7551C15.2147 32.1603 15.2147 31.1539 14.9856 30.3305C15.8105 30.239 16.6812 30.056 17.5061 30.1017C18.1019 30.1017 18.6518 30.3762 19.9808 30.7422C17.1853 28.2261 15.9938 25.6643 16.3146 22.5535C16.4063 21.6843 16.6812 20.7694 17.1395 19.9917C18.056 18.482 19.2934 18.3905 20.4849 19.7629C21.2182 20.6321 21.8597 21.5928 22.5472 22.5077C24.976 25.5728 28.0006 27.5399 32.0335 27.7229C34.1415 27.8144 35.5164 26.8994 36.0205 24.7493C36.2038 23.9259 36.4329 23.1482 36.7537 22.3705C38.0827 19.031 40.924 17.4298 44.4528 18.2533C45.9193 18.5735 47.3399 19.3055 48.8064 19.5342C50.2729 19.7629 51.7852 19.5799 53.6641 19.5799C53.1142 20.4034 52.7017 20.9981 52.2893 21.5928C52.3809 21.6843 52.5184 21.73 52.6101 21.8215C53.6183 22.3705 54.6723 22.8737 55.6805 23.4227C54.8556 24.2004 53.9391 24.9323 53.16 25.7558C52.5184 26.442 51.7394 27.1739 51.5561 27.9974C50.777 31.2454 50.0896 34.5392 49.4938 37.833C48.0732 46.0217 40.8324 50.4134 34.6915 50.4134C29.2838 50.4134 23.8762 49.8187 18.5143 49.3155C17.6436 49.224 16.8645 48.126 16.0396 47.4856C16.7729 46.7079 17.3686 45.7014 18.2852 45.2897C20.2558 44.2375 22.318 43.7343 24.976 42.8194ZM19.6142 33.7157C21.1723 34.6307 22.8679 35.4084 24.3344 36.5063C25.2052 37.1468 25.8467 38.1989 26.4883 39.1139C26.8091 39.5256 26.8091 40.2118 27.1757 40.532C29.0089 42.2247 29.0089 43.9173 26.855 45.1525C25.6634 45.8387 24.1511 46.0674 22.7305 46.3419C21.4931 46.6164 20.2099 46.7079 18.9726 46.8909C18.9726 47.1196 18.9726 47.3026 19.0184 47.5313C22.7305 47.7601 26.4425 48.0345 30.1545 48.2175C35.9288 48.5378 40.4199 45.9302 43.9028 41.7672C47.1108 37.8787 48.0273 32.8923 49.3105 28.0889C49.7229 26.5335 50.3187 25.0238 50.9145 23.2854C48.6689 22.462 46.0567 21.5471 43.4446 20.5864C41.1073 19.7629 39.4576 20.5406 38.7701 22.9195C38.4952 23.7887 38.4035 24.7036 38.1744 25.5728C37.3953 28.5006 35.883 29.8273 32.8125 29.9645C27.8632 30.1475 24.0136 27.9516 20.8974 24.2919C20.3474 23.6514 19.8892 22.9195 19.385 22.2333C19.1559 22.3248 18.9268 22.4162 18.6976 22.462C18.7893 23.3769 18.606 24.4291 19.0184 25.1611C19.8892 26.6707 21.1265 27.9059 22.0431 29.4155C22.7305 30.5135 23.0513 31.7944 23.5554 32.9838C22.4097 33.2125 21.2182 33.3955 19.6142 33.7157Z" fill="white"/>
    </g>
    <defs>
        <clipPath id="clip0_145_7757">
            <rect width="67" height="64" fill="white"/>
        </clipPath>
    </defs>
</svg>
