<svg id="Layer_1" data-name="Layer 1" xmlns="http://www.w3.org/2000/svg" viewBox="0 0 733.51 179.65"><defs><style>.cls-1{fill:#ff5c00;}.cls-2{fill:#fff;}</style></defs><path class="cls-1" d="M130.68,151.2l-5.65-25h5.36l2.36,12,1.32,6.94h.11l1.58-6.94,2.75-12h5.94l2.79,12,1.53,6.94h.11l1.32-6.94,2.4-12h5.15l-5.79,25h-6.19l-3.15-13.52-1.21-5.47h-.11l-1.25,5.47L136.9,151.2Z"/><path class="cls-1" d="M168.19,151.63a9.78,9.78,0,0,1-3.82-.7,8,8,0,0,1-2.85-2,8.33,8.33,0,0,1-1.75-3.1,13.24,13.24,0,0,1-.59-4.07,13.39,13.39,0,0,1,.57-4,8.58,8.58,0,0,1,1.7-3.09,7.62,7.62,0,0,1,2.77-2A9.66,9.66,0,0,1,168,132a9.34,9.34,0,0,1,4,.78,7.54,7.54,0,0,1,2.71,2.11,8.41,8.41,0,0,1,1.54,3.06,13.59,13.59,0,0,1,.49,3.63v1.57H164.65v.29a4.15,4.15,0,0,0,1,2.92,4.08,4.08,0,0,0,3.15,1.09,4.9,4.9,0,0,0,2.68-.66,10,10,0,0,0,1.93-1.58l2.65,3.3a8.3,8.3,0,0,1-3.27,2.3A12.09,12.09,0,0,1,168.19,151.63Zm-.1-15.73a3.17,3.17,0,0,0-2.53,1,4.18,4.18,0,0,0-.91,2.81V140h6.58v-.32a4.55,4.55,0,0,0-.77-2.77A2.74,2.74,0,0,0,168.09,135.9Z"/><path class="cls-1" d="M196.48,151.63a9.43,9.43,0,0,1-3.75-.7,7.47,7.47,0,0,1-2.76-2,8.49,8.49,0,0,1-1.68-3.1,13.57,13.57,0,0,1-.57-4.07,13.41,13.41,0,0,1,.57-4.06,8.66,8.66,0,0,1,1.68-3.1,7.14,7.14,0,0,1,2.76-2,9.61,9.61,0,0,1,3.75-.68,8.45,8.45,0,0,1,4.78,1.28A7.1,7.1,0,0,1,204,136.9l-4.29,1.86a3.58,3.58,0,0,0-1-1.83,3,3,0,0,0-2.18-.75,2.88,2.88,0,0,0-2.43,1.06,4.48,4.48,0,0,0-.82,2.84v3.5a4.41,4.41,0,0,0,.82,2.83,2.92,2.92,0,0,0,2.43,1,3.23,3.23,0,0,0,2.27-.77,4.59,4.59,0,0,0,1.24-2l4.11,1.78a7.34,7.34,0,0,1-2.88,3.94A8.63,8.63,0,0,1,196.48,151.63Z"/><path class="cls-1" d="M214.83,151.63a9.57,9.57,0,0,1-3.7-.68,7.31,7.31,0,0,1-2.76-2,8.77,8.77,0,0,1-1.73-3.11,13.92,13.92,0,0,1,0-8.15,8.6,8.6,0,0,1,1.73-3.09,7.38,7.38,0,0,1,2.76-1.95,10.41,10.41,0,0,1,7.4,0,7.46,7.46,0,0,1,2.76,1.95,8.75,8.75,0,0,1,1.73,3.09,13.92,13.92,0,0,1,0,8.15,8.93,8.93,0,0,1-1.73,3.11,7.39,7.39,0,0,1-2.76,2A9.57,9.57,0,0,1,214.83,151.63Zm0-4.18a3.09,3.09,0,0,0,2.43-1,4,4,0,0,0,.86-2.75V139.9a4,4,0,0,0-.86-2.75,3.53,3.53,0,0,0-4.86,0,4,4,0,0,0-.86,2.75v3.83a4,4,0,0,0,.86,2.75A3.09,3.09,0,0,0,214.83,147.45Z"/><path class="cls-1" d="M238.9,148.05h-.18a4.54,4.54,0,0,1-.68,1.42,4.89,4.89,0,0,1-1.13,1.14,5.27,5.27,0,0,1-1.5.75,5.63,5.63,0,0,1-1.73.27,6.22,6.22,0,0,1-5.4-2.52q-1.83-2.52-1.83-7.31t1.83-7.3a6.23,6.23,0,0,1,5.4-2.5,5.43,5.43,0,0,1,3.23,1,4.35,4.35,0,0,1,1.81,2.57h.18V124.74h5.29V151.2H238.9Zm-3.47-.71a4,4,0,0,0,2.48-.73,2.39,2.39,0,0,0,1-2V139a2.37,2.37,0,0,0-1-2,4,4,0,0,0-2.48-.73,3.28,3.28,0,0,0-2.49,1.05,4,4,0,0,0-1,2.85v3.25a4,4,0,0,0,1,2.84A3.25,3.25,0,0,0,235.43,147.34Z"/><path class="cls-1" d="M257,151.63a9.83,9.83,0,0,1-3.83-.7,7.85,7.85,0,0,1-2.84-2,8.19,8.19,0,0,1-1.75-3.1,13,13,0,0,1-.59-4.07,13.39,13.39,0,0,1,.57-4,8.58,8.58,0,0,1,1.7-3.09,7.54,7.54,0,0,1,2.77-2,9.64,9.64,0,0,1,3.75-.69,9.34,9.34,0,0,1,4,.78,7.58,7.58,0,0,1,2.72,2.11A8.57,8.57,0,0,1,265,138a13.59,13.59,0,0,1,.48,3.63v1.57H253.42v.29a3.66,3.66,0,0,0,4.15,4,4.93,4.93,0,0,0,2.68-.66,10.6,10.6,0,0,0,1.93-1.58l2.65,3.3a8.41,8.41,0,0,1-3.28,2.3A12,12,0,0,1,257,151.63Zm-.11-15.73a3.17,3.17,0,0,0-2.52,1,4.13,4.13,0,0,0-.91,2.81V140H260v-.32a4.61,4.61,0,0,0-.77-2.77A2.76,2.76,0,0,0,256.85,135.9Z"/><path class="cls-1" d="M284.25,151.2a5.69,5.69,0,0,1-4.17-1.39,5.49,5.49,0,0,1-1.41-4.08v-9.19H276v-4.11h1.32a1.76,1.76,0,0,0,1.47-.52,2.45,2.45,0,0,0,.39-1.49v-3.07H284v5.08h3.72v4.11H284v10.55h3.43v4.11Z"/><path class="cls-1" d="M291.36,124.74h5.3v10.87h.21a5.72,5.72,0,0,1,1.75-2.54,6,6,0,0,1,7.85.86,8.88,8.88,0,0,1,1.49,5.51V151.2h-5.3V139.86a5.07,5.07,0,0,0-.57-2.7,2.25,2.25,0,0,0-2-.87,4.76,4.76,0,0,0-1.25.16,3.23,3.23,0,0,0-1.09.52,2.78,2.78,0,0,0-.77.87,2.47,2.47,0,0,0-.28,1.2V151.2h-5.3Z"/><path class="cls-1" d="M320.51,151.63a9.83,9.83,0,0,1-3.83-.7,7.94,7.94,0,0,1-2.84-2,8.33,8.33,0,0,1-1.75-3.1,13,13,0,0,1-.59-4.07,13.39,13.39,0,0,1,.57-4,8.58,8.58,0,0,1,1.7-3.09,7.54,7.54,0,0,1,2.77-2,9.66,9.66,0,0,1,3.76-.69,9.29,9.29,0,0,1,4,.78,7.58,7.58,0,0,1,2.72,2.11,8.57,8.57,0,0,1,1.54,3.06,13.59,13.59,0,0,1,.48,3.63v1.57H317v.29a3.66,3.66,0,0,0,4.15,4,4.93,4.93,0,0,0,2.68-.66,10.27,10.27,0,0,0,1.93-1.58l2.65,3.3a8.45,8.45,0,0,1-3.27,2.3A12.09,12.09,0,0,1,320.51,151.63Zm-.11-15.73a3.17,3.17,0,0,0-2.52,1,4.13,4.13,0,0,0-.91,2.81V140h6.58v-.32a4.61,4.61,0,0,0-.77-2.77A2.74,2.74,0,0,0,320.4,135.9Z"/><path class="cls-1" d="M342.15,136.54H339.5v-4.11h2.65v-2.22a5.42,5.42,0,0,1,1.43-4.1,5.83,5.83,0,0,1,4.18-1.37h3.44v4.11h-3.76v3.58h3.76v4.11h-3.76V151.2h-5.29Z"/><path class="cls-1" d="M365.21,148.05H365a6.37,6.37,0,0,1-.67,1.36,4.55,4.55,0,0,1-1.05,1.15,5.07,5.07,0,0,1-1.52.78,6.27,6.27,0,0,1-2,.29,5.22,5.22,0,0,1-4.38-1.91,8.82,8.82,0,0,1-1.49-5.49v-11.8h5.3v11.33a4.88,4.88,0,0,0,.6,2.65,2.3,2.3,0,0,0,2.08.93,4.22,4.22,0,0,0,1.21-.18,3.39,3.39,0,0,0,1.08-.52,2.53,2.53,0,0,0,.75-.84,2.34,2.34,0,0,0,.28-1.18V132.43h5.3V151.2h-5.3Z"/><path class="cls-1" d="M382,151.2a5.68,5.68,0,0,1-4.16-1.39,5.46,5.46,0,0,1-1.42-4.08v-9.19H373.8v-4.11h1.32a1.78,1.78,0,0,0,1.47-.52,2.45,2.45,0,0,0,.39-1.49v-3.07h4.76v5.08h3.72v4.11h-3.72v10.55h3.43v4.11Z"/><path class="cls-1" d="M400.23,148.05h-.18a6.83,6.83,0,0,1-.66,1.36,4.79,4.79,0,0,1-1.06,1.15,5,5,0,0,1-1.52.78,6.23,6.23,0,0,1-2,.29,5.22,5.22,0,0,1-4.38-1.91,8.82,8.82,0,0,1-1.48-5.49v-11.8h5.29v11.33a4.79,4.79,0,0,0,.61,2.65,2.27,2.27,0,0,0,2.07.93,4.29,4.29,0,0,0,1.22-.18,3.44,3.44,0,0,0,1.07-.52,2.53,2.53,0,0,0,.75-.84,2.34,2.34,0,0,0,.29-1.18V132.43h5.29V151.2h-5.29Z"/><path class="cls-1" d="M410.45,151.2V132.43h5.3v4.07h.18a5.65,5.65,0,0,1,.5-1.52,4.49,4.49,0,0,1,.95-1.3,4.28,4.28,0,0,1,1.41-.91,5,5,0,0,1,1.93-.34h.93v4.93h-1.32a7.54,7.54,0,0,0-3.46.61,2.32,2.32,0,0,0-1.12,2.25v11Z"/><path class="cls-1" d="M432.56,151.63a9.83,9.83,0,0,1-3.83-.7,7.85,7.85,0,0,1-2.84-2,8.34,8.34,0,0,1-1.76-3.1,13.24,13.24,0,0,1-.59-4.07,13.08,13.08,0,0,1,.58-4,8.43,8.43,0,0,1,1.7-3.09,7.54,7.54,0,0,1,2.77-2,9.57,9.57,0,0,1,3.75-.69,9.34,9.34,0,0,1,4,.78,7.67,7.67,0,0,1,2.72,2.11,8.74,8.74,0,0,1,1.54,3.06,13.59,13.59,0,0,1,.48,3.63v1.57H429v.29a4.11,4.11,0,0,0,1,2.92,4,4,0,0,0,3.14,1.09,4.94,4.94,0,0,0,2.69-.66,10.6,10.6,0,0,0,1.93-1.58l2.64,3.3a8.3,8.3,0,0,1-3.27,2.3A12,12,0,0,1,432.56,151.63Zm-.11-15.73a3.17,3.17,0,0,0-2.52,1,4.13,4.13,0,0,0-.91,2.81V140h6.58v-.32a4.61,4.61,0,0,0-.77-2.77A2.77,2.77,0,0,0,432.45,135.9Z"/><path class="cls-1" d="M447.36,151.6a3.16,3.16,0,0,1-2.38-.81,2.87,2.87,0,0,1-.76-2.06V148A2.87,2.87,0,0,1,445,146a3.94,3.94,0,0,1,4.76,0,2.87,2.87,0,0,1,.77,2.06v.71a2.87,2.87,0,0,1-.77,2.06A3.13,3.13,0,0,1,447.36,151.6Z"/><path class="cls-1" d="M474.51,131.07V151.2h-5.44V131.07h-6.76v-4.83h19v4.83Z"/><path class="cls-1" d="M490,151.63a9.61,9.61,0,0,1-3.7-.68,7.36,7.36,0,0,1-2.75-2,9,9,0,0,1-1.74-3.11,14.14,14.14,0,0,1,0-8.15,8.76,8.76,0,0,1,1.74-3.09,7.42,7.42,0,0,1,2.75-1.95,10.43,10.43,0,0,1,7.41,0,7.42,7.42,0,0,1,2.75,1.95,8.6,8.6,0,0,1,1.73,3.09,13.92,13.92,0,0,1,0,8.15,8.77,8.77,0,0,1-1.73,3.11,7.36,7.36,0,0,1-2.75,2A9.62,9.62,0,0,1,490,151.63Zm0-4.18a3.13,3.13,0,0,0,2.44-1,4,4,0,0,0,.85-2.75V139.9a4,4,0,0,0-.85-2.75,3.09,3.09,0,0,0-2.44-1,3.06,3.06,0,0,0-2.43,1,4,4,0,0,0-.86,2.75v3.83a4,4,0,0,0,.86,2.75A3.09,3.09,0,0,0,490,147.45Z"/><path class="cls-1" d="M519.93,152.56a6.33,6.33,0,0,1-.52,2.65,4.77,4.77,0,0,1-1.7,1.95,8.82,8.82,0,0,1-3.13,1.21,23.35,23.35,0,0,1-4.81.41,24.19,24.19,0,0,1-4.13-.3,9.5,9.5,0,0,1-2.75-.86,3.71,3.71,0,0,1-1.54-1.36,3.51,3.51,0,0,1-.48-1.84,3.27,3.27,0,0,1,.93-2.47,4.49,4.49,0,0,1,2.57-1.11v-.39a3.14,3.14,0,0,1-2-1.16,3.5,3.5,0,0,1-.68-2.13,2.59,2.59,0,0,1,.31-1.31,3.47,3.47,0,0,1,.78-1,4.2,4.2,0,0,1,1.13-.66,7.92,7.92,0,0,1,1.29-.39v-.15a5.46,5.46,0,0,1-2.54-2.16,6.1,6.1,0,0,1-.82-3.2,5.81,5.81,0,0,1,2-4.59c1.32-1.16,3.34-1.73,6.06-1.73a12.84,12.84,0,0,1,3.19.35v-.71a2.78,2.78,0,0,1,.73-2.16,3,3,0,0,1,2.09-.67h3v3.94h-4.15V133a5.34,5.34,0,0,1,2.43,2.17,6.25,6.25,0,0,1,.79,3.2,5.66,5.66,0,0,1-2,4.52q-2,1.69-6.07,1.7a13.21,13.21,0,0,1-3.32-.39,1.68,1.68,0,0,0-.83,1.5,1.24,1.24,0,0,0,.52,1.05,3.07,3.07,0,0,0,1.74.38h5.43c2.29,0,4,.48,5,1.43A5.2,5.2,0,0,1,519.93,152.56Zm-5,.72a1.43,1.43,0,0,0-.65-1.26,4.37,4.37,0,0,0-2.25-.42h-6.44a2.09,2.09,0,0,0-.52.8,2.78,2.78,0,0,0-.16.88,1.62,1.62,0,0,0,.9,1.52,6.9,6.9,0,0,0,3,.48H511a6.9,6.9,0,0,0,3-.48A1.62,1.62,0,0,0,515,153.28ZM509.84,141a3.56,3.56,0,0,0,2.35-.65,2.37,2.37,0,0,0,.76-1.9v-.43a2.37,2.37,0,0,0-.76-1.9,3.56,3.56,0,0,0-2.35-.66,3.51,3.51,0,0,0-2.34.66,2.37,2.37,0,0,0-.77,1.9v.43a2.37,2.37,0,0,0,.77,1.9A3.51,3.51,0,0,0,509.84,141Z"/><path class="cls-1" d="M529.91,151.63a9.83,9.83,0,0,1-3.83-.7,7.85,7.85,0,0,1-2.84-2,8.34,8.34,0,0,1-1.76-3.1,13.24,13.24,0,0,1-.59-4.07,13.08,13.08,0,0,1,.58-4,8.56,8.56,0,0,1,1.69-3.09,7.66,7.66,0,0,1,2.78-2,9.57,9.57,0,0,1,3.75-.69,9.34,9.34,0,0,1,4,.78,7.67,7.67,0,0,1,2.72,2.11,8.74,8.74,0,0,1,1.54,3.06,13.59,13.59,0,0,1,.48,3.63v1.57h-12v.29a4.11,4.11,0,0,0,1,2.92,4,4,0,0,0,3.14,1.09,5,5,0,0,0,2.69-.66,10.6,10.6,0,0,0,1.93-1.58l2.64,3.3a8.3,8.3,0,0,1-3.27,2.3A12.08,12.08,0,0,1,529.91,151.63Zm-.11-15.73a3.17,3.17,0,0,0-2.52,1,4.13,4.13,0,0,0-.91,2.81V140H533v-.32a4.61,4.61,0,0,0-.77-2.77A2.77,2.77,0,0,0,529.8,135.9Z"/><path class="cls-1" d="M548.75,151.2a5.68,5.68,0,0,1-4.16-1.39,5.46,5.46,0,0,1-1.42-4.08v-9.19h-2.64v-4.11h1.32a1.76,1.76,0,0,0,1.47-.52,2.45,2.45,0,0,0,.39-1.49v-3.07h4.76v5.08h3.72v4.11h-3.72v10.55h3.43v4.11Z"/><path class="cls-1" d="M555.87,124.74h5.29v10.87h.22a5.72,5.72,0,0,1,1.75-2.54,6,6,0,0,1,7.85.86,8.88,8.88,0,0,1,1.48,5.51V151.2h-5.29V139.86a5.07,5.07,0,0,0-.57-2.7,2.25,2.25,0,0,0-2-.87,4.71,4.71,0,0,0-1.25.16,3.14,3.14,0,0,0-1.09.52,2.78,2.78,0,0,0-.77.87,2.48,2.48,0,0,0-.29,1.2V151.2h-5.29Z"/><path class="cls-1" d="M585,151.63a9.83,9.83,0,0,1-3.83-.7,7.85,7.85,0,0,1-2.84-2,8.19,8.19,0,0,1-1.75-3.1,13,13,0,0,1-.59-4.07,13.39,13.39,0,0,1,.57-4,8.58,8.58,0,0,1,1.7-3.09,7.54,7.54,0,0,1,2.77-2,9.61,9.61,0,0,1,3.75-.69,9.34,9.34,0,0,1,4,.78,7.58,7.58,0,0,1,2.72,2.11,8.74,8.74,0,0,1,1.54,3.06,13.59,13.59,0,0,1,.48,3.63v1.57h-12v.29a3.66,3.66,0,0,0,4.15,4,4.93,4.93,0,0,0,2.68-.66,10.6,10.6,0,0,0,1.93-1.58l2.65,3.3a8.41,8.41,0,0,1-3.28,2.3A12,12,0,0,1,585,151.63Zm-.11-15.73a3.17,3.17,0,0,0-2.52,1,4.13,4.13,0,0,0-.91,2.81V140h6.58v-.32a4.61,4.61,0,0,0-.77-2.77A2.76,2.76,0,0,0,584.91,135.9Z"/><path class="cls-1" d="M597.28,151.2V132.43h5.3v4.07h.18a5.65,5.65,0,0,1,.5-1.52,4.65,4.65,0,0,1,.94-1.3,4.44,4.44,0,0,1,1.42-.91,5,5,0,0,1,1.93-.34h.93v4.93h-1.32a7.51,7.51,0,0,0-3.46.61,2.32,2.32,0,0,0-1.12,2.25v11Z"/><path class="cls-2" d="M274.81,97.37l30.59,0s0-11.16,0-11.17H280.92Q277.86,91.78,274.81,97.37Z"/><path class="cls-2" d="M270.81,81.5V74.62h9.62l6.16-11.46H270.81v-7a4.46,4.46,0,0,1,4.47-4.46H292.8L299,40.57H275.28A15.66,15.66,0,0,0,259.59,56.2V81.5a15.58,15.58,0,0,0,9,14.09L274,85.76a4.46,4.46,0,0,1-3.23-4.26"/><path class="cls-2" d="M305.59,41.3l-5.77,10.44h1.23a4.48,4.48,0,0,1,4.5,4.46v7H293.46l-6.22,11.46h29.53V56.2a15.58,15.58,0,0,0-11.18-14.9"/><path class="cls-2" d="M167.05,40.54H141.59a15.7,15.7,0,0,0-15.76,15.64V81.52a15.71,15.71,0,0,0,15.76,15.66h25.46a15.7,15.7,0,0,0,15.74-15.66V56.18a15.69,15.69,0,0,0-15.74-15.64m.42,41a.41.41,0,0,1-.42.41H141.59a.42.42,0,0,1-.43-.41V56.18a.42.42,0,0,1,.43-.41h25.46a.42.42,0,0,1,.42.41Z"/><path class="cls-2" d="M100.91,81.56a.4.4,0,0,1-.4.41H75a.41.41,0,0,1-.41-.41V56.22a.4.4,0,0,1,.41-.4h25.47a.39.39,0,0,1,.4.4v4.13h15.34V56.22a15.69,15.69,0,0,0-15.74-15.65H75A15.71,15.71,0,0,0,59.29,56.22V81.56A15.71,15.71,0,0,0,75,97.22h25.47a15.69,15.69,0,0,0,15.74-15.66v-4H100.91Z"/><path class="cls-2" d="M249.74,58.17h0v-2A15.7,15.7,0,0,0,234,40.57H208.51l-.4,0v0H192.78V55.94c0,.09,0,.18,0,.28V81.56c0,.11,0,.2,0,.3V97.22h15.33v0l.4,0H234a15.7,15.7,0,0,0,15.75-15.66V58.17ZM234.4,81.56A.4.4,0,0,1,234,82H208.51a.4.4,0,0,1-.4-.37V56.19a.4.4,0,0,1,.4-.37H234a.4.4,0,0,1,.41.4v2h0v22h0Z"/><path class="cls-2" d="M656.85,40.59H631.63a15.69,15.69,0,0,0-15.75,15.65V97.33h11.24V56.24a4.49,4.49,0,0,1,4.51-4.47h25.22a4.48,4.48,0,0,1,4.5,4.47V97.29H672.6V56.24a15.69,15.69,0,0,0-15.75-15.65"/><path class="cls-2" d="M457,40.56H431.53a15.78,15.78,0,0,0-15.74,15.75V81.65a15.7,15.7,0,0,0,15.74,15.66H457a15.71,15.71,0,0,0,15.74-15.66V56.31A15.78,15.78,0,0,0,457,40.56m4.49,40.82v.22A4.5,4.5,0,0,1,457,86.09H431.53A4.51,4.51,0,0,1,427,81.6V56.25a4.49,4.49,0,0,1,4.49-4.46H457a4.48,4.48,0,0,1,4.49,4.46V81.38Z"/><path class="cls-2" d="M590.17,40.56H564.7A15.79,15.79,0,0,0,549,56.31V81.65A15.71,15.71,0,0,0,564.7,97.31h25.47a15.71,15.71,0,0,0,15.76-15.66V56.31a15.79,15.79,0,0,0-15.76-15.75m4.5,40.82v.22a4.5,4.5,0,0,1-4.5,4.49H564.7a4.52,4.52,0,0,1-4.49-4.55V56.2a4.48,4.48,0,0,1,4.49-4.41h25.47a4.49,4.49,0,0,1,4.5,4.46V81.38Z"/><path class="cls-2" d="M498.6,86.18a4.78,4.78,0,0,1-4.54-4.78V63.21h19.18V51.72H494.06V40.53s0,0,0,0H482.82v41a15.83,15.83,0,0,0,15.73,15.82h19.51V86.18Z"/><rect class="cls-2" x="527.7" y="40.56" width="11.51" height="56.78"/><path class="cls-2" d="M390.38,40.56H376.3a15.42,15.42,0,0,0-10,3.66,15.42,15.42,0,0,0-10-3.66H342.25a15.69,15.69,0,0,0-15.52,15.78V97.27h11.1V56.34a4.49,4.49,0,0,1,4.42-4.53h14.13a4.5,4.5,0,0,1,4.42,4.37c0,.06,0,.11,0,.16V86.22H371.9V56.34c0-.05,0-.1,0-.16a4.48,4.48,0,0,1,4.42-4.37h14.08a4.5,4.5,0,0,1,4.42,4.53V97.27h11.08V56.34a15.68,15.68,0,0,0-15.5-15.78"/><path class="cls-1" d="M40.67,100.78A5.31,5.31,0,0,0,45.9,106h3.89v11H45.9a16.17,16.17,0,0,1-16.24-16.16V79c-1.61-.92-4.29-2.69-6.29-3.88V62.37L29.66,59V37.15A16.2,16.2,0,0,1,45.9,20.87h3.89V32H45.9a5.31,5.31,0,0,0-5.23,5.2V63.06L29.4,68.91l11.27,6.34Z"/><path class="cls-1" d="M692.84,37a5.32,5.32,0,0,0-5.23-5.22h-3.9V20.87h3.9A16.17,16.17,0,0,1,703.84,37V58.77c1.61.92,4.29,2.68,6.3,3.87v12.8l-6.3,3.34v21.88a16.2,16.2,0,0,1-16.23,16.28h-3.9V105.85h3.9a5.3,5.3,0,0,0,5.23-5.19V74.74L704.1,68.9l-11.26-6.35Z"/></svg>