<svg width="552" height="681" viewBox="0 0 552 681" fill="none" xmlns="http://www.w3.org/2000/svg">
<g clip-path="url(#clip0_1060_216)">
<path d="M151.391 630.774V600.418H95.931V580.547H141.898V552.389H95.931V534.515H149.692V504.259H61.1562V630.774H151.391Z" fill="white"/>
<path d="M253.516 403.707H288.291V307.549H324.664V277.293H216.942V307.549H253.516V403.707Z" fill="white"/>
<path d="M250.919 591.931H265.008L287.292 630.774H325.465L298.684 584.242C302.481 581.546 305.779 578.251 308.477 574.556C311.175 570.862 313.273 566.668 314.672 562.174C316.071 557.681 316.771 552.988 316.771 548.095C316.771 542.703 315.772 537.51 313.673 532.218C311.575 527.026 308.677 522.233 304.88 518.039C301.082 513.845 296.586 510.45 291.289 507.954C286.093 505.458 280.397 504.259 274.202 504.259H216.044V630.774H250.819V591.931H250.919ZM250.919 534.515H272.003C273.402 534.515 274.901 535.014 276.4 536.113C277.899 537.211 279.098 538.709 280.098 540.706C281.097 542.703 281.596 545.099 281.596 548.095C281.596 550.991 281.197 553.387 280.297 555.384C279.398 557.381 278.299 558.979 277 559.977C275.701 561.076 274.302 561.575 272.903 561.575H251.019V534.515H250.919Z" fill="white"/>
<path d="M411.702 316.036H368.434V364.964H411.702V316.036Z" fill="white"/>
<path d="M552 316.036H438.882V364.964H552V316.036Z" fill="white"/>
<path d="M77.5442 403.707L127.808 341.599V403.707H162.583V277.293H135.502L84.6391 341.599V277.293H49.8643V403.707H77.5442Z" fill="white"/>
<path d="M93.3324 129.709H152.19V101.551H93.3324V80.5815H161.883V50.2261H58.5576V176.74H93.3324V129.709Z" fill="white"/>
<path d="M255.116 176.74L276.4 137.897H289.791V176.74H322.967V50.2261H267.607C261.711 50.2261 256.315 51.4243 251.319 53.9206C246.322 56.417 242.025 59.812 238.428 64.0058C234.831 68.1997 232.033 72.9926 230.034 78.185C228.035 83.3774 227.036 88.6696 227.036 94.0617C227.036 98.9545 227.736 103.648 229.035 108.141C230.434 112.634 232.332 116.828 235.03 120.523C237.629 124.217 240.726 127.513 244.424 130.209L218.742 176.74H255.116ZM261.911 86.6726C262.91 84.6755 264.109 83.1777 265.508 82.0793C266.907 80.9809 268.306 80.4816 269.705 80.4816H289.791V107.542H268.806C267.407 107.542 266.108 107.043 264.909 105.944C263.71 104.846 262.61 103.348 261.811 101.351C261.012 99.3539 260.512 96.8576 260.512 94.0617C260.512 91.0661 261.012 88.6696 261.911 86.6726Z" fill="white"/>
<path d="M447.576 554.486H401.609V582.644H447.576V600.418H393.715V630.774H482.351V504.259H392.116V534.515H447.576V554.486Z" fill="white"/>
<path d="M390.517 157.568C396.213 163.659 402.908 168.552 410.802 172.147C418.697 175.742 427.39 177.539 436.983 177.539C446.476 177.539 455.17 175.742 462.964 172.247C470.859 168.752 477.654 163.959 483.35 157.968C489.145 151.976 493.542 145.186 496.74 137.598C499.938 130.009 501.437 122.02 501.437 113.733C501.437 105.644 499.938 97.756 496.94 90.1672C493.942 82.4785 489.645 75.5886 484.049 69.3977C478.453 63.2068 471.758 58.3139 463.864 54.7192C456.069 51.1245 447.276 49.3271 437.683 49.3271C428.29 49.3271 419.596 51.0247 411.702 54.5195C403.807 58.0144 397.012 62.7075 391.216 68.6987C385.421 74.6899 380.924 81.4799 377.726 89.0688C374.529 96.6576 372.93 104.646 372.93 113.133C372.93 121.321 374.429 129.21 377.426 136.899C380.524 144.587 384.921 151.477 390.517 157.568ZM410.003 101.251C411.102 97.2568 412.901 93.662 415.299 90.5666C417.697 87.3713 420.695 84.8749 424.292 82.9777C427.89 81.0805 432.187 80.082 437.183 80.082C442.08 80.082 446.376 80.9807 449.974 82.778C453.671 84.5754 456.669 87.0717 459.067 90.1672C461.466 93.3625 463.264 96.8574 464.463 100.752C465.662 104.646 466.262 108.74 466.262 113.034C466.262 117.227 465.662 121.222 464.563 125.216C463.464 129.21 461.665 132.805 459.367 136.1C457.069 139.395 454.071 141.991 450.374 143.888C446.676 145.786 442.379 146.784 437.383 146.784C432.387 146.784 428.09 145.885 424.492 143.988C420.895 142.191 417.897 139.694 415.499 136.499C413.101 133.404 411.302 129.809 410.103 125.815C408.904 121.821 408.304 117.727 408.304 113.433C408.304 109.339 408.804 105.245 410.003 101.251Z" fill="white"/>
<path d="M264.909 106.044C266.108 107.143 267.507 107.642 268.806 107.642H289.79V80.5815H269.705C268.306 80.5815 267.007 81.0808 265.508 82.1792C264.109 83.2776 262.91 84.7754 261.911 86.7725C260.911 88.7695 260.512 91.166 260.512 94.1616C260.512 97.0574 260.911 99.4538 261.811 101.451C262.61 103.448 263.709 104.946 264.909 106.044Z" fill="#EA5178"/>
<path d="M415.399 136.599C417.797 139.795 420.795 142.291 424.392 144.088C427.99 145.886 432.287 146.884 437.283 146.884C442.279 146.884 446.576 145.886 450.274 143.988C453.971 142.091 456.969 139.495 459.267 136.2C461.565 132.905 463.264 129.31 464.463 125.316C465.563 121.322 466.162 117.228 466.162 113.134C466.162 108.84 465.563 104.746 464.363 100.852C463.164 96.9575 461.366 93.3628 458.967 90.2673C456.569 87.072 453.571 84.6755 449.874 82.8782C446.177 81.0808 441.88 80.1821 437.083 80.1821C432.087 80.1821 427.79 81.1807 424.193 83.0779C420.595 84.9751 417.597 87.4714 415.199 90.6667C412.801 93.862 411.102 97.3569 409.903 101.351C408.804 105.345 408.204 109.439 408.204 113.533C408.204 117.827 408.804 121.921 410.003 125.915C411.302 129.909 413.001 133.404 415.399 136.599Z" fill="#EA5178"/>
<path d="M0 0V226.967H8.6937H552V11.6828V0H0ZM161.883 80.5817H93.3324V101.651H152.19V129.809H93.3324V176.74H58.5576V50.2262H161.883V80.5817ZM322.866 176.74H289.79V137.898H276.4L255.115 176.74H218.741L244.223 130.209C240.626 127.513 237.528 124.218 234.83 120.523C232.232 116.828 230.233 112.635 228.834 108.141C227.435 103.648 226.836 98.9547 226.836 94.0619C226.836 88.6698 227.835 83.4774 229.833 78.1852C231.832 72.9928 234.63 68.1999 238.227 64.006C241.825 59.8122 246.122 56.4172 251.118 53.9208C256.114 51.4245 261.51 50.2262 267.406 50.2262H322.766V176.74H322.866ZM496.84 137.698C493.642 145.287 489.245 152.077 483.45 158.068C477.654 164.059 470.859 168.852 463.064 172.347C455.27 175.842 446.576 177.639 437.083 177.639C427.49 177.639 418.697 175.842 410.902 172.247C403.008 168.652 396.313 163.76 390.617 157.668C384.921 151.577 380.624 144.688 377.626 136.999C374.629 129.31 373.13 121.422 373.13 113.234C373.13 104.846 374.728 96.7579 377.926 89.1691C381.124 81.5802 385.621 74.7902 391.416 68.799C397.212 62.8078 404.007 58.1147 411.902 54.6198C419.796 51.2248 428.49 49.4274 437.883 49.4274C447.476 49.4274 456.269 51.2248 464.064 54.8195C471.958 58.4142 478.653 63.307 484.249 69.4979C489.845 75.6889 494.142 82.5787 497.14 90.2675C500.138 97.9562 501.636 105.845 501.636 113.833C501.537 122.121 499.938 130.109 496.84 137.698Z" fill="#EA5178"/>
<path d="M276.899 559.977C278.199 558.879 279.298 557.381 280.197 555.384C281.096 553.387 281.496 550.891 281.496 548.095C281.496 545.099 280.997 542.703 279.997 540.706C278.998 538.709 277.699 537.211 276.3 536.112C274.801 535.014 273.402 534.515 271.903 534.515H250.818V561.575H272.802C274.301 561.575 275.6 561.076 276.899 559.977Z" fill="#084255"/>
<path d="M8.6937 454.033H0V681H552V661.329V454.033H8.6937ZM392.116 504.259H482.35V630.774H393.715V600.518H447.576V582.744H401.609V554.586H447.576V534.615H392.116V504.259ZM216.143 504.259H274.301C280.497 504.259 286.193 505.558 291.389 507.954C296.585 510.45 301.082 513.845 304.979 518.039C308.776 522.233 311.674 527.026 313.773 532.218C315.871 537.411 316.87 542.703 316.87 548.095C316.87 552.988 316.171 557.681 314.772 562.174C313.373 566.668 311.274 570.862 308.576 574.556C305.878 578.251 302.581 581.546 298.783 584.242L325.564 630.774H287.392L265.108 591.931H251.018V630.774H216.243V504.259H216.143ZM61.1557 504.259H149.791V534.515H95.9305V552.289H141.897V580.448H95.9305V600.418H151.39V630.674H61.1557V504.259Z" fill="#084255"/>
<path d="M552 316.036V226.966H8.6937H0V453.933H8.6937H552V364.864H438.882V315.936H552V316.036ZM162.582 403.707H127.807V341.498L77.5438 403.707H49.8639V277.292H84.6387V341.598L135.502 277.292H162.582V403.707ZM324.665 307.548H288.291V403.807H253.516V307.548H216.943V277.292H324.665V307.548ZM411.702 364.964H368.433V316.036H411.702V364.964Z" fill="#0193B1"/>
</g>
<defs>
<clipPath id="clip0_1060_216">
<rect width="552" height="681" fill="white"/>
</clipPath>
</defs>
</svg>
