<?xml version="1.0" encoding="UTF-8"?>
<svg id="Layer_2" data-name="Layer 2" xmlns="http://www.w3.org/2000/svg" viewBox="0 0 651.97 651.97">
  <defs>
    <style>
      .cls-1 {
        fill: none;
      }

      .cls-2 {
        fill: #fff;
      }
    </style>
  </defs>
  <g id="Livello_1" data-name="Livello 1">
    <rect class="cls-1" width="651.97" height="651.97"/>
    <path class="cls-2" d="m351.16,416c-1.04,0-2.07-.02-3.11-.05-30.48-.94-55.3-16.03-66.4-40.37-9.68-21.21-7.83-44.05,5.2-64.32,12.87-20.01,35.97-36.9,66.82-48.84,11.01-4.26,22.76-7.79,35.04-10.55-.79-1.46-1.61-2.91-2.45-4.35-21.91-37.29-49.07-45.53-68-45.88-32.14-.6-58.65,11.39-77.37,34.15-30.85,37.5-27.44,90.12-14.78,135.99l-39.27,9.26c-19.11-67.93-12.87-125.36,22.65-170.58,25.81-32.86,65.13-49.99,109.51-49.15,41.32.76,77.56,24.12,102.04,65.77,3.48,5.92,6.65,12.13,9.5,18.56,10.57-1.24,36.98-1.02,45.86-1v40.32c-4.36,0-28.3-.17-33.15.31.99,4.79,1.78,9.59,2.37,14.36,3.24,26.18.09,49.85-8.85,66.64-16.23,30.45-49.59,49.72-85.6,49.73Zm51.84-125.93c-12.32,2.46-23.99,5.8-34.77,9.98-22.5,8.71-39.35,20.44-47.45,33.04-5.66,8.8-6.43,16.99-2.43,25.76,2.2,4.83,9.63,16.13,30.94,16.79,17.97.59,41.03-7.99,51.87-28.33,6.28-11.78,7.23-33.63,1.84-57.23Z"/>
    <rect class="cls-2" x="161.34" y="450.34" width="329.34" height="40.34"/>
  </g>
</svg>