<?xml version="1.0" encoding="UTF-8"?>
<!DOCTYPE svg PUBLIC "-//W3C//DTD SVG 1.1//EN" "http://www.w3.org/Graphics/SVG/1.1/DTD/svg11.dtd">
<!-- Creator: CorelDRAW X8 -->
<svg xmlns="http://www.w3.org/2000/svg" xml:space="preserve" width="172.798mm" height="165.667mm" version="1.1" style="shape-rendering:geometricPrecision; text-rendering:geometricPrecision; image-rendering:optimizeQuality; fill-rule:evenodd; clip-rule:evenodd"
viewBox="0 0 17280 16567"
 xmlns:xlink="http://www.w3.org/1999/xlink">
 <defs>
  <style type="text/css">
   <![CDATA[
    .str0 {stroke:#666666;stroke-width:42.33}
    .fil5 {fill:#0F9D58;fill-rule:nonzero}
    .fil7 {fill:#4284F3;fill-rule:nonzero}
    .fil4 {fill:#4285F4;fill-rule:nonzero}
    .fil9 {fill:#666666;fill-rule:nonzero}
    .fil1 {fill:#757575;fill-rule:nonzero}
    .fil3 {fill:#DB4437;fill-rule:nonzero}
    .fil6 {fill:#E94335;fill-rule:nonzero}
    .fil2 {fill:#F4B400;fill-rule:nonzero}
    .fil8 {fill:#FBBB04;fill-rule:nonzero}
    .fil0 {fill:white;fill-rule:nonzero}
   ]]>
  </style>
 </defs>
 <g id="Livello_x0020_1">
  <metadata id="CorelCorpID_0Corel-Layer"/>
  <g id="_2756489270992">
   <path class="fil0" d="M8654 932c2997,0 5426,2430 5426,5426 0,2997 -2429,5427 -5426,5427 -2997,0 -5427,-2430 -5427,-5427 0,-2996 2430,-5426 5427,-5426z"/>
   <path class="fil1" d="M8998 7849l351 0 -489 1537 -220 0 358 -1537zm168 -2865c84,0 147,26 207,86 60,59 86,121 86,206 0,86 -26,150 -87,211 -60,62 -123,89 -206,89 -86,0 -149,-27 -209,-88 -58,-62 -84,-126 -84,-212 0,-85 26,-148 83,-207 60,-58 124,-85 210,-85zm-2222 -1512l0 569 -1552 1993 0 165 1552 1757 0 570 -2156 -2300 0 -188 2156 -2566zm207 -203l-1749 0 -535 0c-711,872 -1100,1963 -1102,3089 2,2185 1453,4104 3554,4703l0 -2194 1 20 0 -191 0 -907 -1 -19 0 -9 1328 0 -421 1995 809 0 -111 -184c6,630 219,1198 559,1610 409,-71 807,-195 1184,-367l0 -3778 0 0 0 -1450c0,-1285 -1035,-2318 -2320,-2318l-979 0 -217 0z"/>
   <path class="fil2" d="M13492 6294c1,21 2,43 2,64 0,2674 -2167,4841 -4840,4841 -11,0 -21,-1 -31,-1l0 1389c3476,0 6294,-2818 6294,-6293l-1425 0z"/>
   <path class="fil1" d="M8998 7849l351 0 -489 1537 -220 0 358 -1537zm168 -2865c84,0 147,26 208,86 59,59 85,121 85,206 0,85 -26,149 -86,211 -61,62 -123,88 -207,88 -86,0 -149,-26 -209,-87 -58,-62 -84,-126 -84,-212 0,-85 26,-148 83,-207 60,-59 124,-85 210,-85zm-1428 -1715l0 4492 909 0 -421 1995 809 0 -111 -185c12,1202 771,2176 1744,2280l0 -4814 -1 0 0 -1450c0,-1285 -1035,-2318 -2319,-2318l-610 0z"/>
   <path class="fil3" d="M8623 0l0 1519c10,-1 20,-1 31,-1 2647,1 4802,2128 4838,4776l1425 0c0,-3476 -2818,-6294 -6294,-6294z"/>
   <path class="fil4" d="M8623 0c-3476,0 -6293,2818 -6293,6294l1486 0c36,-2635 2172,-4757 4807,-4775l0 -1519z"/>
   <path class="fil5" d="M2330 6294c0,3475 2817,6293 6293,6293l0 -1389c-2661,-17 -4809,-2179 -4810,-4840 1,-21 2,-43 3,-64l-1486 0z"/>
  </g>
  <path class="fil6" d="M989 15565l675 -389c159,-92 214,-295 122,-454 -92,-159 -295,-213 -454,-122l-1166 674 823 291z"/>
  <path class="fil7" d="M1498 16567c115,0 226,-60 288,-166 92,-159 37,-362 -122,-454l-1166 -673c-159,-92 -362,-38 -453,121 -92,159 -38,362 121,454l1166 673c53,30 110,45 166,45z"/>
  <path class="fil8" d="M2658 16567c56,0 113,-15 166,-45l1166 -673 -813 -298 -685 396c-159,92 -214,295 -122,454 62,106 173,166 288,166z"/>
  <path class="fil5" d="M3824 15893c114,0 226,-59 288,-166 91,-159 37,-362 -122,-453l-1166 -674c-159,-91 -362,-37 -454,122 -92,159 -37,362 122,454l1166 673c52,30 109,44 166,44z"/>
  <path class="fil9 str0" d="M5475 16228c-116,-66 -208,-159 -277,-276 -68,-117 -102,-247 -102,-389 0,-142 34,-272 102,-389 69,-118 161,-210 277,-277 116,-67 243,-100 381,-100 108,0 209,19 304,57 95,39 173,93 234,162l-125 125c-46,-57 -105,-101 -178,-132 -72,-31 -150,-46 -233,-46 -104,0 -201,25 -290,75 -89,49 -161,120 -215,211 -54,90 -81,195 -81,314 0,119 27,223 81,314 54,91 126,161 216,211 90,50 186,75 289,75 98,0 180,-15 246,-46 67,-31 124,-71 171,-122 36,-38 65,-84 86,-138 22,-54 36,-114 41,-179l-542 0 0 -162 704 0c7,38 10,74 10,106 0,90 -14,178 -43,263 -28,86 -74,161 -137,225 -135,146 -314,219 -538,219 -138,0 -265,-34 -381,-101z"/>
  <path class="fil9 str0" d="M6792 14830l442 0c150,0 281,31 393,93 112,62 198,148 258,259 60,111 90,238 90,381 0,143 -30,270 -90,381 -60,110 -146,197 -258,259 -112,62 -243,93 -393,93l-442 0 0 -1466zm442 1300l0 0c173,0 311,-50 412,-149 102,-100 153,-239 153,-418 0,-179 -51,-318 -153,-418 -101,-99 -239,-149 -412,-149l-270 0 0 1134 270 0z"/>
  <path class="fil9 str0" d="M8497 16228c-116,-66 -208,-159 -276,-276 -68,-117 -103,-247 -103,-389 0,-142 35,-272 103,-389 68,-118 160,-210 276,-277 116,-67 243,-100 381,-100 108,0 209,19 304,57 95,39 173,93 235,162l-125 125c-47,-57 -106,-101 -178,-132 -73,-31 -150,-46 -234,-46 -103,0 -200,25 -289,75 -90,49 -162,120 -216,211 -53,90 -80,195 -80,314 0,119 27,223 80,314 54,91 126,161 217,211 90,50 186,75 288,75 99,0 181,-15 247,-46 66,-31 123,-71 171,-122 36,-38 64,-84 86,-138 22,-54 36,-114 41,-179l-543 0 0 -162 705 0c7,38 10,74 10,106 0,90 -14,178 -43,263 -29,86 -74,161 -137,225 -135,146 -315,219 -539,219 -138,0 -265,-34 -381,-101z"/>
  <path class="fil9" d="M10237 16296m759 33c-140,0 -270,-33 -385,-100 -116,-67 -207,-158 -274,-274 -67,-115 -100,-245 -100,-385 0,-140 33,-270 100,-386 67,-115 158,-207 274,-273 115,-67 245,-100 385,-100 110,0 209,20 301,61 89,41 168,99 237,177l-162 156c-51,-59 -106,-104 -167,-134 -61,-29 -130,-43 -209,-43 -97,0 -186,23 -265,67 -82,45 -147,108 -193,189 -47,83 -71,178 -71,286 0,107 24,203 71,284 46,83 111,146 193,191 79,44 168,67 265,67 163,0 301,-67 414,-203l165 158c-71,83 -155,146 -254,193 -99,46 -207,69 -325,69z"/>
  <path class="fil9" d="M11692 16296m384 33c-75,0 -140,-14 -199,-45 -59,-28 -104,-69 -136,-124 -33,-52 -49,-113 -49,-180 0,-108 41,-191 122,-254 79,-63 181,-93 304,-93 61,0 116,6 165,16 48,12 87,24 115,39l0 -53c0,-63 -24,-116 -71,-156 -46,-39 -107,-59 -182,-59 -53,0 -102,12 -148,34 -47,23 -86,55 -114,96l-156 -120c46,-63 105,-114 178,-148 73,-35 154,-53 244,-53 150,0 266,37 347,110 81,75 121,178 121,312l0 645 -219 0 0 -123 -10 0c-30,44 -71,81 -126,111 -54,31 -115,45 -186,45zm38 -185c55,0 104,-12 146,-38 43,-27 77,-61 102,-104 24,-43 36,-89 36,-140 -30,-18 -67,-32 -107,-43 -43,-10 -85,-16 -130,-16 -83,0 -146,16 -185,49 -38,34 -59,77 -59,130 0,46 19,85 55,115 37,31 83,47 142,47z"/>
  <path class="fil9" d="M12768 16296m497 17c-47,0 -90,-9 -130,-23 -41,-14 -73,-34 -100,-59 -58,-58 -87,-138 -87,-237l0 -536 -180 0 0 -196 180 0 0 -293 223 0 0 293 252 0 0 196 -252 0 0 487c0,55 10,96 33,118 20,26 55,41 105,41 23,0 43,-5 61,-11 18,-6 37,-14 57,-28l0 217c-45,20 -99,31 -162,31z"/>
  <path class="fil9" d="M13557 16296m383 33c-75,0 -140,-14 -199,-45 -58,-28 -103,-69 -136,-124 -32,-52 -48,-113 -48,-180 0,-108 40,-191 121,-254 80,-63 181,-93 305,-93 61,0 115,6 164,16 49,12 87,24 116,39l0 -53c0,-63 -25,-116 -71,-156 -47,-39 -108,-59 -183,-59 -53,0 -101,12 -148,34 -47,23 -85,55 -114,96l-156 -120c47,-63 106,-114 179,-148 73,-35 154,-53 243,-53 150,0 266,37 347,110 81,75 122,178 122,312l0 645 -219 0 0 -123 -10 0c-31,44 -71,81 -126,111 -55,31 -116,45 -187,45zm39 -185c55,0 103,-12 146,-38 42,-27 77,-61 101,-104 25,-43 37,-89 37,-140 -31,-18 -67,-32 -108,-43 -42,-10 -85,-16 -130,-16 -83,0 -146,16 -184,49 -39,34 -59,77 -59,130 0,46 18,85 55,115 36,31 83,47 142,47zm746 152m0 -1034l213 0 0 135 11 0c30,-48 75,-89 134,-121 58,-31 119,-47 186,-47 126,0 221,37 288,110 65,75 98,174 98,302l0 655 -224 0 0 -625c0,-81 -20,-140 -58,-178 -41,-39 -96,-57 -167,-57 -50,0 -95,14 -134,41 -38,28 -69,65 -91,111 -22,47 -32,96 -32,148l0 560 -224 0 0 -1034zm1159 1034m150 -1185c-43,0 -77,-14 -105,-44 -31,-29 -45,-63 -45,-106 0,-42 14,-77 45,-107 28,-29 62,-43 105,-43 43,0 77,14 108,43 28,30 42,65 42,107 0,43 -14,77 -42,106 -31,30 -65,44 -108,44zm-112 151l224 0 0 1034 -224 0 0 -1034z"/>
  <path class="fil9" d="M16355 16296m383 33c-75,0 -140,-14 -199,-45 -59,-28 -103,-69 -136,-124 -32,-52 -48,-113 -48,-180 0,-108 40,-191 121,-254 79,-63 181,-93 305,-93 61,0 115,6 164,16 49,12 87,24 116,39l0 -53c0,-63 -25,-116 -71,-156 -47,-39 -108,-59 -183,-59 -53,0 -101,12 -148,34 -47,23 -85,55 -114,96l-156 -120c47,-63 106,-114 179,-148 73,-35 154,-53 243,-53 150,0 266,37 347,110 81,75 122,178 122,312l0 645 -219 0 0 -123 -10 0c-31,44 -71,81 -126,111 -55,31 -116,45 -187,45zm39 -185c54,0 103,-12 146,-38 42,-27 77,-61 101,-104 25,-43 37,-89 37,-140 -31,-18 -67,-32 -108,-43 -42,-10 -85,-16 -130,-16 -83,0 -146,16 -184,49 -39,34 -59,77 -59,130 0,46 18,85 55,115 36,31 83,47 142,47z"/>
 </g>
</svg>
