<svg width="400" height="400" viewBox="0 0 400 400" fill="none" xmlns="http://www.w3.org/2000/svg">
<g clip-path="url(#clip0_1790_1195)">
<rect width="400" height="400" fill="#130048"/>
<path d="M433.334 0L-33.333 -16L-33.333 400H433.334V338.634V0Z" fill="#130048"/>
<path fill-rule="evenodd" clip-rule="evenodd" d="M316.598 271.747L250.152 181.779L250.152 88.5389H304.996C311.324 88.5389 316.598 93.9916 316.598 100.535L316.598 271.747ZM306.051 309.916H256.481C245.406 309.916 234.859 304.463 228.004 295.194L85.6211 102.716C81.4024 96.7179 85.0938 88.5389 92.4766 88.5389H142.047C153.121 88.5389 163.668 93.9916 170.523 103.261L313.434 295.739C317.125 301.737 312.906 309.916 306.051 309.916ZM147.32 309.916H92.4766C86.1485 309.916 80.875 304.463 80.875 297.92L80.8751 126.162L147.32 216.676L147.32 309.916ZM304.996 70H242.242C237.496 70 233.277 74.3621 233.277 79.2695L233.277 158.878L184.234 91.8105C174.215 78.1789 158.395 70 141.52 70H93.004C76.6563 70 64 83.6316 64 99.9895L64 298.465C64 315.368 77.1837 328.455 93.004 328.455H155.758C160.504 328.455 164.723 324.093 164.723 319.185L164.723 239.032L213.766 306.644C223.785 320.821 239.606 329 256.481 329H304.996C321.344 329 334 315.368 334 299.011L334 100.535C334 83.6316 320.816 70 304.996 70Z" fill="white"/>
</g>
<defs>
<clipPath id="clip0_1790_1195">
<rect width="400" height="400" fill="white"/>
</clipPath>
</defs>
</svg>
