<svg width="463" height="100" viewBox="0 0 463 100" fill="none" xmlns="http://www.w3.org/2000/svg">
<path d="M49.1448 0C22.0233 0 0.18882 22.2572 0 49.9038V50.0962C0 77.7253 22.0233 100 48.956 100C75.8886 100 97.9119 77.5503 97.9119 49.9038C98.1008 22.4672 76.0774 0 49.1448 0ZM66.8424 47.0166V62.9396L32.3741 29.5538H25.4049V46.8241H6.02509C7.53565 23.797 26.1774 5.94926 48.956 5.94926C71.7346 5.94926 90.3763 23.797 91.8869 46.8241H66.8424V47.0166ZM31.4472 52.9659V36.8504L66.0871 70.2362H72.8675V52.9659H92.0757C90.5651 75.993 71.9234 93.8408 49.1448 93.8408C26.3662 93.8408 7.72447 75.993 6.21391 52.9659H31.4472ZM330.23 31.0936C315.725 31.0936 303.881 43.1846 303.881 57.9528C303.881 72.7209 315.742 84.8119 330.23 84.8119C344.717 84.8119 356.579 72.7209 356.579 57.9528C356.579 43.1846 344.717 31.0936 330.23 31.0936ZM350.571 57.9528C350.571 69.4663 341.353 78.6877 330.23 78.6877C319.106 78.6877 309.889 69.2913 309.889 57.9528C309.889 46.6142 319.106 37.2178 330.23 37.2178C341.525 37.0254 350.571 46.4217 350.571 57.9528ZM280.347 50.0787C271.867 47.9615 270.751 45.4768 270.751 43.5521C270.751 39.9125 274.699 37.0254 279.591 37.0254C284.484 37.0254 288.432 39.9125 288.432 43.5521V46.6142H294.457V43.5521C294.457 36.6404 287.865 30.8836 279.591 30.8836C271.318 30.8836 264.726 36.4479 264.726 43.5521C264.726 51.4261 272.262 54.2957 278.853 56.028C289.771 58.5302 294.285 61.7848 294.285 67.3491C294.285 73.4908 287.694 78.4777 279.609 78.4777C271.524 78.4777 264.932 73.4908 264.932 67.3491V64.287H258.907V67.3491C258.907 76.9379 268.125 84.6194 279.609 84.6194C291.092 84.6194 300.31 76.7454 300.31 67.3491C300.31 56.2205 290.148 52.3884 280.347 50.0787ZM442.818 50.0787C434.338 47.9615 433.223 45.4768 433.223 43.5521C433.223 39.9125 437.171 37.0254 442.063 37.0254C446.955 37.0254 450.903 39.9125 450.903 43.5521V46.6142H456.928V43.5521C456.928 36.6404 450.337 30.8836 442.063 30.8836C433.789 30.8836 427.197 36.4479 427.197 43.5521C427.197 51.4261 434.733 54.2957 441.325 56.028C452.242 58.5302 456.756 61.7848 456.756 67.3491C456.756 73.4908 450.165 78.4777 442.08 78.4777C433.995 78.4777 427.403 73.4908 427.403 67.3491V64.287H421.378V67.3491C421.378 76.9379 430.596 84.6194 442.08 84.6194C453.564 84.6194 462.782 76.7454 462.782 67.3491C462.782 56.2205 452.62 52.3884 442.818 50.0787ZM225.554 55.8355V54.8731C224.044 41.4348 212.749 31.0761 199.377 31.0761C186.005 31.0761 174.71 41.4348 173.2 54.8731H173.011V60.8224C174.521 74.2607 185.816 84.6194 199.188 84.6194C206.158 84.6194 212.938 81.7323 217.83 76.7454L219.907 74.6282L215.581 70.2187L213.504 72.336C209.745 76.168 204.475 78.4777 199.188 78.4777C189.215 78.4777 180.547 70.7961 179.036 60.8224H225.537V55.8355H225.554ZM219.341 54.8731H179.053C180.564 44.8994 189.215 37.2178 199.205 37.2178C209.179 37.0254 217.847 44.8994 219.358 54.8731H219.341ZM415.508 54.8731C413.997 41.4348 402.702 31.0761 389.33 31.0761C381.417 31.0761 373.899 34.7157 368.989 40.8574V31.0761H362.964V84.8119H368.989V57.9528C368.989 46.4392 378.207 37.2178 389.33 37.2178C400.454 37.2178 409.672 46.6142 409.672 57.9528V84.8119H415.697V56.028L415.508 54.8731ZM161.356 72.7209L119.369 14.9606H114.665V84.8294H120.502V26.8591L162.677 84.8119H167.192V14.9606H161.356V72.7384V72.7209ZM245.123 14.9606H239.098V31.0761H227.426V37.2178H239.098V70.6037C239.098 77.5153 240.042 80.1925 243.99 84.2345L246.067 86.3517L250.393 81.9423L248.316 79.825C245.672 77.1303 245.123 76.1855 245.123 70.6212V37.2353H256.796V31.0936H245.123V14.9606Z" fill="#083691"/>
</svg>
