<?xml version="1.0" encoding="UTF-8"?><svg id="Livello_2" xmlns="http://www.w3.org/2000/svg" viewBox="0 0 401.81 351.62"><g id="Livello_1-2"><path d="m201.58,0c-50.97,0-92.02,41.06-92.38,92.02v.35c0,50.97,41.41,92.02,92.02,92.02s92.02-41.41,92.02-92.38h0C293.6,41.41,252.19,0,201.58,0Zm33.27,86.71v29.38l-64.77-61.58h-13.1v31.85h-36.45c2.83-42.47,37.87-75.39,80.7-75.39s77.86,32.92,80.7,75.39h-47.07v.35Zm-66.54,10.97v-29.73l65.12,61.58h12.74v-31.85h36.1c-2.83,42.47-37.87,75.39-80.7,75.39s-77.86-32.92-80.7-75.39h47.43ZM17.12,329.39H5.46v11.58H0v-27.22h5.46v11.19h11.66v-11.19h5.46v27.22h-5.46v-11.58Zm10.26-15.8c0-1.79,1.4-3.2,3.35-3.2s3.35,1.4,3.35,3.2-1.44,3.2-3.35,3.2-3.35-1.4-3.35-3.2Zm.58,5.77h5.46v21.61h-5.46v-21.61Zm19.3-.35c3.39,0,5.85,1.56,7.14,3.43v-3.08h5.5v21.76c0,5.85-3.59,10.49-10.69,10.49-6.08,0-10.33-3.04-10.88-8h5.42c.55,1.95,2.57,3.24,5.3,3.24,3,0,5.34-1.72,5.34-5.73v-3.35c-1.29,1.87-3.74,3.55-7.14,3.55-5.5,0-9.87-4.48-9.87-11.23s4.37-11.08,9.87-11.08Zm1.4,4.8c-2.92,0-5.69,2.18-5.69,6.28s2.77,6.44,5.69,6.44,5.73-2.26,5.73-6.36-2.73-6.36-5.73-6.36Zm16.57-11.7h5.46v9.95c1.4-1.83,3.82-3,6.71-3,4.88,0,8.42,3.28,8.42,9.24v12.68h-5.46v-11.93c0-3.47-1.91-5.34-4.8-5.34s-4.88,1.87-4.88,5.34v11.93h-5.46v-28.86Zm55.89,26.64l6.24,7.02h-6.79l-4.13-4.95c-1.09.27-2.3.43-3.51.43-7.68,0-13.96-5.77-13.96-13.96s6.28-13.92,13.96-13.92,13.92,5.77,13.92,13.92c0,4.95-2.26,9.01-5.73,11.47Zm-8.19-2.38c4.91,0,8.31-3.55,8.31-9.09s-3.39-9.01-8.31-9.01-8.35,3.47-8.35,9.01,3.39,9.09,8.35,9.09Zm38.45,4.6h-5.5v-2.73c-1.37,1.83-3.74,3-6.44,3-5.03,0-8.66-3.28-8.66-9.21v-12.67h5.46v11.9c0,3.47,1.91,5.34,4.8,5.34s4.84-1.87,4.84-5.34v-11.9h5.5v21.61Zm13.84-21.96c3.47,0,5.85,1.64,7.14,3.43v-3.08h5.5v21.61h-5.5v-3.16c-1.29,1.87-3.74,3.51-7.18,3.51-5.46,0-9.83-4.48-9.83-11.23s4.37-11.08,9.87-11.08Zm1.4,4.8c-2.92,0-5.69,2.18-5.69,6.28s2.77,6.44,5.69,6.44,5.73-2.26,5.73-6.36-2.73-6.36-5.73-6.36Zm16.57-11.7h5.46v28.86h-5.46v-28.86Zm10.26,1.48c0-1.79,1.4-3.2,3.35-3.2s3.35,1.4,3.35,3.2-1.44,3.2-3.35,3.2-3.35-1.4-3.35-3.2Zm.58,5.77h5.46v21.61h-5.46v-21.61Zm11.7,4.48h-2.57v-4.48h2.57v-5.34h5.5v5.34h4.84v4.48h-4.84v10.45c0,1.44.58,2.07,2.3,2.07h2.54v4.6h-3.43c-4.13,0-6.9-1.75-6.9-6.71v-10.41Zm29.13-4.48h5.81l-13.38,31.83h-5.81l4.68-10.76-8.66-21.06h6.12l5.58,15.09,5.66-15.09Zm35.14,10.02h-11.66v11.58h-5.46v-27.22h5.46v11.19h11.66v-11.19h5.46v27.22h-5.46v-11.58Zm20.44,11.93c-6.24,0-10.96-4.37-10.96-11.15s4.88-11.15,11.12-11.15,11.12,4.33,11.12,11.15-4.99,11.15-11.27,11.15Zm0-4.76c2.89,0,5.66-2.11,5.66-6.4s-2.69-6.4-5.58-6.4-5.5,2.07-5.5,6.4,2.5,6.4,5.42,6.4Zm23.56,4.76c-5.42,0-9.21-3.16-9.44-7.18h5.5c.2,1.64,1.72,2.89,3.9,2.89s3.31-.97,3.31-2.22c0-3.86-12.21-1.4-12.21-9.32,0-3.59,3.2-6.47,8.54-6.47s8.39,2.85,8.7,7.14h-5.23c-.16-1.68-1.48-2.81-3.63-2.81-2.03,0-3.08.82-3.08,2.07,0,3.94,11.97,1.48,12.13,9.4,0,3.71-3.24,6.51-8.5,6.51Zm13.84-17.47h-2.57v-4.48h2.57v-5.34h5.5v5.34h4.84v4.48h-4.84v10.45c0,1.44.58,2.07,2.3,2.07h2.54v4.6h-3.43c-4.13,0-6.9-1.75-6.9-6.71v-10.41Zm13.69-10.26c0-1.79,1.4-3.2,3.35-3.2s3.35,1.4,3.35,3.2-1.44,3.2-3.35,3.2-3.35-1.4-3.35-3.2Zm.58,5.77h5.46v21.61h-5.46v-21.61Zm25.97,9.67c0-3.47-1.91-5.34-4.8-5.34s-4.88,1.87-4.88,5.34v11.93h-5.46v-21.61h5.46v2.69c1.4-1.83,3.74-3,6.51-3,5.03,0,8.62,3.28,8.62,9.24v12.68h-5.46v-11.93Zm19.11-10.02c3.39,0,5.85,1.56,7.14,3.43v-3.08h5.5v21.76c0,5.85-3.59,10.49-10.69,10.49-6.08,0-10.33-3.04-10.88-8h5.42c.55,1.95,2.57,3.24,5.3,3.24,3,0,5.34-1.72,5.34-5.73v-3.35c-1.29,1.87-3.74,3.55-7.14,3.55-5.5,0-9.87-4.48-9.87-11.23s4.37-11.08,9.87-11.08Zm1.4,4.8c-2.92,0-5.69,2.18-5.69,6.28s2.77,6.44,5.69,6.44,5.73-2.26,5.73-6.36-2.73-6.36-5.73-6.36ZM53.89,211.06h6.74v79.1h-5.22L6.74,224.53v65.63H0v-79.1h5.43l48.46,65.41v-65.41Zm137.34,39.77c-9.78-2.39-11.08-5.22-11.08-7.39,0-4.13,4.56-7.39,10.21-7.39s10.21,3.26,10.21,7.39v3.48h6.95v-3.48c0-7.82-7.61-14.34-17.17-14.34s-17.17,6.3-17.17,14.34c0,8.91,8.69,12.17,16.3,14.13,12.6,2.82,17.82,6.52,17.82,12.82,0,6.95-7.61,12.6-16.95,12.6s-16.95-5.65-16.95-12.6v-3.48h-6.95v3.48c0,10.87,10.65,19.56,23.9,19.56s23.9-8.91,23.9-19.56c0-12.6-11.73-16.95-23.03-19.56Zm187.54,0c-9.78-2.39-11.08-5.22-11.08-7.39,0-4.13,4.56-7.39,10.21-7.39s10.21,3.26,10.21,7.39v3.48h6.95v-3.48c0-7.82-7.61-14.34-17.17-14.34s-17.17,6.3-17.17,14.34c0,8.91,8.69,12.17,16.3,14.13,12.6,2.82,17.82,6.52,17.82,12.82,0,6.95-7.61,12.6-16.95,12.6s-16.95-5.65-16.95-12.6v-3.48h-6.95v3.48c0,10.87,10.65,19.56,23.9,19.56s23.9-8.91,23.9-19.56c0-12.6-11.73-16.95-23.03-19.56Zm-99.53,8.91c0,16.73-13.69,30.42-30.42,30.42s-30.42-13.69-30.42-30.42,13.69-30.42,30.42-30.42,30.42,13.69,30.42,30.42Zm-6.95,0c0-13.04-10.43-23.69-23.47-23.47-12.82,0-23.47,10.65-23.47,23.47s10.43,23.47,23.47,23.47,23.47-10.43,23.47-23.47Zm-121.69-48.68h-6.95v18.25h-13.47v6.95h13.47v37.81c0,7.82,1.09,10.87,5.65,15.43l2.39,2.39,5-5-2.39-2.39c-3.04-3.04-3.69-4.13-3.69-10.43v-37.81h13.47v-6.95h-13.47v-18.25Zm-22.61,48.57v3.38l-53.41-.02c1.63,11.31,11.34,20,23.1,20,7.64,0,14.41-3.69,18.67-9.36l4.95,4.98c-5.56,6.9-14.06,11.33-23.62,11.33-16.74,0-30.31-13.57-30.31-30.31s13.57-30.31,30.31-30.31,30.31,13.57,30.31,30.31Zm-7.22-3.37c-1.64-11.3-11.34-20-23.09-20s-21.46,8.69-23.09,20h46.19Zm196.29-26.95c-9.45,0-17.89,4.31-23.47,11.06v-11.06h-6.95v60.85h6.95v-30.43c0-12.96,10.51-23.47,23.47-23.47s23.47,10.51,23.47,23.47v30.43h6.95v-30.43c0-16.8-13.62-30.42-30.42-30.42Z" style="fill:#fff;"/></g></svg>