<svg id="logo" xmlns="http://www.w3.org/2000/svg" viewBox="0 0 226.77 226.77"><defs><style>.cls-1{fill:#0075bf;}</style></defs><path class="cls-1" d="M89.61,120.08h19.13V72a9.48,9.48,0,0,0-2.83-6.81L77.58,36.84A9.49,9.49,0,0,0,70.76,34H22.68V53.14H75.27A14.34,14.34,0,0,1,89.61,67.48Z"/><path class="cls-1" d="M137.16,120.08H118V72a9.48,9.48,0,0,1,2.83-6.81L149.2,36.84A9.47,9.47,0,0,1,156,34h48.08V53.14H151.5a14.34,14.34,0,0,0-14.34,14.34Z"/><path class="cls-1" d="M22.68,157.91H27.2V162h.1a8,8,0,0,1,6.87-4.7,13.53,13.53,0,0,1,3.2.37V162a7.22,7.22,0,0,0-2.69-.46c-4.34,0-7.18,4.13-7.18,10.75v12H22.68Z"/><path class="cls-1" d="M171,174c0,4-2.52,7-7.32,7-2.21,0-4.89-1.51-4.89-4.32,0-4.69,6.49-5.11,9.12-5.11,1,0,2.06.11,3.09.11Zm-14.13-10.1a12.28,12.28,0,0,1,7.64-2.73c4.84,0,6.49,2.36,6.49,6.9-1.9-.1-3.24-.1-5.15-.1-5,0-12.23,2.06-12.23,8.68,0,5.78,4,8.24,9.65,8.24a9.76,9.76,0,0,0,8.14-4h.11v3.36h4.31v-16.1c0-7.19-3-10.88-10.55-10.88a16.76,16.76,0,0,0-8.66,2.46Z"/><path class="cls-1" d="M53.82,174c0,4-2.52,7-7.32,7-2.21,0-4.89-1.51-4.89-4.32,0-4.69,6.49-5.11,9.12-5.11,1,0,2.06.11,3.09.11ZM39.7,163.9a12.23,12.23,0,0,1,7.63-2.73c4.85,0,6.49,2.36,6.49,6.9-1.9-.1-3.24-.1-5.15-.1-5,0-12.23,2.06-12.23,8.68,0,5.78,4,8.24,9.65,8.24a9.78,9.78,0,0,0,8.15-4h.1v3.36h4.31v-16.1c0-7.19-3-10.88-10.55-10.88a16.76,16.76,0,0,0-8.66,2.46Z"/><path class="cls-1" d="M62.6,157.91h4.68v4.14h.1c1.45-3,5-4.78,8.64-4.78,6.82,0,9.85,4.21,9.85,11.3v15.68H81V170.59c0-6.16-1.35-9.17-5.59-9.42-5.54,0-8,4.45-8,10.89v12.19H62.6Z"/><path class="cls-1" d="M117.43,179.13a13,13,0,0,0,6,1.87c2.21,0,4.94-.94,4.94-3.79,0-4.83-11.39-4.42-11.39-11.84,0-5.49,4.08-8.1,9.28-8.1a19.89,19.89,0,0,1,6,1l-.41,4.21a14.07,14.07,0,0,0-5.11-1.35c-2.48,0-4.64,1-4.64,3.21,0,5.4,11.4,3.85,11.4,12.31,0,5.64-4.5,8.2-9.18,8.2a15.21,15.21,0,0,1-7.23-1.43Z"/><path class="cls-1" d="M152,161.81h-7v14.47c0,3.06,1.86,4.72,4.08,4.72a5.94,5.94,0,0,0,3.3-.94v4.11a15.16,15.16,0,0,1-4.13.72c-5,0-8.08-2.36-8.08-7.63V161.81H134.3v-3.9h5.94v-6.1l4.83-1.54v7.64h7Z"/><path class="cls-1" d="M184.26,171c-.1-4.83,2-9.81,7.22-9.81s7.79,5,7.79,10c0,4.41-2.27,9.87-7.74,9.87C186.32,181,184.16,175.13,184.26,171Zm15.21,13.27h4.62V145.52h-4.82v16h-.1c-1.5-2.42-4.13-4.21-8.72-4.21-7.64,0-11.36,6.23-11.36,13.32,0,7.24,3.36,14.3,11.31,14.3a10.57,10.57,0,0,0,9-4.31h.1Z"/><path class="cls-1" d="M94.33,171c-.11-4.83,2-9.81,7.22-9.81s7.79,5,7.79,10c0,4.41-2.27,9.87-7.74,9.87C96.39,181,94.22,175.13,94.33,171Zm15.21,13.27h4.62V145.52h-4.82v16h-.11c-1.49-2.42-4.12-4.21-8.71-4.21-7.64,0-11.36,6.23-11.36,13.32,0,7.24,3.36,14.3,11.3,14.3a10.58,10.58,0,0,0,9-4.31h.1Z"/></svg>