<?xml version="1.0" encoding="utf-8"?>
<!-- Generator: Adobe Illustrator 25.2.0, SVG Export Plug-In . SVG Version: 6.00 Build 0)  -->
<svg version="1.1" id="Livello_1" xmlns="http://www.w3.org/2000/svg" xmlns:xlink="http://www.w3.org/1999/xlink" x="0px" y="0px"
	 viewBox="0 0 200 77.5" style="enable-background:new 0 0 200 77.5;" xml:space="preserve">
<style type="text/css">
	.st0{display:none;fill:#4273A4;}
	.st1{fill:#4273A4;}
</style>
<rect y="0" class="st0" width="200" height="77.5"/>
<g>
	<g>
		<path class="st1" d="M0,70.3h1l1.7,2.9l1.7-2.9h1l-2.2,3.9v3H2.2v-3L0,70.3z"/>
		<path class="st1" d="M15.9,70.4c0.4,0.2,0.8,0.4,1.2,0.8c0.3,0.3,0.6,0.7,0.8,1.2c0.2,0.4,0.3,0.9,0.3,1.4c0,0.5-0.1,1-0.3,1.4
			c-0.2,0.4-0.4,0.8-0.8,1.2c-0.3,0.3-0.7,0.6-1.2,0.8c-0.4,0.2-0.9,0.3-1.4,0.3s-1-0.1-1.4-0.3c-0.4-0.2-0.8-0.4-1.2-0.8
			c-0.3-0.3-0.6-0.7-0.8-1.2c-0.2-0.4-0.3-0.9-0.3-1.4c0-0.5,0.1-0.9,0.3-1.4c0.2-0.4,0.4-0.8,0.8-1.2c0.3-0.3,0.7-0.6,1.2-0.8
			c0.4-0.2,0.9-0.3,1.4-0.3C15,70.2,15.5,70.3,15.9,70.4z M15.6,76.3c0.3-0.1,0.6-0.3,0.9-0.6c0.3-0.3,0.5-0.6,0.6-0.9
			c0.1-0.3,0.2-0.7,0.2-1.1c0-0.4-0.1-0.7-0.2-1.1c-0.1-0.3-0.3-0.6-0.6-0.9c-0.2-0.3-0.5-0.5-0.9-0.6S14.9,71,14.5,71
			s-0.8,0.1-1.1,0.2c-0.3,0.1-0.6,0.3-0.9,0.6c-0.2,0.3-0.4,0.6-0.6,0.9c-0.1,0.3-0.2,0.7-0.2,1.1c0,0.4,0.1,0.7,0.2,1.1
			c0.1,0.3,0.3,0.6,0.6,0.9c0.3,0.3,0.6,0.5,0.9,0.6c0.3,0.1,0.7,0.2,1.1,0.2S15.3,76.5,15.6,76.3z"/>
		<path class="st1" d="M25.2,70.3v4.1c0,0.3,0,0.6,0.1,0.8c0.1,0.3,0.1,0.5,0.3,0.7c0.1,0.2,0.3,0.4,0.5,0.5
			c0.2,0.1,0.5,0.2,0.8,0.2c0.3,0,0.6-0.1,0.8-0.2c0.2-0.1,0.4-0.3,0.5-0.5c0.1-0.2,0.2-0.4,0.3-0.7c0.1-0.3,0.1-0.5,0.1-0.8v-4.1
			h0.9v4.4c0,0.4-0.1,0.7-0.2,1.1c-0.1,0.3-0.3,0.6-0.5,0.9c-0.2,0.2-0.5,0.4-0.8,0.6c-0.3,0.1-0.7,0.2-1.1,0.2s-0.7-0.1-1-0.2
			c-0.3-0.1-0.6-0.3-0.8-0.6c-0.2-0.2-0.4-0.5-0.5-0.9c-0.1-0.3-0.2-0.7-0.2-1.1v-4.4H25.2z"/>
		<path class="st1" d="M40.3,77.2h-1l-2-2.9h-0.4v2.9H36v-6.9h1c0.4,0,0.7,0,1,0.1c0.3,0,0.5,0.1,0.8,0.3c0.3,0.2,0.5,0.4,0.7,0.7
			c0.2,0.3,0.2,0.6,0.2,0.9c0,0.5-0.2,0.9-0.5,1.3s-0.7,0.6-1.2,0.6L40.3,77.2z M36.9,73.6h0.3c0.3,0,0.5,0,0.7-0.1
			c0.2,0,0.4-0.1,0.6-0.2c0.2-0.1,0.3-0.2,0.4-0.4c0.1-0.2,0.2-0.4,0.2-0.6c0-0.3-0.1-0.5-0.2-0.6c-0.1-0.2-0.3-0.3-0.4-0.4
			c-0.2-0.1-0.4-0.1-0.6-0.2c-0.2,0-0.4,0-0.7,0h-0.2V73.6z"/>
		<path class="st1" d="M54.5,70.3h1.4c0.5,0,1,0.1,1.5,0.2c0.5,0.1,0.9,0.4,1.2,0.6c0.4,0.3,0.6,0.6,0.8,1.1
			c0.2,0.4,0.3,0.9,0.3,1.5c0,0.6-0.1,1.1-0.3,1.5c-0.2,0.4-0.5,0.8-0.8,1.1c-0.4,0.3-0.8,0.5-1.2,0.7c-0.5,0.1-1,0.2-1.5,0.2h-1.4
			V70.3z M55.4,76.4h0.3c0.5,0,0.9,0,1.3-0.1c0.4-0.1,0.7-0.2,1-0.5c0.3-0.2,0.5-0.5,0.7-0.8c0.2-0.3,0.3-0.8,0.3-1.2
			c0-0.5-0.1-0.9-0.3-1.2c-0.2-0.3-0.4-0.6-0.7-0.8c-0.3-0.2-0.6-0.4-1-0.4c-0.4-0.1-0.8-0.1-1.3-0.1h-0.3V76.4z"/>
		<path class="st1" d="M67,77.2h-0.9v-6.9H67V77.2z"/>
		<path class="st1" d="M80,73.7V74c0,0.5-0.1,0.9-0.2,1.3c-0.2,0.4-0.4,0.8-0.7,1.1c-0.3,0.3-0.6,0.5-1,0.7
			c-0.4,0.2-0.8,0.3-1.3,0.3c-0.5,0-0.9-0.1-1.3-0.3c-0.4-0.2-0.8-0.4-1.1-0.8s-0.6-0.7-0.7-1.2c-0.2-0.4-0.3-0.9-0.3-1.4
			c0-0.5,0.1-0.9,0.3-1.4s0.4-0.8,0.8-1.2c0.3-0.3,0.7-0.6,1.1-0.8c0.4-0.2,0.9-0.3,1.4-0.3c0.5,0,1.1,0.1,1.6,0.4
			c0.5,0.2,0.9,0.6,1.2,1L79,72.1c-0.2-0.3-0.6-0.6-1-0.8s-0.8-0.3-1.2-0.3c-0.4,0-0.7,0.1-1.1,0.2c-0.3,0.1-0.6,0.3-0.9,0.6
			c-0.2,0.3-0.4,0.6-0.6,0.9c-0.1,0.3-0.2,0.7-0.2,1.1c0,0.4,0.1,0.7,0.2,1c0.1,0.3,0.3,0.6,0.6,0.9c0.2,0.3,0.5,0.5,0.9,0.6
			c0.3,0.2,0.7,0.2,1,0.2c0.3,0,0.5-0.1,0.8-0.2c0.3-0.1,0.5-0.3,0.7-0.4c0.2-0.2,0.4-0.4,0.5-0.7C79,75,79,74.8,79,74.5h-1.8v-0.8
			H80z"/>
		<path class="st1" d="M87.1,77.2h-0.9v-6.9h0.9V77.2z"/>
		<path class="st1" d="M95.8,77.2h-0.9v-6.1h-1.6v-0.8h4.1v0.8h-1.6V77.2z"/>
		<path class="st1" d="M103.8,75.5l-0.8,1.7h-0.9l3.3-7.2l3.3,7.2h-0.9l-0.8-1.7H103.8z M105.4,71.9l-1.2,2.8h2.4L105.4,71.9z"/>
		<path class="st1" d="M115.6,76.4h2.1v0.8h-2.9v-6.9h0.9V76.4z"/>
		<path class="st1" d="M132.7,77.2h-0.9v-6.9h1c0.5,0,1,0,1.3,0.1c0.4,0.1,0.6,0.2,0.9,0.4c0.2,0.2,0.4,0.4,0.5,0.6
			c0.1,0.2,0.1,0.5,0.1,0.9c0,0.4-0.1,0.7-0.2,0.9c-0.1,0.3-0.3,0.5-0.5,0.6c-0.2,0.2-0.5,0.3-0.8,0.4c-0.3,0.1-0.6,0.1-0.9,0.1
			h-0.5V77.2z M132.7,73.5h0.3c0.3,0,0.5,0,0.7-0.1c0.2,0,0.4-0.1,0.6-0.2c0.2-0.1,0.3-0.2,0.4-0.4c0.1-0.2,0.2-0.4,0.2-0.6
			c0-0.3-0.1-0.5-0.2-0.6c-0.1-0.2-0.3-0.3-0.4-0.4s-0.4-0.1-0.6-0.2c-0.2,0-0.4,0-0.7,0h-0.2V73.5z"/>
		<path class="st1" d="M142,75.5l-0.8,1.7h-0.9l3.3-7.2l3.3,7.2H146l-0.8-1.7H142z M143.6,71.9l-1.2,2.8h2.4L143.6,71.9z"/>
		<path class="st1" d="M157.2,77.2h-1l-2-2.9h-0.4v2.9H153v-6.9h1c0.4,0,0.7,0,1,0.1c0.3,0,0.5,0.1,0.8,0.3c0.3,0.2,0.5,0.4,0.7,0.7
			c0.2,0.3,0.2,0.6,0.2,0.9c0,0.5-0.2,0.9-0.5,1.3s-0.7,0.6-1.2,0.6L157.2,77.2z M153.8,73.6h0.3c0.3,0,0.5,0,0.7-0.1
			c0.2,0,0.4-0.1,0.6-0.2c0.2-0.1,0.3-0.2,0.4-0.4c0.1-0.2,0.2-0.4,0.2-0.6c0-0.3-0.1-0.5-0.2-0.6c-0.1-0.2-0.3-0.3-0.4-0.4
			c-0.2-0.1-0.4-0.1-0.6-0.2c-0.2,0-0.4,0-0.7,0h-0.2V73.6z"/>
		<path class="st1" d="M165.1,77.2h-0.9v-6.1h-1.6v-0.8h4.1v0.8h-1.6V77.2z"/>
		<path class="st1" d="M172.8,70l5.2,5.4v-5.1h0.9v7.2l-5.2-5.4v5.1h-0.9V70z"/>
		<path class="st1" d="M185.5,70.3h3.7v0.8h-2.8V73h2.8v0.8h-2.8v2.6h2.8v0.8h-3.7V70.3z"/>
		<path class="st1" d="M200,77.2h-1l-2-2.9h-0.4v2.9h-0.9v-6.9h1c0.4,0,0.7,0,1,0.1c0.3,0,0.5,0.1,0.8,0.3c0.3,0.2,0.5,0.4,0.7,0.7
			c0.2,0.3,0.2,0.6,0.2,0.9c0,0.5-0.2,0.9-0.5,1.3c-0.3,0.4-0.7,0.6-1.2,0.6L200,77.2z M196.6,73.6h0.3c0.3,0,0.5,0,0.7-0.1
			c0.2,0,0.4-0.1,0.6-0.2c0.2-0.1,0.3-0.2,0.4-0.4c0.1-0.2,0.2-0.4,0.2-0.6c0-0.3-0.1-0.5-0.2-0.6c-0.1-0.2-0.3-0.3-0.4-0.4
			c-0.2-0.1-0.4-0.1-0.6-0.2c-0.2,0-0.4,0-0.7,0h-0.2V73.6z"/>
	</g>
	<g>
		<path class="st1" d="M41.1,0C26.6,0,14.8,11.8,14.8,26.3c5.1,0,9.8,1.5,13.9,4c-0.4-1.3-0.6-2.6-0.6-4c0-7.2,5.8-13,13-13
			c7.2,0,13,5.8,13,13s-5.8,13-13,13c-1.4,0-2.7-0.2-4-0.6c2.5,4,4,8.8,4,13.9c14.5,0,26.3-11.8,26.3-26.3S55.6,0,41.1,0"/>
		<path class="st1" d="M89.4,8.6v4.9c-1.5-1.1-2.9-1.6-4.1-1.6c-1.3,0-2.4,0.5-3.2,1.4c-0.8,0.9-1.3,2.1-1.3,3.5
			c0,1.3,0.3,2.4,0.9,3.4c0.3,0.5,0.8,1.1,1.5,1.9c0.7,0.8,1.6,1.7,2.7,2.9c2,2.1,3.4,3.9,4.2,5.4c0.7,1.5,1.1,3.3,1.1,5.4
			c0,2.9-0.8,5.3-2.4,7.1c-1.6,1.8-3.7,2.7-6.3,2.7c-2.1,0-4-0.6-5.5-1.8v-5c1.8,1.3,3.4,2,4.9,2c1.4,0,2.4-0.5,3.2-1.4
			c0.8-0.9,1.2-2.1,1.2-3.7c0-1.4-0.3-2.6-0.9-3.6c-0.3-0.5-0.7-1.1-1.3-1.8c-0.5-0.7-1.2-1.4-2.1-2.2c-1.3-1.3-2.3-2.4-3.2-3.3
			c-0.8-1-1.5-1.8-1.9-2.5c-0.8-1.4-1.2-3.2-1.2-5.4c0-2.9,0.8-5.2,2.3-6.9c1.5-1.7,3.6-2.6,6.2-2.6C86.1,7.3,87.8,7.8,89.4,8.6"/>
		<path class="st1" d="M95.4,7.6h4.9v26.3c0,2.7,0.2,4.5,0.7,5.4c0.5,0.9,1.5,1.3,2.9,1.3c1.5,0,2.4-0.4,2.9-1.2
			c0.5-0.8,0.7-2.4,0.7-4.8V7.6h4.9v27.1c0,4.1-0.6,6.8-1.9,8.2c-1.5,1.6-3.7,2.4-6.8,2.4c-3.3,0-5.7-1-7.1-3.1
			c-0.9-1.4-1.4-4.2-1.4-8.3V7.6z"/>
		<path class="st1" d="M118.3,7.6h6.6c2.7,0,4.8,0.7,6.1,2c1.7,1.7,2.5,4.3,2.5,7.8c0,2.7-0.4,4.8-1.3,6.4c-0.9,1.6-2.2,2.6-3.8,3
			l6.9,18.1h-5.1l-6.8-18.3v18.3h-5V7.6z M123.4,24.1c1.9,0,3.3-0.5,4.1-1.4c0.8-0.9,1.2-2.4,1.2-4.6c0-1.2-0.1-2.2-0.3-3
			c-0.2-0.8-0.4-1.5-0.8-2c-0.4-0.5-0.8-0.9-1.4-1.1c-0.6-0.2-1.3-0.4-2-0.4h-0.8V24.1z"/>
		<polygon class="st1" points="139.2,7.6 152.5,7.6 152.5,11.8 144.2,11.8 144.2,23.6 151.6,23.6 151.6,27.9 144.2,27.9 144.2,40.6 
			152.5,40.6 152.5,44.8 139.2,44.8 		"/>
		<path class="st1" d="M157.1,7.6h6.2c1.9,0,3.5,0.2,4.8,0.6c1.2,0.4,2.3,1.1,3.2,2.1c1.4,1.5,2.4,3.6,3,6c0.6,2.4,0.9,5.8,0.9,10.3
			c0,4.1-0.3,7.5-1,10c-0.6,2.5-1.7,4.4-3.2,5.7c-1.8,1.6-5.1,2.4-9.8,2.4h-4.1V7.6z M162.2,40.4c3.1,0,5.1-0.9,6.1-2.8
			c1.1-1.8,1.6-5.5,1.6-10.8c0-5.7-0.5-9.7-1.5-11.9c-1-2.2-2.9-3.2-5.6-3.2h-0.6V40.4z"/>
		<rect x="180.2" y="7.6" class="st1" width="5" height="37.3"/>
	</g>
</g>
</svg>
