<svg width="142" height="113" viewBox="0 0 142 113" fill="none" xmlns="http://www.w3.org/2000/svg">
    <path
        d="M140.9 48C140.4 46.4 139.6 44.9 138.7 43.5C137.5 41.6 135.1 40.6 133.1 39.7C132.1 39.2 131.1 38.9 130.1 38.6C129.5 38.4 129.1 39.2 129.5 39.6C132.1 42.5 135.3 44.9 136.6 48.7C137.4 51.2 137 53.7 135.7 55.9C133.2 60 128.4 62.8 123.7 65C124.2 58.2 123.5 51.3 122 44.6C120.1 36.3 116.7 28.2 111.8 21.2C111.8 20.9 111.7 20.5 111.7 20.2C111.6 19.7 111 19.5 110.7 19.7C106.6 14.3 101.5 9.59998 95.5 6.09998C81 -2.10002 61.8 -1.80002 47 5.49998C33.1 12.3 25.4 26.4 20.8 40.5C18.5 47.7 16.5 55.1 15.9 62.6C15.8 64.4 15.7 66.3 15.8 68.2C14.1 67.4 12.5 66.4 11 65.3C6.50004 62 2.80004 57.1 2.20004 51.6C2.00004 49.3 2.50004 47 3.90004 45C5.70004 42.4 9.10004 41.2 12.2 40.6C12.5 40.5 12.5 40 12.1 40.1C5.30004 40.5 0.200041 44.3 4.1455e-05 51C-0.199959 57.6 3.70004 64.2 8.40004 68.8C10.9 71.3 13.8 73.2 16.9 74.8C17.7 77.2 18.9 79.4 20.7 81.3C21.4 82 22.3 82.6 23.2 83.2C23.3 83.3 23.4 83.1 23.3 83C20.7 81 19.1 78.4 18.1 75.5C19.4 76.1 20.7 76.6 22 77.1C23.5 81.1 25.5 85 27.9 88.6C35.2 99.3 46.3 106.5 58.6 109.6C58.6 109.6 58.6 109.6 58.7 109.6C62.2 110.5 65.8 111.1 69.4 111.3C71.9 111.5 74.4 111.4 76.8 111.2C76.8 111.3 76.8 111.4 76.8 111.5C76.9 112.5 78.3 112.6 78.5 111.7C79.4 111.9 80.3 112.1 81.2 112.1C81.9 112.1 82.1 111 81.4 110.8C81.3 110.8 81.1 110.7 81 110.7C83 110.4 84.9 110 86.9 109.4C87 109.5 87.2 109.6 87.4 109.5C87.7 109.3 88.1 109.2 88.4 109C98 106 106.7 100.4 113.1 92.4C118.4 85.8 121.5 78.2 122.8 70.3C123.7 69.9 124.6 69.5 125.4 69.1C131.1 66.3 137.4 62.5 140.1 56.7C141.6 53.9 141.8 50.9 140.9 48ZM121.7 65.9C121.5 66 121.3 66.1 121.1 66.1C121.1 66 121.1 65.9 121.1 65.9C121.2 65.3 121.2 64.6 121.1 64C121 63.1 119.8 63.1 119.7 64C119.6 65 119.4 66 119.1 67C117.6 67.6 116 68.2 114.5 68.8C114.6 67.4 114.7 66 114.8 64.6C115 61.9 115 59.3 115 56.7C117.2 54.9 119.2 52.8 120.4 50.2C120.5 49.9 120.7 49.6 120.8 49.3C121.2 51.6 121.5 53.8 121.6 56.1C121.9 59.3 121.9 62.7 121.7 65.9ZM82.8 108.4C84.6 105.7 85.9 102.8 86.9 99.7C89.6 99.2 92.2 98.7 94.8 98C96.1 97.7 97.3 97.3 98.5 96.9C97.9 98.1 97.2 99.1 96.3 100.1C95 101.6 93.3 102.8 91.7 104C91.5 104.2 91.6 104.7 91.9 104.6C90.9 105.3 89.9 105.9 89 106.7C87 107.5 84.9 108 82.8 108.4ZM78.4 109.1C78.1 106.4 77.8 103.6 77.5 100.9C80 100.7 82.5 100.5 84.9 100.1C83.9 103.2 82.5 106.1 80.6 108.7C80.6 108.7 80.6 108.8 80.5 108.8C79.9 108.9 79.1 109 78.4 109.1ZM43.5 99.3C42.7 98.5 41.9 97.7 41.2 96.8C42.2 97.1 43.2 97.4 44.1 97.6C44.9 99.1 45.8 100.6 46.8 102C45.6 101.2 44.5 100.3 43.5 99.3ZM39.7 94.6C37.5 91.2 35.9 87.4 34.1 83.8C33.9 83.3 33.6 82.8 33.4 82.3C34.6 82.7 35.8 83 37 83.4C38 83.7 39 83.9 40 84.1C40.6 87.1 41.3 90 42.3 92.9C42.6 93.7 42.9 94.6 43.3 95.5C42 95.2 40.8 94.9 39.7 94.6ZM32.3 79.7C34.2 80 36 80.3 37.9 80.5C38.4 80.6 38.8 80.6 39.3 80.6C39.4 81.3 39.5 81.9 39.6 82.6C39.1 82.5 38.6 82.4 38.1 82.3C36.3 81.9 34.4 81.4 32.7 80.7C32.6 80.3 32.4 80 32.3 79.7ZM30.8 79.9C30.1 79.6 29.3 79.2 28.6 78.9C29.3 79.1 29.9 79.2 30.6 79.3C30.7 79.5 30.7 79.7 30.8 79.9ZM38.8 23.9C39.9 24.8 41.2 25.5 42.5 26.1C40.5 31.5 39.3 37.2 38.6 42.9C36.4 42.4 34.1 41.7 32 40.7C33.5 34.9 35.9 29.2 38.8 23.9ZM30.6 40.2C28.1 38.8 26 36.9 25 34.4C27.4 28.6 30.5 23.1 34.3 18.4C35 20.2 36.2 21.7 37.6 23C34.6 28.3 32.2 34.1 30.6 40.2ZM112.7 69.5C110.1 70.4 107.4 71.2 104.7 71.9C104.7 71.4 104.7 70.9 104.7 70.3C104.7 67.7 104.5 65 104.3 62.4C107.5 61.2 110.6 59.7 113.4 57.8C113.4 61.3 113.1 64.8 112.9 68.2C112.8 68.7 112.7 69.1 112.7 69.5ZM99.6 94.5C97.8 95.1 96 95.6 94.2 96.1C92 96.7 89.7 97.2 87.5 97.6C88.6 93.8 89.3 89.8 89.7 86C89.8 85.6 89.8 85.2 89.8 84.8C94.1 84.1 98.3 83.1 102.3 81.7C101.9 86 101.1 90.2 99.6 94.2C99.7 94.3 99.7 94.4 99.6 94.5ZM40 69.4C39.9 67.3 39.8 65.2 39.7 63.1C43.2 64.3 46.7 65.4 50.3 66.3C52 66.7 53.7 67.1 55.4 67.4C55.9 70.1 56.4 72.7 57 75.3C51.4 74.8 45.9 74.2 40.3 73.6C40.2 72.2 40.1 70.8 40 69.4ZM40.1 44.7C44.4 45.7 48.9 46.2 53.4 46.4C53.5 52.6 54.1 58.9 55.1 65.2C51.8 64.6 48.5 63.8 45.3 62.8C44.6 62.6 42.4 61.9 39.7 61C39.5 55.6 39.6 50.1 40.1 44.7ZM58.5 4.89998C60.8 3.99998 63.3 3.39998 65.8 3.09998C63.3 5.49998 61.3 8.29998 59.6 11.3C59 11.1 58.4 10.9 57.8 10.7C56.5 10.3 55.3 9.79998 54.1 9.29998C55.5 7.69998 56.9 6.29998 58.5 4.89998ZM86 9.79998C87.7 11.4 89.2 13.2 90.6 15.2C91.4 16.4 92.1 17.6 92.8 18.8C91.3 20.5 89.4 21.9 87.5 23.1C86.4 23.8 85.2 24.4 84 24.9C82.7 21.4 81 18 79.1 14.8C80.1 14.5 81 14.2 81.9 13.7C83.5 12.9 84.8 11.6 85.9 10.2C85.8 9.99998 85.9 9.89998 86 9.79998ZM88.4 67C88.5 69.7 88.5 72.4 88.5 75.1C83.9 75.7 79.3 76 74.7 76.1C74.4 73.6 74.1 71.1 73.8 68.6C78.7 68.4 83.5 67.8 88.4 66.9C88.4 66.9 88.4 66.9 88.4 67ZM58.9 75.4C58.3 72.8 57.8 70.2 57.4 67.6C62.3 68.4 67.3 68.7 72.3 68.5C72.6 71 72.9 73.5 73.1 76C70 76 66.9 75.9 63.9 75.7C62.1 75.7 60.5 75.6 58.9 75.4ZM55.3 32.4C55.4 31.6 55.5 30.7 55.6 29.9C57.1 30.1 58.5 30.2 59.9 30.3C62.7 30.5 65.6 30.5 68.6 30.3C68.9 35.1 69.3 39.8 69.7 44.6C64.8 45.1 59.9 45.3 54.9 45.1C54.8 40.9 55 36.6 55.3 32.4ZM68.1 2.99998C68 6.49998 68 9.99998 68 13.5C65.5 13.1 63.1 12.4 60.7 11.6C62.3 8.39998 64.3 5.49998 66.8 2.99998C67.2 2.99998 67.7 2.99998 68.1 2.99998ZM68 14.8C68.1 19.3 68.2 23.9 68.5 28.4C64.3 28.8 60 28.8 55.8 28.3C56.5 23 57.9 17.6 60.1 12.7C62.7 13.6 65.3 14.3 68 14.8ZM70.2 30.2C74.5 29.8 78.8 28.9 82.7 27.4C83.8 31.1 84.6 34.8 85.3 38.5C85.5 39.5 85.6 40.5 85.8 41.5C84.3 41.9 82.8 42.3 81.3 42.6C78 43.4 74.6 44 71.3 44.4C71 39.6 70.6 34.9 70.2 30.2ZM69.8 46C70.1 49.6 70.5 53.2 70.9 56.7C71.2 60 71.6 63.3 72 66.6C67 66.7 61.9 66.3 57 65.5C56 59.2 55.3 52.8 55 46.5C60 46.8 64.9 46.6 69.8 46ZM76.4 66.5C75.5 66.6 74.5 66.6 73.6 66.7C73.2 63.4 72.9 60.1 72.5 56.9C72.1 53.3 71.8 49.6 71.4 46C76.3 45.4 81.2 44.4 86 43.1C87.2 50.3 87.9 57.7 88.2 65C84.4 65.6 80.4 66.1 76.4 66.5ZM90 58.7C89.5 53.3 88.9 47.8 88.1 42.4C88.4 42.3 88.7 42.2 89 42.1C92.2 41.1 95.8 39.8 99.3 38.1C100.6 44.6 101.4 51.2 102.1 57.8C102.2 58.9 102.3 60 102.4 61.1C99.7 62 97 62.8 94.2 63.5C92.9 63.8 91.7 64.1 90.4 64.4C90.2 62.5 90.1 60.6 90 58.7ZM87.8 40.9C87.1 36.9 86.3 33 85.3 29.1C85.1 28.2 84.8 27.4 84.5 26.6C87.7 25.2 90.7 23.3 93.1 20.8C93.3 20.6 93.4 20.5 93.6 20.3C96.1 25.4 97.7 31 98.9 36.5C95.4 38.4 91.6 39.8 87.8 40.9ZM77.4 15.2C78.8 17.8 80.3 20.4 81.3 23.2C81.6 24 81.8 24.7 82.1 25.5C78.2 26.9 74.1 27.8 70 28.2C69.7 23.8 69.4 19.4 69.1 14.9C69.5 15 70 15 70.4 15.1C72.7 15.4 75 15.4 77.2 15C77.4 15.1 77.4 15.1 77.4 15.2ZM69.1 13.7C68.9 10.2 68.7 6.59998 68.5 3.09998C69.1 3.09998 69.7 3.09998 70.3 3.19998C72.3 5.99998 75.2 11.3 76.6 13.8C74.2 14.2 71.6 14 69.1 13.7ZM57.9 11.9C58.3 12.1 58.6 12.2 59 12.3C56.6 17.1 55.1 22.6 54.3 28.1C53.2 27.9 52 27.7 50.9 27.5C48.7 27 46.5 26.4 44.4 25.6C45.3 23.2 46.4 20.9 47.7 18.6C49.4 15.5 51.3 12.7 53.6 9.99998C55 10.7 56.5 11.3 57.9 11.9ZM43.9 26.9C47.1 28.3 50.6 29.2 54.1 29.7C53.5 34.6 53.3 39.5 53.3 44.2C53.3 44.5 53.3 44.7 53.3 45C50.7 44.9 48.1 44.6 45.5 44.2C43.9 44 42.1 43.7 40.2 43.3C40.8 37.8 42 32.2 43.9 26.9ZM54.7 82.2C56.1 82.4 57.4 82.5 58.8 82.7C59 83.4 59.2 84.2 59.4 84.9C53.3 84.7 47.2 84.1 41.3 83C41.2 82.3 41.1 81.6 41 80.8C45.6 81.2 50.2 81.6 54.7 82.2ZM60.6 82.8C64.8 83.2 69.1 83.4 73.3 83.4C73.5 83.4 73.7 83.4 73.8 83.4C73.9 83.8 73.9 84.3 74 84.7C72.2 84.8 70.5 84.8 68.8 84.9C66.3 84.9 63.8 84.9 61.2 84.9C61 84.2 60.8 83.5 60.6 82.8ZM75.6 83.4C79.9 83.3 84.1 82.9 88.3 82.2C88.3 82.6 88.2 83 88.2 83.5C84.1 84.1 79.9 84.5 75.8 84.8C75.6 84.2 75.6 83.8 75.6 83.4ZM88 85.1C87.7 88.4 87.2 91.7 86.4 95C86.2 96 85.9 97 85.6 98C82.9 98.4 80.1 98.7 77.3 98.9C76.8 94.7 76.4 90.6 75.9 86.4C79.9 86.1 84 85.7 88 85.1ZM102.7 79.5C102.7 79.7 102.7 79.8 102.7 80C98.6 81.4 94.5 82.4 90.2 83.1C90.2 82.7 90.3 82.2 90.3 81.8C94.5 81 98.7 79.8 102.8 78.3C102.7 78.7 102.7 79.1 102.7 79.5ZM90.6 74.8C90.6 72 90.6 69.2 90.5 66.4C92.5 66 94.4 65.5 96.4 65C98.5 64.5 100.5 63.9 102.6 63.1C102.8 66.2 102.9 69.3 103 72.4C98.8 73.4 94.7 74.2 90.6 74.8ZM111.4 39.9C112.8 45 113.3 50.3 113.4 55.6C113.2 55.7 113 55.9 112.8 56C110.1 57.8 107.2 59.2 104.2 60.4C103.9 57.3 103.6 54.3 103.1 51.3C102.5 46.6 101.8 41.9 100.8 37.2C103.8 35.5 106.5 33.5 108.5 31C109.7 34 110.6 37 111.4 39.9ZM109.7 29.3C110.6 27.8 111.3 26.1 111.5 24.3C115.4 30.4 118.1 37.3 119.8 44.4C119.6 46.4 119.5 48.2 118.5 50.1C117.6 51.7 116.4 53.1 115 54.3C114.8 48.5 114.1 42.8 112.4 37.2C111.7 34.6 110.8 31.9 109.7 29.3ZM101.2 35.3C101 35.4 100.7 35.6 100.5 35.7C100 33.3 99.3 30.8 98.6 28.5C97.6 25.3 96.3 22.1 94.7 19.2C96.1 17.4 97.3 15.2 97.2 12.9C97.5 13.2 97.9 13.6 98.2 13.9C102.4 18.2 105.5 23.7 107.9 29.5C106.2 31.8 103.8 33.7 101.2 35.3ZM93.7 17.5C92.3 15.1 90.7 12.8 88.8 10.8C88.1 9.99998 87.4 9.29998 86.7 8.69998C87.1 7.99998 87.4 7.19998 87.6 6.49998C90.8 7.89998 93.7 9.89998 96.3 12.2C95.5 13.9 94.8 15.8 93.7 17.5ZM85.5 7.49998C83.5 5.89998 81.2 4.49998 78.9 3.39998C81 3.99998 83.2 4.59998 85.3 5.29998C85.6 5.39998 86 5.59998 86.3 5.69998C86.2 6.09998 86 6.49998 85.9 6.79998C85.7 7.09998 85.6 7.29998 85.5 7.49998ZM84.8 8.69998C84.7 8.89998 84.5 9.09998 84.4 9.29998C83.4 10.8 82 11.8 80.4 12.6C79.7 12.9 79 13.2 78.3 13.4C77.7 12.3 77 11.2 76.3 9.99998C76 9.39998 73.6 5.09998 71.4 2.59998C71.5 2.39998 71.4 2.09998 71.2 1.89998C71.7 1.89998 72.2 1.89998 72.7 1.89998C77.2 3.39998 81.3 5.59998 84.8 8.69998ZM52.9 8.79998C52.6 8.69998 52.3 8.49998 52 8.39998C53.1 7.59998 54.3 6.89998 55.5 6.19998C54.6 7.09998 53.7 7.89998 52.9 8.79998ZM52.3 9.49998C49.2 13 46.6 16.9 44.5 21.3C43.9 22.5 43.4 23.8 42.9 25.1C41.6 24.5 40.4 23.9 39.3 23.1C39.4 23 39.4 22.9 39.5 22.8C42.5 17.6 46.5 12.7 51.3 9.09998C51.6 9.19998 51.9 9.29998 52.3 9.49998ZM34.1 42.9C35.5 43.4 36.9 43.9 38.3 44.3C38.2 45.5 38.1 46.6 38 47.8C37.7 52 37.7 56.2 37.9 60.4C35.2 59.5 32.3 58.4 29.6 57.4C29.6 57.3 29.6 57.2 29.6 57.1C29.6 52 30.4 46.8 31.6 41.8C32.5 42.2 33.3 42.5 34.1 42.9ZM29.7 60.7C29.7 60.6 29.7 60.6 29.7 60.5C29.7 60 29.7 59.5 29.7 59.1C29.9 59.2 30.1 59.3 30.4 59.4C32.9 60.5 35.5 61.5 38.1 62.5C38.2 65.3 38.4 68 38.5 70.8C38.6 71.7 38.6 72.6 38.7 73.5C37.6 73.4 36.5 73.3 35.5 73.2C33.9 73.1 32.3 72.9 30.7 72.6C29.9 68.7 29.7 64.7 29.7 60.7ZM43.7 92C42.9 89.6 42.2 87 41.7 84.5C47.7 85.7 53.9 86.3 60 86.5C61.3 90.7 62.9 94.9 65 98.8C60.4 98.5 55.8 98 51.3 97.2C49.3 96.9 47.3 96.4 45.3 95.9C44.7 94.7 44.1 93.4 43.7 92ZM66.6 98.4C64.5 94.7 63 90.7 61.7 86.6C64.4 86.7 67.2 86.6 69.9 86.6C71.3 86.6 72.8 86.5 74.2 86.4C74.7 90.6 75.2 94.7 75.6 98.9C74.7 98.9 73.8 99 72.9 99C70.9 99 68.9 99 66.9 98.9C66.9 98.8 66.7 98.6 66.6 98.4ZM72.9 101.1C73.9 101.1 74.9 101 75.8 101C76.1 103.7 76.4 106.4 76.7 109.2C75.4 108.6 74.1 107.8 72.9 106.7C71.1 105.1 69.5 103.2 68.2 101.1C69.8 101.1 71.4 101.1 72.9 101.1ZM100.9 96C101.9 95.6 103 95.2 104 94.7C103.7 95.1 103.3 95.5 102.9 96C101.7 97.3 100.4 98.5 99 99.6C99.7 98.5 100.4 97.3 100.9 96ZM104.1 92.9C103.3 93.2 102.6 93.5 101.8 93.8C102 93.2 102.2 92.6 102.4 92.1C103.5 88.5 104.1 84.8 104.4 81.1C106.7 80.3 109.2 79.2 111.5 77.9C110.5 82.9 108.8 87.8 106 92.1C105.4 92.4 104.8 92.6 104.1 92.9ZM104.5 79.3C104.5 78.8 104.6 78.2 104.6 77.7C105.5 77.3 106.5 77 107.4 76.6C108.9 76 110.4 75.4 112 74.8C111.9 75.1 111.9 75.5 111.8 75.8C109.6 77.2 107.1 78.3 104.5 79.3ZM114 73.9C114.2 73.8 114.4 73.7 114.6 73.7C114.4 73.9 114.2 74.1 114 74.2C114 74.1 114 74 114 73.9ZM100.6 12C104.4 15.1 107.7 18.7 110.5 22.8C110.4 24.6 109.8 26.3 109 27.8C106.6 22.3 103.4 17.1 99.4 12.8C96.4 9.59998 92.8 7.19998 88.8 5.39998C93 6.89998 97 9.09998 100.6 12ZM51.2 5.69998C53.4 4.79998 55.7 4.09998 57.9 3.49998C55.2 4.59998 52.7 5.99998 50.4 7.79998C49.7 7.49998 49 7.29998 48.2 7.09998C48.1 7.09998 48.1 7.19998 48.1 7.19998C48.6 7.59998 49.2 7.89998 49.8 8.19998C45.4 11.7 41.6 16.2 38.6 21.1C38.4 21.4 38.2 21.8 38 22.1C37.5 21.7 37 21.3 36.6 20.8C35.8 20 35.1 19 34.4 18C38.9 12.8 44.3 8.39998 51.2 5.69998ZM23.6 37.9C24 36.9 24.4 35.9 24.8 34.9C25.7 37.7 27.9 39.6 30.4 41.1C30 42.8 29.6 44.6 29.3 46.4C29.3 46.4 29.3 46.4 29.3 46.3C29.3 46.2 29.2 46.2 29.2 46.3C29.2 46.7 29.2 47 29.2 47.4C28.7 50.6 28.5 53.8 28.6 57C24.8 55.5 21.9 54.1 22.2 53.4V53.3C21 53.7 22.4 55 22.9 55.4C24.6 56.7 26.7 57.7 28.7 58.6V58.7C28.6 61 28.5 63.4 28.5 65.7C28.5 67.9 28.7 70.1 29 72.3C26.7 71.9 24.5 71.4 22.3 70.7C21.5 67.6 21.1 64.5 20.8 61.4C20.2 53.6 21.8 45.6 23.6 37.9ZM17 68.8C16.9 66.9 17 64.9 17.1 63.1C17.4 59.5 18.1 55.9 19 52.3C18.4 58.2 18.7 64.2 20 70C19 69.7 18 69.3 17 68.8ZM25.4 79.9C25.1 79.2 24.8 78.5 24.5 77.8C24.9 77.9 25.3 78 25.7 78.1C26.1 78.4 26.4 78.7 26.8 79C28.2 80.1 29.8 80.9 31.4 81.5C31.8 82.5 32.2 83.5 32.7 84.5C34.2 87.6 35.7 90.8 37.4 93.8C36.4 93.5 35.3 93.2 34.3 92.9C30.7 89.2 27.7 84.8 25.4 79.9ZM36 94.9C36.9 95.3 37.7 95.6 38.6 95.9C39.4 97.1 40.3 98.3 41.2 99.4C39.4 98 37.7 96.5 36 94.9ZM57.5 107.3C56.1 106.3 54.4 105.7 52.8 105C51.4 104 50 103 48.8 101.5C47.9 100.5 47.1 99.3 46.4 98.1C47.9 98.5 49.4 98.8 50.9 99.1C56 100.2 61.2 100.8 66.3 101C66.9 102 67.5 102.9 68.2 103.8C69.7 105.8 71.6 107.8 73.8 109.3C68.3 109.5 62.8 108.8 57.5 107.3ZM101.3 100.8C99.6 102 97.8 103 96 103.9C96.9 103.2 97.9 102.5 98.8 101.8C102 99.3 105 96.5 107.3 93.2C109.2 92.3 111.1 91.2 112.7 89.9C109.6 94.2 105.7 97.9 101.3 100.8ZM117.5 82C116.4 84.4 115.1 86.6 113.6 88.7C113.5 88.6 113.4 88.6 113.3 88.6C111.8 89.2 110.4 89.8 109 90.5C111.4 86.2 112.8 81.4 113.6 76.5C115.4 75.3 117.1 73.8 118.4 72.1C119.2 71.8 120.1 71.4 120.9 71.1C120.2 74.9 119.1 78.5 117.5 82Z"
        fill="white" />
</svg>