<svg width="293" height="72" viewBox="0 0 293 72" fill="none" xmlns="http://www.w3.org/2000/svg">
    <path d="M215.404 27.8798C215.851 27.7616 216.287 27.6113 216.722 27.4931C216.946 27.4394 217.169 27.375 217.403 27.3428C217.456 27.332 217.53 27.332 217.584 27.332C217.647 27.332 217.701 27.332 217.764 27.332C217.881 27.3428 217.998 27.3428 218.115 27.3535C218.572 27.3857 219.029 27.418 219.476 27.4072C219.593 27.3965 219.699 27.3965 219.816 27.3857C219.869 27.375 219.922 27.375 219.986 27.3643L220.146 27.332C220.358 27.2891 220.571 27.2247 220.741 27.1065L220.773 27.085H220.805C221.092 27.0636 221.379 27.0099 221.666 26.9454C221.953 26.881 222.24 26.8058 222.516 26.7199C222.793 26.634 223.069 26.5373 223.346 26.4299C223.611 26.3225 223.877 26.1937 224.079 26.0326L224.111 26.0003L224.154 25.9896L225.121 25.7963C225.28 25.7641 225.44 25.7318 225.589 25.6889C225.738 25.6459 225.886 25.5922 226.035 25.5278L226.099 25.5063L226.173 25.5278C226.439 25.6137 226.726 25.6782 227.013 25.7426C227.3 25.807 227.598 25.8607 227.885 25.9252C228.172 25.9896 228.47 26.0648 228.757 26.1614C229.044 26.2581 229.331 26.3762 229.607 26.5266L229.501 26.4944C229.735 26.4944 230.001 26.4299 230.256 26.344C230.511 26.2581 230.766 26.1614 231.011 26.054C231.51 25.8285 231.999 25.5708 232.478 25.3023C232.956 25.0338 233.434 24.7438 233.902 24.4431C234.136 24.2927 234.37 24.1424 234.593 23.992C234.71 23.9169 234.816 23.8309 234.933 23.7558C235.04 23.6806 235.157 23.5947 235.252 23.5195L235.284 23.4873L235.316 23.4765C235.529 23.4014 235.741 23.3369 235.954 23.2832C236.167 23.2295 236.4 23.1973 236.613 23.1651C236.719 23.1436 236.815 23.1329 236.921 23.1114C236.975 23.1007 237.006 23.0899 237.049 23.0792L237.092 23.0577C237.102 23.047 237.123 23.0362 237.134 23.0255C237.251 22.9396 237.336 22.714 237.517 22.5207C237.612 22.4241 237.719 22.3489 237.836 22.3059C237.953 22.2522 238.07 22.22 238.208 22.2093C238.463 22.1878 238.697 22.2522 238.909 22.3274C239.345 22.467 239.728 22.6711 240.121 22.8644C240.313 22.961 240.504 23.0577 240.695 23.1329L240.77 23.1651L240.834 23.1866C240.855 23.1973 240.876 23.1973 240.897 23.1973C240.919 23.1973 240.94 23.208 240.961 23.1973C241.004 23.1973 241.057 23.1973 241.11 23.1866L241.269 23.1651C241.482 23.1329 241.716 23.1221 241.939 23.1329C242.056 23.1436 242.163 23.1543 242.279 23.1866C242.396 23.208 242.503 23.2403 242.609 23.2832C243.034 23.4336 243.406 23.6913 243.747 23.9706C243.832 24.0457 243.917 24.1102 244.002 24.1853L244.236 24.4109C244.395 24.5612 244.533 24.7331 244.682 24.8942L244.64 24.8619C244.671 24.8727 244.703 24.8727 244.725 24.8619C244.746 24.8512 244.756 24.8405 244.788 24.8082C244.81 24.776 244.842 24.7331 244.895 24.6901C244.948 24.6472 245.012 24.6257 245.065 24.6257C245.097 24.6257 245.129 24.6257 245.16 24.6364C245.192 24.6472 245.214 24.6579 245.245 24.6686C245.299 24.6901 245.331 24.7223 245.373 24.7545C245.447 24.819 245.511 24.8834 245.575 24.9371C245.639 24.9908 245.703 25.0445 245.766 25.0445C245.82 25.0553 245.915 25.023 246 25.0123C246.085 24.9908 246.181 24.9693 246.287 24.9693C246.394 24.9693 246.489 25.0123 246.574 25.0553L246.585 25.066L246.596 25.0767C246.67 25.1627 246.702 25.313 246.744 25.3237C246.787 25.356 246.904 25.3345 247.01 25.3345C247.117 25.3345 247.233 25.356 247.34 25.3882C247.446 25.4311 247.552 25.4956 247.627 25.5815C247.669 25.6245 247.691 25.6782 247.723 25.7104C247.754 25.7533 247.776 25.7748 247.808 25.7855C247.871 25.8178 247.978 25.7963 248.095 25.807C248.212 25.8178 248.318 25.85 248.424 25.8929C248.53 25.9466 248.616 26.0003 248.701 26.0755C248.786 26.1507 248.849 26.2473 248.913 26.3333C248.977 26.4299 249.02 26.5158 249.073 26.6125C249.179 26.7951 249.275 26.9776 249.402 27.1387C249.519 27.2998 249.657 27.4502 249.817 27.5791C249.976 27.7079 250.157 27.7939 250.338 27.8905C251.071 28.2879 251.815 28.6852 252.57 29.0396C252.762 29.1256 252.953 29.2115 253.144 29.2759L253.283 29.3189C253.325 29.3296 253.378 29.3403 253.421 29.3511C253.516 29.3618 253.612 29.3618 253.708 29.3618C253.91 29.3511 254.101 29.3081 254.303 29.2652L254.611 29.2007C254.665 29.19 254.718 29.1793 254.771 29.1685C254.803 29.1685 254.824 29.1578 254.867 29.1578C254.888 29.1578 254.898 29.1578 254.92 29.1578C254.941 29.1578 254.962 29.1685 254.984 29.1685H254.994H255.005C255.058 29.2007 255.079 29.2222 255.1 29.233L255.164 29.2867C255.207 29.3189 255.249 29.3511 255.281 29.3726C255.324 29.394 255.356 29.4155 255.387 29.4155C255.398 29.4155 255.419 29.4155 255.43 29.4155C255.441 29.4155 255.462 29.4048 255.494 29.4048C255.589 29.3833 255.696 29.3403 255.813 29.2974C255.93 29.2652 256.047 29.233 256.164 29.2222C256.408 29.19 256.674 29.2222 256.908 29.3189C257.142 29.4155 257.333 29.5444 257.514 29.6303C257.609 29.6733 257.694 29.6948 257.79 29.7055C257.907 29.7162 258.024 29.7377 258.141 29.7592C258.364 29.8022 258.577 29.8559 258.789 29.8666C258.896 29.8773 259.002 29.8773 259.108 29.8773C259.161 29.8773 259.215 29.8773 259.268 29.8666C259.321 29.8666 259.363 29.8558 259.406 29.8451C259.597 29.8022 259.81 29.7162 260.001 29.6411C260.405 29.4692 260.799 29.2544 261.192 29.0396C261.394 28.9322 261.585 28.8248 261.798 28.7175L261.883 28.6745C261.915 28.6638 261.957 28.6423 261.989 28.6315C262.064 28.6101 262.128 28.5993 262.191 28.5886C262.319 28.5778 262.425 28.5671 262.521 28.5564C262.617 28.5456 262.702 28.5241 262.755 28.4919C262.765 28.4812 262.787 28.4704 262.797 28.4597L262.819 28.449L262.84 28.4275C262.872 28.3953 262.904 28.3523 262.946 28.3094C263.084 28.1483 263.223 27.9657 263.35 27.7831L263.765 27.2354C263.839 27.1495 263.903 27.0528 263.977 26.9669C264.052 26.881 264.126 26.7843 264.232 26.6984C264.243 26.6877 264.254 26.6769 264.275 26.6662L264.328 26.6232C264.371 26.591 264.381 26.591 264.413 26.5695L264.562 26.4836C264.668 26.4299 264.775 26.3655 264.892 26.3225C265.019 26.2796 265.157 26.2366 265.317 26.2473C265.391 26.2473 265.476 26.2688 265.551 26.301C265.615 26.3333 265.689 26.3655 265.753 26.4192C265.816 26.4729 265.87 26.5266 265.912 26.5695C265.955 26.6125 265.976 26.634 265.987 26.6447C265.997 26.6555 266.018 26.6555 266.05 26.6662C266.072 26.6662 266.082 26.6662 266.104 26.6769C266.125 26.6769 266.157 26.6769 266.178 26.6769C266.189 26.6769 266.199 26.6769 266.21 26.6769C266.22 26.6769 266.231 26.6769 266.231 26.6769C266.252 26.6769 266.252 26.6769 266.231 26.6769C266.21 26.6769 266.189 26.7092 266.189 26.7092L266.231 26.6447C266.252 26.6125 266.284 26.5695 266.295 26.5481C266.306 26.5373 266.316 26.5266 266.327 26.5051C266.337 26.4836 266.348 26.4621 266.38 26.4192L266.412 26.387C266.422 26.3762 266.433 26.3547 266.454 26.344C266.486 26.3118 266.529 26.2903 266.571 26.2796C266.646 26.2473 266.71 26.2581 266.752 26.2581C266.795 26.2581 266.837 26.2688 266.869 26.2688C266.933 26.2796 267.007 26.301 267.071 26.3225C267.145 26.3547 267.209 26.387 267.273 26.4299L267.326 26.4729C267.326 26.4729 267.315 26.4729 267.315 26.4621C267.294 26.4514 267.273 26.4514 267.252 26.4514C267.241 26.4514 267.23 26.4514 267.23 26.4621H267.22L267.209 26.4729C267.209 26.4729 267.209 26.4729 267.22 26.4407C267.23 26.4192 267.241 26.3547 267.294 26.2903C267.337 26.2259 267.411 26.1829 267.475 26.1614C267.507 26.1507 267.528 26.14 267.56 26.14L267.624 26.1292C267.666 26.1292 267.688 26.1185 267.773 26.1292C267.847 26.14 267.89 26.1614 267.932 26.1829C268.017 26.2259 268.07 26.2796 268.123 26.3225C268.177 26.3655 268.219 26.4192 268.262 26.4621C268.347 26.5588 268.421 26.6447 268.485 26.7306C268.559 26.8165 268.623 26.9025 268.698 26.9776C268.719 26.9991 268.729 27.0099 268.751 27.0313C268.772 27.0421 268.783 27.0636 268.804 27.0743C268.814 27.085 268.836 27.1065 268.846 27.1065C268.857 27.1065 268.857 27.1173 268.868 27.1173C268.868 27.1173 268.868 27.1173 268.878 27.1173C268.878 27.1173 268.878 27.1173 268.889 27.1173L268.931 27.128L269.016 27.1495L269.187 27.2032C269.293 27.2354 269.41 27.2784 269.516 27.3106C269.729 27.3857 269.941 27.4609 270.154 27.5361L270.792 27.7616C270.813 27.7724 270.845 27.7831 270.877 27.7938L270.973 27.8368C271.036 27.8583 271.089 27.9012 271.153 27.9335C271.27 28.0194 271.387 28.116 271.462 28.2234C271.547 28.3416 271.61 28.4597 271.653 28.5564C271.695 28.6638 271.749 28.7282 271.77 28.7389C271.791 28.7497 271.834 28.7712 271.919 28.7604C272.004 28.7604 272.121 28.7389 272.195 28.7175C272.238 28.7067 272.27 28.696 272.301 28.6852C272.333 28.6745 272.344 28.6638 272.408 28.6101C272.45 28.5778 272.503 28.5456 272.567 28.5349C272.631 28.5134 272.684 28.5134 272.727 28.5134C272.748 28.5134 272.769 28.5134 272.79 28.5134L272.844 28.5241C272.865 28.5241 272.886 28.5349 272.907 28.5349C272.992 28.5456 273.077 28.5349 273.184 28.5134L273.354 28.4812C273.386 28.4812 273.418 28.4704 273.46 28.4704C273.481 28.4704 273.492 28.4704 273.513 28.4704H273.545C273.556 28.4704 273.577 28.4704 273.588 28.4704C273.62 28.4704 273.652 28.4812 273.683 28.4919C273.715 28.5027 273.747 28.5134 273.779 28.5349C273.811 28.5564 273.832 28.5778 273.864 28.5993C273.885 28.6208 273.907 28.6423 273.917 28.6638C273.97 28.7497 274.002 28.8034 274.024 28.8356C274.045 28.8678 274.056 28.8893 274.066 28.9C274.077 28.9 274.077 28.9108 274.087 28.9108C274.087 28.9108 274.119 28.9215 274.141 28.9322C274.343 29.0074 274.566 29.0933 274.789 29.19C275.002 29.2974 275.214 29.4155 275.406 29.5551C275.608 29.7055 275.778 29.8773 275.937 30.0599C276.097 30.2317 276.235 30.4143 276.384 30.5969L276.586 30.8654C276.65 30.9513 276.713 31.0265 276.788 31.1016C277.096 31.4238 277.415 31.746 277.734 32.0467C278.053 32.3474 278.393 32.6481 278.744 32.9059C278.829 32.9596 278.914 33.024 278.999 33.067C279.041 33.0992 279.073 33.0992 279.105 33.1099C279.148 33.1207 279.212 33.1314 279.265 33.1422L279.924 33.2818L282.56 33.851L283.879 34.1302C284.314 34.2269 284.761 34.3128 285.197 34.388C285.42 34.4202 285.633 34.4524 285.856 34.4739C285.962 34.4846 286.079 34.4954 286.175 34.4954C286.207 34.4954 286.228 34.4954 286.26 34.4954L286.356 34.5061L286.451 34.5168C286.483 34.5168 286.504 34.5276 286.536 34.5276C286.993 34.6135 287.429 34.7316 287.865 34.8498C288.737 35.086 289.598 35.3653 290.449 35.6445C291.31 35.9237 292.16 36.2029 293 36.5359L292.979 36.5788C292.554 36.4285 292.118 36.3103 291.692 36.1707C291.257 36.0419 290.831 35.913 290.395 35.7948C289.534 35.5478 288.663 35.3116 287.791 35.0968C287.355 34.9894 286.919 34.882 286.483 34.8175C286.451 34.8175 286.43 34.8068 286.398 34.8068H286.324H286.249C286.228 34.8068 286.196 34.8068 286.164 34.8068C286.047 34.8068 285.93 34.8068 285.813 34.7961C285.58 34.7853 285.356 34.7531 285.133 34.7209C284.687 34.6564 284.24 34.5813 283.794 34.4954L283.134 34.3772L282.475 34.2483L279.828 33.7221L279.169 33.5932C279.116 33.5825 279.063 33.5717 278.999 33.561C278.925 33.5395 278.85 33.518 278.797 33.4858C278.68 33.4321 278.574 33.357 278.478 33.2925C278.095 33.024 277.745 32.7233 277.404 32.4119C277.064 32.1004 276.735 31.789 276.416 31.456C276.341 31.3809 276.246 31.2735 276.182 31.1768L275.969 30.9083C275.831 30.7365 275.693 30.5647 275.544 30.4036C275.395 30.2425 275.246 30.0921 275.087 29.974C274.917 29.8559 274.736 29.7485 274.545 29.6518C274.353 29.5551 274.151 29.4907 273.939 29.4155C273.907 29.4048 273.885 29.394 273.843 29.3726C273.8 29.3511 273.758 29.3189 273.715 29.2974C273.641 29.233 273.588 29.1578 273.556 29.0933C273.524 29.0289 273.492 28.9859 273.492 28.9752C273.492 28.9859 273.503 28.9859 273.503 28.9859C273.513 28.9859 273.513 28.9967 273.524 28.9967C273.535 28.9967 273.535 28.9967 273.535 28.9967C273.439 28.9859 273.141 29.0933 272.865 29.0611C272.833 29.0611 272.801 29.0504 272.759 29.0504H272.727C272.716 29.0504 272.705 29.0504 272.705 29.0504C272.695 29.0504 272.695 29.0504 272.695 29.0504C272.705 29.0504 272.716 29.0396 272.705 29.0504C272.684 29.0719 272.599 29.1363 272.525 29.1685C272.45 29.2115 272.376 29.233 272.312 29.2437L272.216 29.2652L272.121 29.2759C272.089 29.2759 272.057 29.2867 272.025 29.2867C271.993 29.2867 271.961 29.2974 271.929 29.2974H271.812C271.77 29.2974 271.727 29.2867 271.685 29.2759C271.6 29.2544 271.504 29.2115 271.43 29.1578C271.387 29.1256 271.366 29.0933 271.334 29.0611C271.302 29.0289 271.291 28.9967 271.26 28.9645C271.238 28.9322 271.228 28.9 271.206 28.8678L271.164 28.7819C271.111 28.6745 271.068 28.5993 271.026 28.5349C270.983 28.4597 270.919 28.4167 270.845 28.363C270.802 28.3416 270.771 28.3201 270.728 28.2986L270.664 28.2771C270.643 28.2664 270.622 28.2557 270.59 28.2449L269.952 28.0194L269.314 27.7938C269.208 27.7616 269.101 27.7187 268.995 27.6865L268.836 27.6435L268.761 27.622L268.729 27.6113C268.729 27.6113 268.719 27.6113 268.698 27.6005L268.655 27.5898C268.634 27.5791 268.602 27.5683 268.581 27.5576L268.527 27.5254C268.485 27.5039 268.464 27.4824 268.432 27.4502C268.4 27.4287 268.379 27.4072 268.357 27.375C268.336 27.3535 268.315 27.332 268.294 27.2998C268.208 27.2032 268.134 27.1173 268.06 27.0206C267.985 26.9347 267.921 26.8488 267.858 26.7628C267.826 26.7199 267.794 26.6877 267.762 26.6555C267.73 26.6232 267.698 26.6018 267.688 26.591H267.677C267.677 26.591 267.677 26.591 267.688 26.591C267.709 26.591 267.677 26.591 267.666 26.591C267.656 26.591 267.656 26.591 267.645 26.591C267.645 26.591 267.677 26.5803 267.688 26.5588C267.698 26.5373 267.698 26.5373 267.688 26.5695C267.677 26.591 267.666 26.6447 267.634 26.6984C267.603 26.7521 267.56 26.8058 267.507 26.838C267.486 26.8595 267.464 26.8702 267.432 26.881C267.411 26.8917 267.401 26.8917 267.379 26.9025C267.358 26.9132 267.337 26.9132 267.315 26.9132C267.262 26.9239 267.209 26.9132 267.167 26.9025C267.145 26.8917 267.135 26.8917 267.113 26.881C267.103 26.8702 267.092 26.8702 267.071 26.8595C267.028 26.838 267.007 26.8165 266.997 26.8058C266.965 26.7843 266.933 26.7629 266.901 26.7521C266.869 26.7414 266.826 26.7306 266.784 26.7199C266.763 26.7199 266.741 26.7092 266.731 26.7092C266.72 26.7092 266.72 26.7092 266.752 26.6984C266.763 26.6984 266.784 26.6877 266.795 26.6769L266.805 26.6662C266.805 26.6662 266.784 26.6984 266.763 26.7306C266.741 26.7628 266.72 26.7951 266.699 26.8273C266.678 26.8488 266.678 26.8488 266.667 26.8702C266.656 26.881 266.646 26.9025 266.614 26.9454C266.593 26.9884 266.518 27.0636 266.454 27.085C266.391 27.1173 266.337 27.1173 266.295 27.128C266.274 27.128 266.252 27.128 266.231 27.128C266.21 27.128 266.199 27.128 266.178 27.128C266.146 27.128 266.114 27.128 266.082 27.128C266.05 27.128 266.008 27.1173 265.976 27.1173C265.902 27.1065 265.806 27.0743 265.731 27.0206C265.646 26.9669 265.593 26.9025 265.561 26.8595C265.529 26.8165 265.508 26.7951 265.476 26.7736C265.455 26.7521 265.423 26.7414 265.381 26.7199C265.349 26.7092 265.327 26.6984 265.285 26.6984C265.221 26.6877 265.136 26.7092 265.051 26.7414C264.966 26.7736 264.87 26.8165 264.785 26.8702C264.7 26.9239 264.562 26.9884 264.541 27.0206C264.477 27.0743 264.403 27.1602 264.328 27.2461C264.254 27.332 264.19 27.418 264.116 27.5039L263.701 28.0409C263.563 28.2234 263.425 28.406 263.276 28.5778C263.233 28.6208 263.201 28.6638 263.148 28.7175L263.116 28.7497L263.074 28.7926C263.042 28.8249 263.01 28.8356 262.978 28.8571C262.84 28.9322 262.702 28.9645 262.574 28.9752C262.446 28.9859 262.33 28.9859 262.234 28.9967C262.181 28.9967 262.138 29.0074 262.106 29.0182C262.085 29.0182 262.074 29.0289 262.053 29.0396L261.979 29.0719C261.787 29.1685 261.585 29.2759 261.383 29.3726C260.979 29.5766 260.575 29.7914 260.15 29.9632C259.938 30.0492 259.725 30.1351 259.47 30.1888C259.332 30.2103 259.215 30.221 259.098 30.221C258.981 30.221 258.864 30.221 258.736 30.1995C258.502 30.178 258.268 30.1136 258.056 30.0706C257.95 30.0492 257.843 30.0277 257.737 30.0169C257.609 29.9955 257.482 29.9525 257.365 29.9095C257.142 29.8022 256.961 29.6733 256.77 29.5874C256.589 29.5014 256.387 29.48 256.185 29.5014C256.089 29.5122 255.983 29.5337 255.877 29.5659C255.77 29.5981 255.675 29.6303 255.547 29.6625C255.515 29.6733 255.483 29.6733 255.441 29.684C255.398 29.684 255.356 29.684 255.313 29.6733C255.228 29.6518 255.164 29.6196 255.111 29.5766C255.058 29.5444 255.005 29.5014 254.962 29.4585L254.898 29.4048C254.877 29.3833 254.856 29.3726 254.856 29.3726L254.877 29.3833H254.867H254.845C254.835 29.3833 254.803 29.3833 254.782 29.3833C254.739 29.3833 254.686 29.394 254.633 29.4048L254.324 29.4692C254.122 29.5122 253.899 29.5444 253.687 29.5551C253.58 29.5551 253.463 29.5551 253.346 29.5337C253.293 29.5229 253.229 29.5122 253.176 29.4907L253.017 29.437C252.815 29.3618 252.623 29.2652 252.432 29.1793C251.677 28.8034 250.954 28.3845 250.21 27.9872C250.029 27.8905 249.838 27.7939 249.657 27.6542C249.487 27.5146 249.338 27.3535 249.211 27.1817C249.083 27.0099 248.977 26.8165 248.871 26.634C248.818 26.5373 248.764 26.4514 248.711 26.3655C248.658 26.2796 248.594 26.1937 248.53 26.14C248.382 26.0111 248.201 25.9144 248.02 25.9037C247.978 25.9037 247.925 25.9037 247.871 25.9037C247.818 25.9037 247.754 25.9037 247.691 25.8715C247.627 25.85 247.574 25.7855 247.542 25.7426C247.51 25.6996 247.478 25.6567 247.457 25.6137C247.404 25.5385 247.319 25.4956 247.233 25.4634C247.148 25.4311 247.053 25.4204 246.957 25.4204C246.904 25.4204 246.861 25.4204 246.798 25.4311C246.766 25.4311 246.744 25.4311 246.702 25.4311C246.67 25.4204 246.628 25.4097 246.596 25.3882C246.564 25.3667 246.532 25.3345 246.521 25.3023C246.5 25.27 246.489 25.2486 246.479 25.2271C246.457 25.1841 246.436 25.1412 246.404 25.109L246.426 25.1304C246.351 25.0875 246.277 25.066 246.202 25.066C246.128 25.066 246.043 25.0875 245.958 25.109C245.915 25.1197 245.873 25.1304 245.82 25.1412C245.777 25.1519 245.713 25.1627 245.66 25.1519C245.543 25.1304 245.458 25.066 245.384 25.0016C245.309 24.9371 245.245 24.8727 245.182 24.819C245.118 24.7653 245.054 24.7223 245.001 24.7331C244.937 24.7331 244.905 24.7653 244.852 24.8512C244.82 24.8942 244.778 24.9479 244.703 24.9693C244.64 24.9908 244.576 24.9801 244.523 24.9693H244.501L244.48 24.9479C244.331 24.7868 244.193 24.6257 244.034 24.4753L243.8 24.2498C243.725 24.1746 243.64 24.1102 243.555 24.0457C243.226 23.7772 242.854 23.5517 242.46 23.4228C242.364 23.3906 242.258 23.3584 242.162 23.3477C242.067 23.3262 241.961 23.3154 241.854 23.3154C241.652 23.3047 241.44 23.3262 241.238 23.3584L241.078 23.3799C241.025 23.3906 240.961 23.3906 240.908 23.4014C240.876 23.4014 240.844 23.4014 240.812 23.4014C240.78 23.4014 240.738 23.4014 240.717 23.3906L240.632 23.3691L240.547 23.3369C240.334 23.2617 240.132 23.1651 239.941 23.0684C239.547 22.8859 239.154 22.7033 238.761 22.5852C238.569 22.5315 238.357 22.4885 238.187 22.4992C238.144 22.51 238.101 22.51 238.059 22.5207L237.995 22.5422C237.974 22.5529 237.953 22.5637 237.931 22.5744C237.846 22.6174 237.783 22.6603 237.719 22.7248C237.655 22.7892 237.612 22.8644 237.549 22.961C237.495 23.0577 237.421 23.1651 237.315 23.2617C237.283 23.2832 237.262 23.3047 237.23 23.3262C237.198 23.3477 237.166 23.3584 237.134 23.3799C237.07 23.4121 236.996 23.4336 236.943 23.4443C236.836 23.4765 236.719 23.498 236.613 23.5195C236.4 23.5625 236.198 23.5947 235.997 23.6484C235.795 23.7021 235.593 23.7665 235.391 23.8417L235.465 23.7987C235.348 23.9061 235.231 23.9813 235.114 24.0672C234.997 24.1531 234.88 24.2283 234.774 24.3142C234.54 24.4753 234.306 24.6364 234.072 24.7868C233.605 25.0875 233.116 25.3774 232.626 25.6567C232.137 25.9359 231.638 26.1937 231.117 26.4192C230.862 26.5373 230.596 26.634 230.32 26.7199C230.043 26.8058 229.756 26.881 229.437 26.881H229.384L229.331 26.8488C229.086 26.7092 228.821 26.6018 228.555 26.5051C228.278 26.4084 228.002 26.3333 227.715 26.2688C227.428 26.1937 227.141 26.14 226.854 26.0755C226.567 26.0111 226.269 25.9466 225.971 25.8392H226.11C225.95 25.9037 225.791 25.9574 225.621 26.0003C225.451 26.0433 225.291 26.0755 225.121 26.1077L224.143 26.2688L224.217 26.2366C223.941 26.4407 223.665 26.5588 223.377 26.6662C223.09 26.7736 222.803 26.8702 222.516 26.9454C222.229 27.0313 221.932 27.0958 221.645 27.1495C221.347 27.2032 221.049 27.2569 220.741 27.2784L220.805 27.2569C220.582 27.3965 220.348 27.4609 220.114 27.5039C219.88 27.5468 219.646 27.5576 219.412 27.5576C218.944 27.5576 218.487 27.5039 218.03 27.4502C217.913 27.4394 217.807 27.4287 217.69 27.418C217.637 27.4072 217.573 27.4072 217.52 27.4072C217.467 27.4072 217.413 27.4072 217.36 27.4072C217.137 27.4287 216.914 27.4824 216.691 27.5361C216.244 27.6435 215.798 27.7616 215.351 27.8583L215.404 27.8798Z" fill="white"/>
    <path d="M87.6302 65.8013C85.7698 64.7166 84.3027 63.2345 83.2077 61.3336C82.1127 59.4327 81.5706 57.3385 81.5706 55.0402C81.5706 52.7419 82.1127 50.6477 83.2077 48.7468C84.3027 46.8459 85.7698 45.3638 87.6302 44.2791C89.4907 43.1944 91.5212 42.6575 93.7218 42.6575C95.444 42.6575 97.0706 42.9689 98.5908 43.5811C100.111 44.204 101.355 45.0739 102.344 46.1908L100.345 48.2098C99.6008 47.2862 98.6546 46.5667 97.4958 46.0727C96.337 45.5786 95.0932 45.3316 93.7643 45.3316C92.1059 45.3316 90.5538 45.7397 89.1292 46.5345C87.694 47.3399 86.5565 48.4783 85.6848 49.9389C84.8236 51.4102 84.3878 53.0963 84.3878 55.0187C84.3878 56.9411 84.8236 58.6272 85.6848 60.0986C86.5459 61.5699 87.7046 62.6975 89.1398 63.503C90.5857 64.3085 92.1165 64.7058 93.7643 64.7058C95.3377 64.7058 96.656 64.4588 97.7084 63.9648C98.7715 63.4708 99.6752 62.8157 100.441 61.9995C101.004 61.3873 101.472 60.6355 101.812 59.7656C102.163 58.8957 102.375 57.9292 102.471 56.8659H93.7856V54.2562H105.054C105.161 54.8791 105.214 55.4483 105.214 55.9746C105.214 57.4351 104.98 58.8528 104.523 60.2274C104.066 61.6021 103.332 62.8157 102.333 63.8467C100.175 66.2094 97.2938 67.3907 93.7218 67.3907C91.5212 67.423 89.48 66.886 87.6302 65.8013Z" fill="white"/>
    <path d="M108.69 43.1953H115.77C118.173 43.1953 120.267 43.7001 122.064 44.6989C123.85 45.7084 125.232 47.0938 126.189 48.8873C127.145 50.6701 127.634 52.7213 127.634 55.0411C127.634 57.3608 127.156 59.4121 126.189 61.1949C125.232 62.9776 123.85 64.3738 122.064 65.3833C120.278 66.3821 118.173 66.8869 115.77 66.8869H108.69V43.1953ZM115.77 64.2127C118.545 64.2127 120.746 63.4072 122.372 61.7963C123.999 60.1854 124.817 57.93 124.817 55.0411C124.817 52.1521 123.999 49.8968 122.372 48.2859C120.746 46.6749 118.545 45.8695 115.77 45.8695H111.443V64.202H115.77V64.2127Z" fill="white"/>
    <path d="M135.98 65.8013C134.119 64.7166 132.652 63.2345 131.557 61.3336C130.462 59.4327 129.92 57.3385 129.92 55.0402C129.92 52.7419 130.462 50.6477 131.557 48.7468C132.652 46.8459 134.119 45.3638 135.98 44.2791C137.84 43.1944 139.871 42.6575 142.071 42.6575C143.794 42.6575 145.42 42.9689 146.94 43.5811C148.461 44.204 149.704 45.0739 150.693 46.1908L148.695 48.2098C147.95 47.2862 147.004 46.5667 145.845 46.0727C144.687 45.5786 143.443 45.3316 142.114 45.3316C140.456 45.3316 138.903 45.7397 137.479 46.5345C136.044 47.3399 134.906 48.4783 134.034 49.9389C133.173 51.4102 132.737 53.0963 132.737 55.0187C132.737 56.9411 133.173 58.6272 134.034 60.0986C134.895 61.5699 136.054 62.6975 137.489 63.503C138.935 64.3085 140.466 64.7058 142.114 64.7058C143.687 64.7058 145.006 64.4588 146.058 63.9648C147.121 63.4708 148.025 62.8157 148.79 61.9995C149.354 61.3873 149.821 60.6355 150.162 59.7656C150.512 58.8957 150.725 57.9292 150.821 56.8659H142.135V54.2562H153.404C153.51 54.8791 153.564 55.4483 153.564 55.9746C153.564 57.4351 153.33 58.8528 152.873 60.2274C152.415 61.6021 151.682 62.8157 150.683 63.8467C148.524 66.2094 145.643 67.3907 142.071 67.3907C139.871 67.423 137.84 66.886 135.98 65.8013Z" fill="white"/>
    <path d="M15.8708 55.0831L26.6719 48.7897C29.2127 47.3076 30.0845 44.0213 28.6174 41.4545C27.1503 38.8878 23.8972 38.0071 21.3564 39.4892L2.69897 50.3684L15.8708 55.0831Z" fill="#EA4335"/>
    <path d="M24.0034 71.2673C25.8426 71.2673 27.6286 70.3008 28.6067 68.5824C30.0738 66.0157 29.202 62.7294 26.6612 61.2473L8.01439 50.3681C5.47358 48.886 2.22049 49.7667 0.753405 52.3334C-0.713675 54.9002 0.158068 58.1865 2.69888 59.6686L21.3563 70.5478C22.1962 71.0418 23.1104 71.2673 24.0034 71.2673Z" fill="#4285F4"/>
    <path d="M42.5651 71.2675C43.4688 71.2675 44.383 71.0312 45.2123 70.548L63.8697 59.6688L50.868 54.8574L39.9074 61.2582C37.3666 62.7403 36.4948 66.0266 37.9619 68.5934C38.94 70.3009 40.726 71.2675 42.5651 71.2675Z" fill="#FBBC04"/>
    <path d="M61.2118 60.3884C63.051 60.3884 64.837 59.4219 65.8151 57.7035C67.2821 55.1368 66.4104 51.8505 63.8696 50.3684L45.2121 39.4892C42.6713 38.0071 39.4182 38.8878 37.9512 41.4545C36.4841 44.0213 37.3558 47.3076 39.8966 48.7897L58.5541 59.6689C59.3939 60.1521 60.3082 60.3884 61.2118 60.3884Z" fill="#0F9D58"/>
    <path d="M176.388 57.102V66.9072H173.305V42.6895H181.481C183.554 42.6895 185.318 43.3875 186.775 44.7837C188.253 46.1798 188.986 47.8874 188.986 49.8957C188.986 51.947 188.253 53.6653 186.775 55.04C185.35 56.4146 183.586 57.102 181.481 57.102H176.388ZM176.388 45.6751V54.1271H181.544C182.767 54.1271 183.788 53.7083 184.596 52.8706C185.425 52.0329 185.839 51.0449 185.839 49.8957C185.839 48.7681 185.425 47.7908 184.596 46.9531C183.788 46.0939 182.778 45.6643 181.544 45.6643H176.388V45.6751Z" fill="white"/>
    <path d="M197.852 67.4552C195.439 67.4552 193.451 66.6175 191.888 64.9529C190.326 63.2882 189.55 61.1725 189.55 58.6273C189.55 56.1035 190.304 53.9985 191.825 52.3231C193.345 50.6477 195.28 49.7993 197.65 49.7993C200.085 49.7993 202.02 50.594 203.466 52.1835C204.911 53.773 205.624 55.9961 205.624 58.8635L205.592 59.1965H192.696C192.739 60.8181 193.281 62.1284 194.302 63.1164C195.333 64.1045 196.555 64.6092 197.991 64.6092C199.957 64.6092 201.499 63.6212 202.615 61.6343L205.358 62.9875C204.624 64.3837 203.604 65.4791 202.296 66.2738C200.978 67.0578 199.5 67.4552 197.852 67.4552ZM192.93 56.6297H202.339C202.254 55.4806 201.786 54.5247 200.946 53.773C200.106 53.0212 198.99 52.6346 197.576 52.6346C196.417 52.6346 195.418 52.9997 194.578 53.7193C193.749 54.4496 193.196 55.4161 192.93 56.6297Z" fill="white"/>
    <path d="M221.156 62.3107C221.156 63.7498 220.529 64.9741 219.285 65.9621C218.03 66.9502 216.457 67.4549 214.565 67.4549C212.917 67.4549 211.46 67.0254 210.206 66.1555C208.951 65.2856 208.058 64.1472 207.527 62.7188L210.27 61.5374C210.674 62.5255 211.258 63.2987 212.024 63.8572C212.789 64.4049 213.64 64.6841 214.554 64.6841C215.532 64.6841 216.361 64.4693 217.02 64.0398C217.679 63.6102 218.009 63.1054 218.009 62.5147C218.009 61.4515 217.201 60.6783 215.596 60.1843L212.779 59.4754C209.589 58.6592 207.995 57.1127 207.995 54.8037C207.995 53.2894 208.601 52.0759 209.823 51.163C211.035 50.2501 212.598 49.7883 214.49 49.7883C215.936 49.7883 217.254 50.1427 218.424 50.8408C219.593 51.5389 220.412 52.4732 220.89 53.6438L218.147 54.793C217.839 54.0949 217.329 53.5472 216.627 53.1498C215.925 52.7525 215.139 52.5591 214.267 52.5591C213.459 52.5591 212.747 52.7632 212.109 53.1713C211.471 53.5794 211.152 54.0734 211.152 54.6641C211.152 55.6092 212.034 56.2858 213.799 56.6939L216.276 57.3383C219.529 58.1545 221.156 59.8084 221.156 62.3107Z" fill="white"/>
    <path d="M231.5 67.4552C229.065 67.4552 227.045 66.6175 225.44 64.9529C223.856 63.2345 223.059 61.1296 223.059 58.6273C223.059 56.082 223.856 53.9663 225.44 52.3016C227.045 50.637 229.065 49.7993 231.5 49.7993C233.179 49.7993 234.636 50.2182 235.89 51.0666C237.145 51.915 238.08 53.0749 238.707 54.5677L235.89 55.749C235.018 53.6763 233.488 52.6346 231.298 52.6346C229.894 52.6346 228.672 53.2145 227.651 54.3636C226.652 55.5128 226.142 56.9304 226.142 58.6273C226.142 60.3241 226.641 61.7417 227.651 62.8909C228.682 64.04 229.894 64.62 231.298 64.62C233.551 64.62 235.135 63.5782 236.05 61.5055L238.792 62.6868C238.187 64.1796 237.251 65.3395 235.965 66.1879C234.689 67.0364 233.201 67.4552 231.5 67.4552Z" fill="white"/>
    <path d="M247.542 49.7993C249.817 49.7993 251.614 50.4115 252.932 51.6465C254.25 52.8708 254.909 54.557 254.909 56.7049V66.9182H251.964V64.6199H251.826C250.55 66.5101 248.86 67.4659 246.734 67.4659C244.927 67.4659 243.417 66.929 242.194 65.8443C240.983 64.7596 240.366 63.4064 240.366 61.7847C240.366 60.0664 241.004 58.7024 242.29 57.6929C243.577 56.6727 245.288 56.1679 247.436 56.1679C249.264 56.1679 250.774 56.5116 251.954 57.1882V56.4793C251.954 55.3946 251.529 54.4818 250.678 53.7193C249.828 52.9675 248.839 52.5809 247.701 52.5809C245.979 52.5809 244.618 53.3112 243.619 54.7825L240.908 53.0534C242.407 50.884 244.618 49.7993 247.542 49.7993ZM243.555 61.8384C243.555 62.6546 243.895 63.3312 244.576 63.8682C245.256 64.4052 246.054 64.6844 246.968 64.6844C248.265 64.6844 249.413 64.2011 250.434 63.2345C251.454 62.268 251.954 61.1296 251.954 59.8194C250.997 59.0568 249.657 58.6702 247.935 58.6702C246.681 58.6702 245.639 58.9709 244.799 59.5831C243.981 60.1845 243.555 60.9363 243.555 61.8384Z" fill="white"/>
    <path d="M261.479 66.918H258.396V50.3361H261.341V53.0424H261.479C261.787 52.1618 262.436 51.41 263.403 50.7979C264.371 50.175 265.327 49.8635 266.263 49.8635C267.156 49.8635 267.911 50.0031 268.538 50.2716L267.602 53.2787C267.22 53.1176 266.624 53.0424 265.795 53.0424C264.636 53.0424 263.626 53.515 262.765 54.4601C261.904 55.4052 261.479 56.5113 261.479 57.7786V66.918Z" fill="white"/>
    <path d="M276.108 49.7993C278.383 49.7993 280.179 50.4115 281.497 51.6465C282.816 52.8708 283.475 54.557 283.475 56.7049V66.9182H280.53V64.6199H280.392C279.116 66.5101 277.426 67.4659 275.3 67.4659C273.492 67.4659 271.983 66.929 270.76 65.8443C269.548 64.7596 268.932 63.4064 268.932 61.7847C268.932 60.0664 269.569 58.7024 270.856 57.6929C272.142 56.6727 273.854 56.1679 276.001 56.1679C277.83 56.1679 279.339 56.5116 280.519 57.1882V56.4793C280.519 55.3946 280.094 54.4818 279.244 53.7193C278.393 52.9675 277.405 52.5809 276.267 52.5809C274.545 52.5809 273.184 53.3112 272.185 54.7825L269.474 53.0534C270.973 50.884 273.184 49.7993 276.108 49.7993ZM272.121 61.8384C272.121 62.6546 272.461 63.3312 273.142 63.8682C273.822 64.4052 274.619 64.6844 275.533 64.6844C276.83 64.6844 277.979 64.2011 278.999 63.2345C280.02 62.268 280.519 61.1296 280.519 59.8194C279.563 59.0568 278.223 58.6702 276.501 58.6702C275.246 58.6702 274.205 58.9709 273.365 59.5831C272.546 60.1845 272.121 60.9363 272.121 61.8384Z" fill="white"/>
    <path d="M282.528 42.679C282.507 41.9487 282.262 41.2506 281.869 40.6384C281.486 40.0263 280.987 39.5 280.434 39.0382C279.328 38.1146 278.042 37.4166 276.734 36.8151C275.416 36.2245 274.045 35.7412 272.663 35.3223C271.281 34.9035 269.867 34.5598 268.453 34.2699C267.028 33.9799 265.604 33.7544 264.168 33.5718C262.733 33.3892 261.298 33.2066 259.852 33.0456C259.129 32.9596 258.406 32.8737 257.694 32.8093C256.971 32.7234 256.248 32.6589 255.525 32.5945C254.08 32.4549 252.623 32.3367 251.167 32.1864V32.0897C252.623 31.9501 254.09 31.8857 255.557 31.8857C256.291 31.8749 257.024 31.9072 257.758 31.9286C258.492 31.9501 259.225 32.0038 259.959 32.0575C261.426 32.1649 262.882 32.3475 264.328 32.6052C265.051 32.7341 265.774 32.8737 266.486 33.0241C267.209 33.1744 267.921 33.3355 268.634 33.5074C271.483 34.1947 274.31 35.0753 276.968 36.3856C278.286 37.0514 279.562 37.8247 280.668 38.8342C281.221 39.339 281.71 39.9081 282.082 40.5633C282.454 41.2076 282.677 41.9594 282.656 42.7112H282.528V42.679Z" fill="#0F9D58"/>
    <path d="M191.92 42.6789C191.92 42.3459 191.995 42.0238 192.133 41.7231C192.165 41.6479 192.197 41.5727 192.239 41.4975L192.367 41.2827C192.409 41.2183 192.463 41.1539 192.516 41.0894L192.59 40.9928L192.675 40.8961C193.1 40.4021 193.611 39.994 194.153 39.6396C194.695 39.2852 195.259 38.9737 195.833 38.6945C196.407 38.4153 197.002 38.1575 197.597 37.9212C199.979 36.9762 202.445 36.2888 204.933 35.6981C207.42 35.1075 209.929 34.6349 212.449 34.2053C214.968 33.7865 217.499 33.4321 220.029 33.1206C222.559 32.8092 225.1 32.5407 227.641 32.3044C230.181 32.0789 232.733 31.9178 235.274 31.8211C236.549 31.7782 237.825 31.746 239.101 31.7138L241.014 31.6923C241.652 31.6815 242.29 31.6923 242.928 31.6923C245.479 31.703 248.031 31.7675 250.572 31.9071V32.0037C248.031 32.1541 245.479 32.2722 242.939 32.4011C241.674 32.4763 240.398 32.53 239.133 32.6051C237.868 32.6696 236.592 32.7448 235.327 32.8307L227.715 33.3032C226.45 33.3891 225.185 33.475 223.909 33.5717C222.644 33.6791 221.379 33.7865 220.114 33.9154C217.584 34.1731 215.064 34.4738 212.545 34.839C210.036 35.2041 207.527 35.6337 205.039 36.1707C202.562 36.6969 200.085 37.3198 197.704 38.1897C197.108 38.4045 196.524 38.6515 195.95 38.9093C195.375 39.167 194.812 39.457 194.27 39.8007C193.738 40.1336 193.228 40.5202 192.792 40.982L192.707 41.0679L192.633 41.1646C192.58 41.229 192.537 41.2827 192.484 41.3472L192.356 41.5405C192.314 41.6049 192.282 41.6801 192.25 41.7445C192.112 42.0238 192.027 42.3352 192.016 42.6467H191.92V42.6789Z" fill="#0F9D58"/>
    <path d="M191.92 42.6791C191.91 42.3462 192.027 42.0133 192.207 41.7448C192.377 41.4656 192.601 41.2293 192.845 41.0145C193.334 40.5956 193.876 40.252 194.44 39.9513C195.003 39.6506 195.588 39.3928 196.173 39.1565C196.757 38.9203 197.363 38.7055 197.959 38.5122C199.16 38.1148 200.383 37.7819 201.616 37.4704C202.838 37.1697 204.082 36.8905 205.315 36.6435C207.792 36.1495 210.291 35.7414 212.789 35.3977C215.287 35.0433 217.796 34.7426 220.305 34.4848C222.814 34.2163 225.334 33.9908 227.853 33.7868C230.373 33.5827 232.892 33.4538 235.412 33.3786C236.677 33.3464 237.931 33.3249 239.196 33.3142H241.089C241.716 33.3142 242.354 33.3249 242.981 33.3249C245.501 33.3572 248.031 33.4323 250.55 33.6042V33.7223C248.031 33.8941 245.511 34.023 243.002 34.1519L239.228 34.3559C237.974 34.4204 236.719 34.4848 235.454 34.56L227.917 34.9466C226.663 35.0111 225.408 35.0755 224.154 35.1507C222.899 35.2366 221.645 35.3225 220.39 35.4192C217.881 35.6232 215.383 35.8595 212.885 36.1602C210.386 36.4502 207.899 36.8046 205.422 37.2342C204.178 37.4489 202.945 37.6852 201.722 37.9537C200.5 38.2222 199.277 38.5229 198.065 38.8773C197.459 39.0599 196.864 39.2425 196.279 39.468C195.694 39.6828 195.11 39.9191 194.546 40.1983C193.983 40.4775 193.441 40.789 192.962 41.1756C192.728 41.3796 192.505 41.5944 192.335 41.8522C192.165 42.1099 192.048 42.3999 192.048 42.7113H191.92V42.6791Z" fill="#FBBC04"/>
    <path d="M282.528 42.6789C282.518 42.3244 282.433 41.97 282.305 41.6479C282.167 41.3257 281.986 41.025 281.763 40.7457C281.327 40.1873 280.785 39.7255 280.2 39.3281C279.031 38.5226 277.734 37.932 276.405 37.4272C275.076 36.9224 273.715 36.5143 272.333 36.1707C270.951 35.8163 269.558 35.5263 268.155 35.2793C267.453 35.1611 266.752 35.0537 266.05 34.9571C265.349 34.8604 264.636 34.7745 263.935 34.6993C262.521 34.5382 261.107 34.3986 259.693 34.2483C258.981 34.1731 258.279 34.1087 257.567 34.0442C256.854 33.969 256.142 33.9153 255.44 33.8509C254.016 33.722 252.591 33.6146 251.167 33.475V33.3784C252.602 33.2495 254.037 33.1851 255.472 33.1743C256.195 33.1636 256.908 33.1851 257.63 33.1958C258.353 33.2173 259.066 33.2602 259.789 33.2924C261.224 33.3891 262.659 33.5395 264.083 33.7543C265.508 33.9798 266.922 34.2268 268.336 34.5275C271.153 35.1074 273.949 35.8592 276.617 36.9761C277.946 37.5453 279.243 38.2004 280.413 39.0811C280.987 39.5214 281.54 40.0262 281.965 40.6169C282.177 40.9176 282.358 41.2397 282.486 41.5942C282.613 41.9378 282.677 42.3137 282.666 42.6789H282.528Z" fill="#FBBC04"/>
    <path d="M255.505 7.73242L276.65 35.4191L255.239 7.93647L255.505 7.73242Z" fill="#4285F4"/>
    <path d="M255.536 9.80493L262.914 31.9822L255.218 9.92307L255.536 9.80493Z" fill="#4285F4"/>
    <path d="M251.231 7.97918L205.603 34.4093L251.061 7.68921L251.231 7.97918Z" fill="#4285F4"/>
    <path d="M249.998 42.6577C250.04 39.0814 250.157 35.5051 250.263 31.9288L250.359 29.2439L250.465 26.5697L250.582 23.8956L250.71 21.2214C250.806 19.4387 250.806 17.6451 250.859 15.8624C250.88 14.971 250.933 14.0796 251.008 13.1882C251.082 12.2968 251.188 11.4162 251.326 10.5248C251.592 8.75277 251.922 6.99147 252.326 5.24092C252.528 4.36027 252.751 3.49037 253.006 2.60972C253.134 2.1694 253.261 1.73981 253.41 1.29949C253.548 0.859167 253.697 0.429584 253.878 0L254.229 0.0322188C254.324 0.494021 254.388 0.945084 254.452 1.39615C254.516 1.84721 254.569 2.29827 254.611 2.76007C254.707 3.6622 254.76 4.56433 254.813 5.46645C254.898 7.2707 254.909 9.06421 254.845 10.847C254.813 11.7384 254.76 12.6298 254.675 13.5211C254.59 14.4125 254.473 15.2932 254.346 16.1738C254.069 17.9459 253.761 19.7071 253.527 21.4792L253.176 24.1319L252.815 26.7845L252.432 29.4372L252.039 32.0899C251.507 35.6232 250.976 39.1565 250.38 42.6899L249.998 42.6577Z" fill="#EA4335"/>
    <path d="M250.274 11.695L222.697 31.9821L250.083 11.4158L250.274 11.695Z" fill="#4285F4"/>
    <path d="M250.316 15.3791L239.451 31.0267L250.04 15.1858L250.316 15.3791Z" fill="#4285F4"/>
</svg>
