<svg width="307" height="25" viewBox="0 0 307 25" fill="none" xmlns="http://www.w3.org/2000/svg">
<path d="M58.0748 18.9134C56.7889 18.1951 55.7887 17.1895 55.0742 15.8966C54.3598 14.6036 53.9312 13.167 53.9312 11.5868C53.9312 10.0065 54.3598 8.56989 55.0742 7.27695C55.7887 5.98401 56.7889 4.97839 58.0748 4.26009C59.3608 3.54179 60.7897 3.11081 62.2185 3.11081C63.3616 3.11081 64.5047 3.25447 65.5049 3.68545C66.5051 4.11643 67.3624 4.69107 68.0768 5.40937L66.648 6.84597C66.0764 6.27133 65.5049 5.69669 64.6476 5.40937C63.7903 5.12205 62.9329 4.83473 62.0756 4.83473C60.9325 4.83473 59.9323 5.12205 58.9321 5.69669C57.932 6.27133 57.2175 6.98963 56.646 7.99525C56.0744 9.00087 55.7887 10.1502 55.7887 11.4431C55.7887 12.736 56.0744 13.8853 56.646 14.8909C57.2175 15.8966 58.0748 16.6149 58.9321 17.1895C59.9323 17.7641 60.9325 18.0515 62.0756 18.0515C63.0758 18.0515 64.076 17.9078 64.7905 17.4768C65.5049 17.1895 66.0764 16.7585 66.648 16.1839C67.0766 15.7529 67.3624 15.3219 67.6482 14.6036C67.9339 14.029 68.0768 13.3107 68.0768 12.5924H62.2185V11.0121H69.9343C70.0772 11.4431 70.0772 11.8741 70.0772 12.1614C70.0772 13.167 69.9343 14.1726 69.6486 15.0346C69.3628 15.8966 68.7913 16.7585 68.2197 17.4768C66.648 19.0571 64.7905 19.919 62.3614 19.919C60.7897 19.919 59.3608 19.6317 58.0748 18.9134Z" fill="black"/>
<path d="M74.2212 19.2007C73.3639 18.6261 72.6494 17.9078 72.2208 17.0458C71.7921 16.1839 71.5063 15.1783 71.5063 14.029C71.5063 12.8797 71.7921 11.8741 72.2208 11.0121C72.6494 10.1502 73.3639 9.43186 74.2212 8.85722C75.0785 8.28258 76.0787 8.13892 77.0789 8.13892C78.222 8.13892 79.0793 8.42624 80.0795 8.85722C80.9368 9.43186 81.6512 10.1502 82.0799 11.0121C82.5085 11.8741 82.7943 12.8797 82.7943 14.029C82.7943 15.1783 82.5085 16.1839 82.0799 17.0458C81.6512 17.9078 80.9368 18.6261 80.0795 19.2007C79.2222 19.7754 78.222 19.919 77.0789 19.919C76.0787 19.919 75.0785 19.7754 74.2212 19.2007ZM79.0793 17.7641C79.6508 17.4768 80.0795 16.9022 80.5081 16.3275C80.7939 15.7529 81.0797 14.8909 81.0797 14.1726C81.0797 13.3107 80.9368 12.5924 80.5081 12.0177C80.2224 11.4431 79.6508 10.8685 79.0793 10.5811C78.5077 10.2938 77.9362 10.0065 77.2218 10.0065C76.5073 10.0065 75.9358 10.1502 75.3643 10.5811C74.7927 10.8685 74.3641 11.4431 73.9354 12.0177C73.6496 12.5924 73.3639 13.4543 73.3639 14.1726C73.3639 15.0346 73.5067 15.7529 73.9354 16.3275C74.2212 16.9022 74.7927 17.4768 75.3643 17.7641C75.9358 18.0515 76.5073 18.3388 77.2218 18.3388C77.9362 18.1951 78.5077 18.0515 79.0793 17.7641Z" fill="black"/>
<path d="M86.9377 19.2007C86.0804 18.6261 85.366 17.9078 84.9373 17.0458C84.5087 16.1839 84.2229 15.1783 84.2229 14.029C84.2229 12.8797 84.5087 11.8741 84.9373 11.0121C85.366 10.1502 86.0804 9.43186 86.9377 8.85722C87.7951 8.28258 88.7953 8.13892 89.7955 8.13892C90.9385 8.13892 91.7958 8.42624 92.796 8.85722C93.6534 9.43186 94.3678 10.1502 94.7965 11.0121C95.2251 11.8741 95.5109 12.8797 95.5109 14.029C95.5109 15.1783 95.2251 16.1839 94.7965 17.0458C94.3678 17.9078 93.6534 18.6261 92.796 19.2007C91.9387 19.7754 90.9385 19.919 89.7955 19.919C88.7953 19.919 87.7951 19.7754 86.9377 19.2007ZM91.6529 17.7641C92.2245 17.4768 92.6531 16.9022 93.0818 16.3275C93.3676 15.7529 93.6534 14.8909 93.6534 14.1726C93.6534 13.3107 93.5105 12.5924 93.0818 12.0177C92.796 11.4431 92.2245 10.8685 91.6529 10.5811C91.0814 10.2938 90.5099 10.0065 89.7955 10.0065C89.081 10.0065 88.5095 10.1502 87.9379 10.5811C87.3664 10.8685 86.9377 11.4431 86.5091 12.0177C86.2233 12.5924 85.9375 13.4543 85.9375 14.1726C85.9375 15.0346 86.0804 15.7529 86.5091 16.3275C86.7949 16.9022 87.3664 17.4768 87.9379 17.7641C88.5095 18.0515 89.081 18.3388 89.7955 18.3388C90.5099 18.1951 91.0814 18.0515 91.6529 17.7641Z" fill="black"/>
<path d="M99.0831 23.7979C98.2257 23.2232 97.6542 22.3613 97.3684 21.4993L99.0831 20.781C99.3688 21.4993 99.6546 21.9303 100.226 22.3613C100.798 22.7923 101.512 22.9359 102.227 22.9359C103.37 22.9359 104.37 22.6486 104.941 21.9303C105.513 21.212 105.942 20.35 105.942 19.0571V17.9078H105.799C105.513 18.4824 104.941 18.9134 104.227 19.3444C103.512 19.7754 102.798 19.9191 101.941 19.9191C100.941 19.9191 100.083 19.6317 99.3688 19.2008C98.5115 18.6261 97.94 18.0515 97.5113 17.0458C97.0826 16.1839 96.7969 15.1783 96.7969 14.029C96.7969 12.8797 97.0826 11.8741 97.5113 11.0121C97.94 10.1502 98.6544 9.43186 99.3688 8.85722C100.226 8.28258 101.083 8.13892 101.941 8.13892C102.798 8.13892 103.512 8.28258 104.227 8.71356C104.941 9.14454 105.37 9.57552 105.799 10.1502H105.942V8.42624H107.799V19.0571C107.799 20.35 107.513 21.3557 107.085 22.2176C106.656 23.0796 105.942 23.6542 105.084 24.0852C104.227 24.5162 103.37 24.6598 102.227 24.6598C100.941 24.8035 99.7975 24.5162 99.0831 23.7979ZM104.084 17.7641C104.656 17.4768 105.084 16.9022 105.37 16.3275C105.656 15.7529 105.942 14.8909 105.942 14.029C105.942 13.167 105.799 12.4487 105.37 11.7304C105.084 11.1558 104.656 10.5811 104.084 10.2938C103.513 10.0065 102.941 9.86284 102.227 9.86284C101.512 9.86284 100.941 10.0065 100.369 10.4375C99.7975 10.7248 99.3688 11.2994 99.0831 11.8741C98.7973 12.4487 98.5115 13.3107 98.5115 14.1726C98.5115 15.0346 98.6544 15.7529 99.0831 16.4712C99.3688 17.0458 99.7975 17.6205 100.369 17.9078C100.941 18.1951 101.512 18.4825 102.227 18.4825C102.941 18.1951 103.655 18.0515 104.084 17.7641Z" fill="black"/>
<path d="M110.085 3.5426H111.943V19.6325H110.085V3.5426Z" fill="black"/>
<path d="M116.372 19.2008C115.515 18.6261 114.943 18.0515 114.372 17.0459C113.943 16.1839 113.657 15.1783 113.657 14.029C113.657 13.0234 113.943 12.0178 114.372 11.0121C114.801 10.1502 115.515 9.43187 116.229 8.85723C116.944 8.28259 117.944 7.99527 119.087 7.99527C120.087 7.99527 121.088 8.28259 121.945 8.71357C122.802 9.14455 123.374 9.86285 123.802 10.7248C124.231 11.5868 124.517 12.5924 124.517 13.7417C124.517 13.8853 124.517 14.1727 124.517 14.1727H115.801C115.801 15.0346 116.087 15.7529 116.372 16.3276C116.801 16.9022 117.23 17.3332 117.801 17.6205C118.373 17.9078 118.944 18.0515 119.516 18.0515C120.945 18.0515 121.945 17.3332 122.802 16.0402L124.517 16.9022C124.088 17.7642 123.374 18.4825 122.516 19.0571C121.659 19.6317 120.659 19.9191 119.516 19.9191C118.087 19.9191 117.23 19.7754 116.372 19.2008ZM122.373 12.8797C122.373 12.4487 122.231 12.0178 121.945 11.5868C121.659 11.1558 121.373 10.7248 120.802 10.4375C120.373 10.1502 119.659 10.0065 118.944 10.0065C118.087 10.0065 117.372 10.2938 116.801 10.8685C116.229 11.4431 115.801 12.1614 115.658 13.0234H122.373V12.8797Z" fill="black"/>
<path d="M131.661 3.5426H136.519C138.091 3.5426 139.519 3.82992 140.805 4.54822C142.091 5.26652 142.949 6.12849 143.663 7.42143C144.377 8.57071 144.663 10.0073 144.663 11.5876C144.663 13.1678 144.377 14.6044 143.663 15.7537C142.949 16.903 142.091 17.9086 140.805 18.6269C139.519 19.3452 138.091 19.6325 136.519 19.6325H131.661V3.5426ZM136.519 17.765C138.376 17.765 139.948 17.1903 140.948 16.1847C142.091 15.0354 142.663 13.5988 142.663 11.5876C142.663 9.57633 142.091 8.13973 140.948 6.99045C139.805 5.84116 138.376 5.41018 136.519 5.41018H133.518V17.765H136.519Z" fill="black"/>
<path d="M148.807 19.2008C147.95 18.6261 147.378 18.0515 146.807 17.0459C146.378 16.1839 146.092 15.1783 146.092 14.029C146.092 13.0234 146.378 12.0178 146.807 11.0121C147.235 10.1502 147.95 9.43187 148.664 8.85723C149.522 8.28259 150.379 7.99527 151.522 7.99527C152.522 7.99527 153.522 8.28259 154.38 8.71357C155.237 9.14455 155.809 9.86285 156.237 10.7248C156.666 11.5868 156.952 12.5924 156.952 13.7417C156.952 13.8853 156.952 14.1727 156.952 14.1727H148.236C148.236 15.0346 148.521 15.7529 148.807 16.3276C149.236 16.9022 149.664 17.3332 150.236 17.6205C150.808 17.9078 151.379 18.0515 151.951 18.0515C153.379 18.0515 154.38 17.3332 155.237 16.0402L156.952 16.9022C156.523 17.7642 155.809 18.4825 154.951 19.0571C154.094 19.6317 153.094 19.9191 151.951 19.9191C150.665 19.9191 149.664 19.7754 148.807 19.2008ZM154.951 12.8797C154.951 12.4487 154.808 12.0178 154.523 11.5868C154.237 11.1558 153.951 10.7248 153.379 10.4375C152.951 10.1502 152.236 10.0065 151.522 10.0065C150.665 10.0065 149.95 10.2938 149.379 10.8685C148.807 11.4431 148.378 12.1614 148.236 13.0234H154.951V12.8797Z" fill="black"/>
<path d="M157.38 8.42627H159.381L162.81 17.3332L166.239 8.42627H168.24L163.667 19.4881H161.81L157.38 8.42627Z" fill="black"/>
<path d="M171.669 19.2008C170.812 18.6261 170.24 18.0515 169.669 17.0459C169.24 16.1839 168.954 15.1783 168.954 14.029C168.954 13.0234 169.24 12.0178 169.669 11.0121C170.097 10.1502 170.812 9.43187 171.526 8.85723C172.383 8.28259 173.241 7.99527 174.384 7.99527C175.384 7.99527 176.384 8.28259 177.241 8.71357C178.099 9.14455 178.67 9.86285 179.099 10.7248C179.528 11.5868 179.813 12.5924 179.813 13.7417C179.813 13.8853 179.813 14.1727 179.813 14.1727H171.097C171.097 15.0346 171.383 15.7529 171.669 16.3276C172.098 16.9022 172.526 17.3332 173.098 17.6205C173.669 17.9078 174.241 18.0515 174.812 18.0515C176.241 18.0515 177.241 17.3332 178.099 16.0402L179.813 16.9022C179.385 17.7642 178.67 18.4825 177.813 19.0571C176.956 19.6317 175.956 19.9191 174.812 19.9191C173.526 19.9191 172.526 19.7754 171.669 19.2008ZM177.813 12.8797C177.813 12.4487 177.67 12.0178 177.384 11.5868C177.099 11.1558 176.813 10.7248 176.241 10.4375C175.813 10.1502 175.098 10.0065 174.384 10.0065C173.526 10.0065 172.812 10.2938 172.24 10.8685C171.669 11.4431 171.24 12.1614 171.097 13.0234H177.813V12.8797Z" fill="black"/>
<path d="M181.671 3.5426H183.528V19.6325H181.671V3.5426Z" fill="black"/>
<path d="M188.101 19.2007C187.243 18.6261 186.529 17.9078 186.1 17.0458C185.672 16.1839 185.386 15.1783 185.386 14.029C185.386 12.8797 185.672 11.8741 186.1 11.0121C186.529 10.1502 187.243 9.43186 188.101 8.85722C188.958 8.28258 189.958 8.13892 190.959 8.13892C192.102 8.13892 192.959 8.42624 193.959 8.85722C194.816 9.43186 195.531 10.1502 195.96 11.0121C196.388 11.8741 196.674 12.8797 196.674 14.029C196.674 15.1783 196.388 16.1839 195.96 17.0458C195.531 17.9078 194.816 18.6261 193.959 19.2007C193.102 19.7754 192.102 19.919 190.959 19.919C189.958 19.919 188.958 19.7754 188.101 19.2007ZM192.959 17.7641C193.53 17.4768 193.959 16.9022 194.388 16.3275C194.674 15.7529 194.959 14.8909 194.959 14.1726C194.959 13.3107 194.816 12.5924 194.388 12.0177C194.102 11.4431 193.53 10.8685 192.959 10.5811C192.387 10.2938 191.816 10.0065 191.101 10.0065C190.387 10.0065 189.815 10.1502 189.244 10.5811C188.672 10.8685 188.244 11.4431 187.815 12.0177C187.529 12.5924 187.244 13.4543 187.244 14.1726C187.244 15.0346 187.386 15.7529 187.815 16.3275C188.101 16.9022 188.672 17.4768 189.244 17.7641C189.815 18.0515 190.387 18.3388 191.101 18.3388C191.673 18.1951 192.387 18.0515 192.959 17.7641Z" fill="black"/>
<path d="M198.531 8.42625H200.389V10.0065H200.532C200.818 9.43187 201.389 9.00089 202.104 8.56991C202.818 8.13893 203.533 7.99527 204.39 7.99527C205.39 7.99527 206.247 8.28259 206.962 8.71357C207.819 9.28821 208.391 10.0065 208.819 10.8685C209.248 11.7304 209.534 12.7361 209.534 13.8853C209.534 15.0346 209.248 16.0402 208.819 16.9022C208.391 17.7642 207.676 18.4825 206.962 19.0571C206.104 19.6317 205.247 19.7754 204.39 19.7754C203.533 19.7754 202.675 19.6317 202.104 19.2008C201.389 18.7698 200.961 18.3388 200.532 17.7642H200.389L200.532 19.3444V24.2289H198.674V8.42625H198.531ZM205.676 17.7642C206.247 17.4768 206.676 16.9022 206.962 16.3276C207.248 15.7529 207.533 14.891 207.533 14.1727C207.533 13.3107 207.39 12.5924 206.962 12.0178C206.676 11.4431 206.247 10.8685 205.676 10.5812C205.104 10.2938 204.533 10.0065 203.818 10.0065C203.104 10.0065 202.532 10.1502 201.961 10.5812C201.389 10.8685 200.961 11.4431 200.675 12.0178C200.389 12.5924 200.103 13.4544 200.103 14.3163C200.103 15.1783 200.246 15.8966 200.675 16.4712C200.961 17.0459 201.389 17.6205 201.961 17.9078C202.532 18.1951 203.104 18.4825 203.818 18.4825C204.533 18.1951 205.247 18.0515 205.676 17.7642Z" fill="black"/>
<path d="M213.963 19.2008C213.106 18.6261 212.535 18.0515 211.963 17.0459C211.534 16.1839 211.249 15.1783 211.249 14.029C211.249 13.0234 211.534 12.0178 211.963 11.0121C212.392 10.1502 213.106 9.43187 213.82 8.85723C214.678 8.28259 215.535 7.99527 216.678 7.99527C217.678 7.99527 218.679 8.28259 219.536 8.71357C220.393 9.14455 220.965 9.86285 221.393 10.7248C221.822 11.5868 222.108 12.5924 222.108 13.7417C222.108 13.8853 222.108 14.1727 222.108 14.1727H213.392C213.392 15.0346 213.678 15.7529 213.963 16.3276C214.392 16.9022 214.821 17.3332 215.392 17.6205C215.964 17.9078 216.535 18.0515 217.107 18.0515C218.536 18.0515 219.536 17.3332 220.393 16.0402L222.108 16.9022C221.679 17.7642 220.965 18.4825 220.107 19.0571C219.25 19.6317 218.25 19.9191 217.107 19.9191C215.678 19.9191 214.678 19.7754 213.963 19.2008ZM219.965 12.8797C219.965 12.4487 219.822 12.0178 219.536 11.5868C219.25 11.1558 218.964 10.7248 218.393 10.4375C217.964 10.1502 217.25 10.0065 216.535 10.0065C215.678 10.0065 214.964 10.2938 214.392 10.8685C213.82 11.4431 213.392 12.1614 213.249 13.0234H219.965V12.8797Z" fill="black"/>
<path d="M223.822 8.42624H225.68V10.2938H225.822C225.965 9.71918 226.394 9.14454 227.108 8.71356C227.823 8.28258 228.394 8.13892 228.966 8.13892C229.395 8.13892 229.823 8.28258 230.252 8.42624V10.4375C229.823 10.1502 229.395 10.1502 228.68 10.1502C228.109 10.1502 227.68 10.2938 227.251 10.5811C226.823 10.8685 226.394 11.2994 226.108 11.8741C225.822 12.4487 225.68 12.8797 225.68 13.598V19.7754H223.822V8.42624Z" fill="black"/>
<path d="M239.968 18.9134C238.682 18.1951 237.682 17.1895 236.968 15.8966C236.253 14.6036 235.825 13.167 235.825 11.5868C235.825 10.0065 236.253 8.56989 236.968 7.27695C237.682 5.98401 238.682 4.97839 239.968 4.26009C241.254 3.54179 242.683 3.11081 244.112 3.11081C245.255 3.11081 246.398 3.25447 247.398 3.68545C248.399 4.11643 249.256 4.69107 249.97 5.40937L248.542 6.84597C247.97 6.27133 247.398 5.69669 246.541 5.40937C245.684 5.12205 244.826 4.83473 243.969 4.83473C242.826 4.83473 241.826 5.12205 240.826 5.69669C239.826 6.27133 239.111 6.98963 238.54 7.99525C237.968 9.00087 237.682 10.1502 237.682 11.4431C237.682 12.736 237.968 13.8853 238.54 14.8909C239.111 15.8966 239.968 16.6149 240.826 17.1895C241.826 17.7641 242.826 18.0515 243.969 18.0515C244.969 18.0515 245.97 17.9078 246.684 17.4768C247.398 17.1895 247.97 16.7585 248.542 16.1839C248.97 15.7529 249.256 15.3219 249.542 14.6036C249.827 14.029 249.97 13.3107 249.97 12.5924H244.112V11.0121H251.828C251.971 11.4431 251.971 11.8741 251.971 12.1614C251.971 13.167 251.828 14.1726 251.542 15.0346C251.256 15.8966 250.685 16.7585 250.113 17.4768C248.542 19.0571 246.684 19.919 244.255 19.919C242.683 19.919 241.254 19.6317 239.968 18.9134Z" fill="black"/>
<path d="M254.114 8.42624H255.972V10.2938H256.114C256.257 9.71918 256.686 9.14454 257.4 8.71356C258.115 8.28258 258.686 8.13892 259.258 8.13892C259.687 8.13892 260.115 8.28258 260.544 8.42624V10.4375C260.115 10.1502 259.687 10.1502 258.972 10.1502C258.401 10.1502 257.972 10.2938 257.543 10.5811C257.115 10.8685 256.686 11.2994 256.4 11.8741C256.114 12.4487 255.972 12.8797 255.972 13.598V19.7754H254.114V8.42624Z" fill="black"/>
<path d="M263.544 19.2007C262.687 18.6261 261.973 17.9078 261.544 17.0458C261.115 16.1839 260.83 15.1783 260.83 14.029C260.83 12.8797 261.115 11.8741 261.544 11.0121C261.973 10.1502 262.687 9.43186 263.544 8.85722C264.402 8.28258 265.402 8.13892 266.402 8.13892C267.402 8.13892 268.403 8.42624 269.403 8.85722C270.26 9.43186 270.975 10.1502 271.403 11.0121C271.832 11.8741 272.118 12.8797 272.118 14.029C272.118 15.1783 271.832 16.1839 271.403 17.0458C270.975 17.9078 270.26 18.6261 269.403 19.2007C268.545 19.7754 267.545 19.919 266.402 19.919C265.259 19.919 264.402 19.7754 263.544 19.2007ZM268.403 17.7641C268.974 17.4768 269.403 16.9022 269.831 16.3275C270.117 15.7529 270.403 14.8909 270.403 14.1726C270.403 13.3107 270.26 12.5924 269.831 12.0177C269.546 11.4431 268.974 10.8685 268.403 10.5811C267.831 10.2938 267.259 10.0065 266.545 10.0065C265.831 10.0065 265.259 10.1502 264.688 10.5811C264.116 10.8685 263.687 11.4431 263.259 12.0177C262.973 12.5924 262.687 13.4543 262.687 14.1726C262.687 15.0346 262.83 15.7529 263.259 16.3275C263.544 16.9022 264.116 17.4768 264.688 17.7641C265.259 18.0515 265.831 18.3388 266.545 18.3388C267.117 18.1951 267.831 18.0515 268.403 17.7641Z" fill="black"/>
<path d="M274.975 18.7698C274.261 17.9078 273.975 16.9022 273.975 15.4656V8.42627H275.833V15.0346C275.833 17.0459 276.69 18.0515 278.547 18.0515C279.119 18.0515 279.691 17.9078 280.119 17.4769C280.548 17.1895 280.977 16.6149 281.262 16.1839C281.548 15.6093 281.691 15.0346 281.691 14.46V8.42627H283.548V19.4881H281.834V17.7642H281.691C281.405 18.3388 280.834 18.7698 280.262 19.2008C279.548 19.6318 278.833 19.7754 278.119 19.7754C276.69 19.9191 275.69 19.6318 274.975 18.7698Z" fill="black"/>
<path d="M285.977 8.42625H287.835V10.0065H287.978C288.263 9.43187 288.835 9.00089 289.549 8.56991C290.264 8.13893 290.978 7.99527 291.836 7.99527C292.836 7.99527 293.693 8.28259 294.408 8.71357C295.265 9.28821 295.836 10.0065 296.265 10.8685C296.694 11.7304 296.98 12.7361 296.98 13.8853C296.98 15.0346 296.694 16.0402 296.265 16.9022C295.836 17.7642 295.122 18.4825 294.408 19.0571C293.55 19.6317 292.693 19.7754 291.836 19.7754C290.978 19.7754 290.121 19.6317 289.549 19.2008C288.978 18.7698 288.406 18.3388 287.978 17.7642H287.835L287.978 19.3444V24.2289H286.12V8.42625H285.977ZM293.264 17.7642C293.836 17.4768 294.265 16.9022 294.55 16.3276C294.836 15.7529 295.122 14.891 295.122 14.1727C295.122 13.3107 294.979 12.5924 294.55 12.0178C294.265 11.4431 293.836 10.8685 293.264 10.5812C292.693 10.2938 292.121 10.0065 291.407 10.0065C290.693 10.0065 290.121 10.1502 289.549 10.5812C288.978 10.8685 288.549 11.4431 288.263 12.0178C287.978 12.5924 287.692 13.4544 287.692 14.3163C287.692 15.1783 287.835 15.8966 288.263 16.4712C288.549 17.0459 288.978 17.6205 289.549 17.9078C290.121 18.1951 290.693 18.4825 291.407 18.4825C292.121 18.1951 292.693 18.0515 293.264 17.7642Z" fill="black"/>
<path d="M299.695 19.0571C298.837 18.4825 298.266 17.7642 297.98 16.9022L299.695 16.1839C299.98 16.9022 300.409 17.4768 300.981 17.7642C301.552 18.1951 302.124 18.3388 302.695 18.3388C303.41 18.3388 303.981 18.1951 304.41 17.9078C304.838 17.6205 305.124 17.1895 305.124 16.7585C305.124 16.3276 304.981 15.8966 304.553 15.7529C304.267 15.4656 303.553 15.1783 302.695 15.0346L301.123 14.6036C300.266 14.46 299.552 14.029 298.98 13.598C298.409 13.0234 298.123 12.4487 298.123 11.5868C298.123 10.8685 298.266 10.2938 298.694 9.86285C299.123 9.43187 299.552 9.00089 300.266 8.71357C300.981 8.42625 301.695 8.28259 302.409 8.28259C303.41 8.28259 304.267 8.56991 304.981 9.00089C305.696 9.43187 306.267 10.0065 306.696 10.8685L304.981 11.5868C304.696 11.0121 304.41 10.7248 303.838 10.4375C303.41 10.1502 302.838 10.0065 302.267 10.0065C301.695 10.0065 301.123 10.1502 300.695 10.4375C300.266 10.7248 299.98 11.1558 299.98 11.5868C299.98 12.0178 300.123 12.3051 300.409 12.4487C300.695 12.7361 301.266 12.8797 301.838 13.0234L303.553 13.4544C304.696 13.7417 305.41 14.1727 305.982 14.7473C306.553 15.3219 306.839 16.0402 306.839 16.7585C306.839 17.3332 306.696 18.0515 306.267 18.4825C305.839 19.0571 305.41 19.3444 304.696 19.7754C303.981 20.0627 303.267 20.2064 302.409 20.2064C301.552 19.9191 300.552 19.6317 299.695 19.0571Z" fill="black"/>
<path d="M17.7813 15.8966L5.35028 8.71358C3.63565 7.70796 1.49236 8.42626 0.492161 10.0065C-0.508038 11.7304 0.0635063 13.7417 1.77813 14.7473L14.2092 21.9303C15.9238 22.7923 18.0671 22.2176 18.9244 20.4937C19.9246 18.9134 19.3531 16.9022 17.7813 15.8966Z" fill="black"/>
<path d="M42.3577 8.71381L29.9267 1.5308C28.212 0.525183 26.0688 1.24348 25.2115 2.9674C24.3541 4.69133 24.9257 6.70257 26.4974 7.70819L38.9285 14.8912C40.6431 15.8968 42.7864 15.3222 43.7866 13.5983C44.7868 11.8743 44.0724 9.71943 42.3577 8.71381Z" fill="black"/>
<path d="M38.3569 15.7529L32.6414 12.4487L26.4974 16.0402C24.7827 17.0458 24.2112 19.2007 25.2114 20.9246C26.2116 22.6486 28.3549 23.2232 30.0695 22.2176L40.0715 16.4712C39.3571 16.1839 38.9284 16.0402 38.3569 15.7529Z" fill="black"/>
<path d="M5.77909 7.85166L11.4945 11.1558L17.6386 7.56434C19.3532 6.55872 19.7819 4.40382 18.7817 2.6799C17.7815 1.09964 15.7811 0.524995 14.0664 1.38696L4.06445 7.13336C4.77888 7.42068 5.35043 7.56434 5.77909 7.85166Z" fill="black"/>
</svg>
