<svg width="29" height="28" viewBox="0 0 29 28" fill="none" xmlns="http://www.w3.org/2000/svg">
    <g clip-path="url(#clip0_146_7774)">
        <path d="M27.4768 4.55679C25.8098 2.60796 23.1081 1.92014 20.6363 2.49333C19.3717 2.80858 18.1933 3.4964 17.2736 4.41349C16.3539 5.33058 15.0318 7.07879 15.4916 8.42577C15.5779 8.68371 15.8365 8.74102 16.0377 8.56907C16.8425 7.90991 17.1011 6.70622 17.7622 5.90377C18.3658 5.15863 19.113 4.58545 19.9465 4.18422C21.4411 3.43908 23.3093 3.41042 24.8038 4.09824C29.2587 6.13304 28.3678 12.0941 26.1547 15.4759C25.6948 16.1924 25.1487 16.8516 24.5739 17.4821C24.6026 17.3674 24.6314 17.2815 24.6601 17.1668C24.6601 17.1095 24.6026 17.0808 24.5739 17.1382C24.4014 17.5394 24.1428 17.8833 23.8841 18.1985C23.7117 18.3705 23.5105 18.5425 23.338 18.7144C22.4758 19.4022 21.4123 19.8035 20.3489 20.1474C19.5442 20.3766 18.7107 20.6346 17.9346 20.9212C17.3598 21.1504 16.4401 21.4084 16.2102 22.0102C16.1814 22.1249 16.2677 22.2395 16.3826 22.2395C16.6988 22.2395 16.9574 22.0675 17.2449 21.8956C17.6472 21.695 18.0784 21.523 18.5095 21.3511C19.4005 21.0071 20.3202 20.7492 21.2112 20.3766C21.2686 20.348 21.2974 20.348 21.3261 20.3193C19.1993 21.9529 16.9287 23.4718 15.0318 25.3633C15.0318 25.1627 15.0318 24.9335 14.9743 24.7328C14.8881 24.4749 14.5719 24.5036 14.4857 24.7328C14.3132 25.22 14.1121 25.7359 13.9683 26.2518C13.566 25.5353 13.1348 24.8475 12.7037 24.131C12.1576 23.2139 11.4966 22.3541 10.8068 21.5517C11.0942 21.609 11.4104 21.6376 11.6978 21.609C11.7553 21.609 11.7553 21.4944 11.6978 21.4944C11.3241 21.4084 10.9505 21.3797 10.6056 21.2937C10.4619 21.1504 10.3469 20.9785 10.2032 20.8352C9.4847 20.0041 8.73742 19.173 8.01889 18.3418C8.07637 18.3418 8.10511 18.3418 8.1626 18.3418C8.96735 18.2559 9.77211 18.4278 10.5769 18.3705C10.6918 18.3705 10.6918 18.2272 10.6056 18.1985C9.85834 17.912 8.90987 18.0266 8.13386 18.1412C8.04763 18.1412 7.96141 18.1699 7.87518 18.1985C7.07043 17.2528 6.26567 16.307 5.51839 15.3326C5.57588 15.3613 5.63336 15.3899 5.69084 15.4186C6.46686 15.7625 7.09917 16.2784 7.78896 16.7369C7.84644 16.7943 7.96141 16.6796 7.90392 16.6223C7.44406 15.9918 6.61057 15.6479 5.94951 15.3613C5.74833 15.2753 5.54714 15.1893 5.31721 15.1034C5.08728 14.7881 4.8286 14.4729 4.62741 14.1576C4.28252 13.6704 3.93762 13.1545 3.59273 12.61C4.28252 12.8106 4.97231 12.9253 5.63336 12.8966C5.74833 12.8966 5.74833 12.7246 5.63336 12.7246C4.88609 12.6387 4.13881 12.524 3.42028 12.3521C2.75923 11.263 2.21314 10.0593 1.92573 8.827C2.32811 9.05628 2.70174 9.28555 3.07538 9.54348C3.67895 9.94471 4.34 10.4892 5.05853 10.7185C5.1735 10.7472 5.25972 10.6039 5.1735 10.5179C4.65616 10.002 3.88014 9.62946 3.24783 9.25689C2.81671 8.99896 2.35685 8.79834 1.89699 8.59773C1.78202 8.11052 1.72454 7.62332 1.72454 7.10745C1.98321 7.76661 2.5293 8.25382 3.42028 8.45443C3.5065 8.48309 3.56398 8.3398 3.44902 8.31114C2.64426 7.99589 1.98321 7.566 1.72454 6.70622C1.86825 4.52813 3.42028 2.69394 5.46091 1.97746C7.30036 1.3183 9.39847 1.69087 10.8643 2.98053C11.8415 3.84031 12.6175 4.9007 13.2786 6.0184C13.9109 7.02147 14.5432 7.99589 15.0893 9.05628C15.2042 9.28555 15.5204 9.11359 15.4629 8.88432C14.7156 6.07572 13.4797 3.29578 11.2379 1.37562C9.31225 -0.286611 6.35189 -0.229293 4.13881 0.745119C1.8395 1.69087 0.344956 3.89763 0.0575428 6.33366C-0.258612 8.94164 1.06349 11.6643 2.44307 13.785C3.56398 15.5332 4.91483 17.1382 6.29441 18.6858C6.26567 18.7144 6.20819 18.7431 6.17945 18.7717C6.1507 18.8004 6.17945 18.8291 6.20819 18.8004C6.26567 18.7717 6.29441 18.7431 6.35189 18.7431C7.07043 19.5455 7.78896 20.3193 8.47875 21.0931C9.4847 22.2108 10.4044 23.4718 11.4966 24.5036C12.5025 25.4493 13.2211 26.567 13.8246 27.7994C13.9971 28.2006 14.6007 27.9713 14.6007 27.5988C14.6294 27.0256 14.8593 26.481 14.9743 25.9365C18.5095 22.8987 22.8207 20.8065 25.896 17.3101C27.563 15.4186 28.5977 13.1832 28.9426 10.6898C29.1725 8.62639 28.8564 6.1617 27.4768 4.55679Z" fill="white"/>
        <path d="M22.3608 4.47084C21.9297 5.47391 21.2687 6.27637 20.4352 6.99285C20.004 7.36542 19.5442 7.68067 19.0556 7.99592C18.6532 8.25385 18.1071 8.4258 17.8772 8.85569C17.8197 8.97033 17.9059 9.08497 18.0209 9.08497C18.5095 9.08497 18.9406 8.68374 19.3142 8.4258C19.8316 8.08189 20.2915 7.73798 20.7513 7.33676C21.5848 6.59162 22.2746 5.67452 22.4758 4.55682C22.5045 4.44218 22.3896 4.38486 22.3608 4.47084Z" fill="white"/>
        <path d="M23.9991 5.58863C23.7979 6.70634 23.2806 7.65209 22.4471 8.39723C22.016 8.79845 21.5274 9.14236 21.0675 9.48627C20.6939 9.74421 20.0615 10.0021 19.9753 10.4893C19.9466 10.6326 20.0041 10.8046 20.1765 10.8333C20.7226 10.9192 21.2112 10.4034 21.6136 10.0881C22.1309 9.71555 22.6483 9.31432 23.1081 8.82711C23.9416 7.91002 24.3727 6.84963 24.2003 5.61729C24.1428 5.50265 23.9991 5.50265 23.9991 5.58863Z" fill="white"/>
        <path d="M26.1547 6.64886C25.8673 8.22511 24.9763 9.65807 23.9129 10.8618C23.3956 11.4063 22.8207 11.9221 22.2459 12.3807C21.7286 12.7819 20.9238 13.1545 20.6077 13.7563C20.5502 13.871 20.6364 14.0143 20.7514 14.0143C21.4412 14.0429 22.1309 13.4411 22.6483 13.0399C23.3381 12.4953 23.9704 11.8648 24.5165 11.2057C25.5799 9.916 26.3272 8.39707 26.3847 6.70618C26.4134 6.56288 26.1835 6.53422 26.1547 6.64886Z" fill="white"/>
        <path d="M20.7513 16.0778C20.5214 16.2211 20.2627 16.3931 20.2052 16.6797C20.2052 16.737 20.1765 16.6797 20.119 16.8516C20.0903 16.9376 20.0615 17.0523 20.0903 17.1382C20.0903 17.2529 20.2915 17.3102 20.3202 17.1669C20.3489 17.0523 20.4064 16.9949 20.4639 16.909C20.5214 16.909 20.5789 16.909 20.6364 16.8803C20.895 16.7083 21.1537 16.5364 21.4411 16.3931C22.2459 15.9632 23.1081 15.5906 23.9416 15.1608C25.5799 14.301 27.2181 13.0686 27.4193 11.0912C27.4193 11.0338 27.3331 11.0052 27.3043 11.0625C26.8445 13.0973 24.7464 14.1863 22.9931 14.9888C22.2746 15.3614 21.4699 15.6766 20.7513 16.0778Z" fill="white"/>
    </g>
    <defs>
        <clipPath id="clip0_146_7774">
            <rect width="29" height="28" fill="white"/>
        </clipPath>
    </defs>
</svg>
