<svg width="149" height="113" viewBox="0 0 149 113" fill="none" xmlns="http://www.w3.org/2000/svg">
    <g clip-path="url(#clip0_199_22)">
        <path
            d="M128.7 102.5C128.2 100.1 127.2 97.8 125.8 95.8C123.3 92.2 119.7 89.9 115.7 88.2C111.8 86.6 107.6 85.7 103.5 84.5C99.8 83.4 96 82.1 93.2 79.4C90.9 77.2 89.9 74.4 89.2 71.4C89.8 71 90.3 70.5 90.8 70C94.9 65.8 96.9 60 98.8 54.6C101.1 48.3 102.8 41.7 103.5 35C104.2 28.6 103.7 22 101.1 16.1C98.3 9.9 92.7 5.2 86.5 2.5C74 -3 58.5 0.699999 51.7 13.1C51.2 14.1 50.7 15.1 50.3 16.2C50.3 15.7 50.3 15.2 50.3 14.7C50.3 14.6 50.1 14.6 50.1 14.7C49.9 15.8 49.8 16.8 49.8 17.9C48.5 22.2 48.3 26.8 48.6 31.3C49 37.7 50.5 44 52.9 50C55.3 56 58.5 61.6 62.9 66.3C63.8 67.3 64.8 68.2 65.8 69C65.2 70.1 64.8 71.3 64.4 72.5C63.8 74.7 63.6 76.9 63.1 79.1C62.6 81 61.9 82.8 60.3 84C57.8 85.8 54.7 86.3 51.7 86.5C47.9 86.8 44.2 86.3 40.5 85.7C36.9 85.1 33.2 84.4 29.6 84.8C26.2 85.2 22.7 86.8 20.8 89.8C19.2 92.4 18.9 95.9 18.8 98.9C18.7 102.8 19 107.5 21 111C21.7 112.2 23.1 111.8 23.6 111C26.9 111.3 30.5 110.3 33.5 110.1C38.1 109.7 42.6 108.8 47.2 108.3C56.6 107.3 66 106.4 75.5 106.2C84.3 106 93.1 106.8 101.8 108C106.1 108.6 110.3 109.4 114.5 110.1C116.6 110.5 118.7 110.9 120.8 111.2C122.8 111.6 125.1 112.5 126.9 111.5C127 111.7 127 111.9 127.1 112.1C127.5 113 128.6 113 129 112.1C130.1 109.1 129.3 105.3 128.7 102.5ZM124.3 99.2C125.2 100.9 125.7 102.8 126.1 104.6C126.3 105.7 126.4 106.8 126.4 107.8C125.8 105.6 125.1 103.4 124.3 101.2C123.7 99.3 122.9 97.5 121.8 95.9C119 92.1 113.9 90.8 109.5 89.7C107.1 89.1 104.6 88.7 102.2 87.9C99.5 87.1 97 86 94.5 84.7C91.5 83.1 85.1 79.7 87.1 75.5C87.5 76.5 87.9 77.5 88.4 78.4C89.4 80.1 91.1 81.9 93 82.3C95.9 84.8 99.5 86.2 103.2 87.3C111 89.7 120.2 91.2 124.3 99.2ZM91.1 80.3C91 80.3 91 80.2 90.9 80.2C89.9 79.4 89.3 78.3 88.6 77.2C88.2 76.5 87.8 75.7 87.4 74.9C87.6 74.5 87.6 74.1 87.8 73.6C87.9 73.2 87.7 72.9 87.5 72.7C87.7 72.6 87.8 72.5 88 72.4C88.2 75.2 89.3 78 91.1 80.3ZM52 22.7C52.4 27.8 54.8 32.8 57.5 37C57.5 37.7 57.5 38.3 57.5 39C57.5 39.2 57.7 39.2 57.7 39C58 30.8 58.3 22.6 60.6 14.9C58.3 21.8 57.4 29 57.4 36.4C54.9 31.9 52.6 27 52.2 21.7C52.2 21.4 52.2 21 52.2 20.7C52.2 20.6 52.2 20.5 52.2 20.4C52.9 16.7 54.6 13.4 57 10.7C57.3 10.4 57.6 10.2 58 9.9C57.7 10.1 57.4 10.3 57.1 10.5C59 8.4 61.3 6.6 63.8 5.3C64.2 5.1 64.6 4.9 65 4.7C63 7.9 61.6 11.3 60.6 14.7C61.7 11.2 63.2 7.9 65 4.7C77.1 -0.600002 93.2 5.7 98.4 17.9C103.6 30.2 98.9 44.4 94.7 56.3C92.3 63.2 86.9 74.3 77.9 70.2C76.5 69.6 75.2 68.8 74.1 67.8C74.4 67.8 74.7 67.7 74.9 67.7C74.6 67.7 74.3 67.8 74.1 67.8C72 66.2 70.2 64.1 68.6 62.1C65.3 58 62.6 53.4 60.2 48.8C57.1 42.9 54.7 36.7 52.9 30.3C52.5 29 52.2 27.6 51.8 26.2C51.8 25.2 51.9 24 52 22.7ZM63 60.4C58.7 54.7 55.8 48 54 41.1C53.6 39.5 53.2 37.9 52.9 36.3C53.5 38.4 54.3 40.5 55 42.6C58 50.6 61.9 58.8 67.6 65.4C65.9 63.9 64.4 62.2 63 60.4ZM69.7 71.8C72.3 73.4 75.1 73.8 78.1 74.1C78.5 74.1 78.7 73.9 78.8 73.7C79.5 73.9 80.2 74.1 81 74.2C82.3 74.4 83.6 74.2 84.8 73.9C83.9 75 83.5 76.6 83.8 78.2C84.2 80.5 85.8 82.3 87.5 83.7C91.7 87.2 97.2 89.4 102.4 90.8C104.9 91.5 107.5 91.9 110.1 92.4C113.2 94.7 115 98.2 115.7 102.3C115.8 102.6 116.2 102.5 116.2 102.2C115.4 97.9 113.4 94.7 110.3 92.5C112.9 93 115.4 93.7 117.8 94.9C121.7 96.9 123 101.2 124.4 105C124.8 106 125.1 107 125.5 107.9C124.6 107.6 123.7 107.5 122.7 107.4C121.9 107.3 121.1 107.1 120.4 107C120.4 102.1 117.6 97.6 114.2 94.2C114.2 94.2 114.1 94.2 114.1 94.3C115.9 96.3 117.5 98.4 118.6 100.9C119.4 102.8 119.6 104.9 119.8 106.9C118.5 106.7 117.2 106.4 115.9 106.2C111.7 105.4 107.4 104.6 103.2 104C94.4 102.6 85.4 101.9 76.5 102.1C69.6 102.2 62.6 102.8 55.7 103.6C50.4 103.8 45.1 104.1 39.8 104.9C36.8 105.3 33.9 106.1 30.9 106.8C30.5 103 31.8 99.6 34 96.5C34.1 96.4 33.9 96.3 33.9 96.4C31.6 99.6 30.2 103.1 30.5 106.9C30.3 106.9 30.1 107 29.8 107C28.6 107.3 27.2 107.6 25.9 107.8C24.3 103.3 25.1 98.9 27.1 94.9C27.9 94 28.8 93.2 29.9 92.4V92.3C29 92.9 28.1 93.7 27.4 94.4C28.1 93 29 91.6 30 90.3C30.1 90.2 29.9 90.1 29.9 90.2C28.7 91.7 27.5 93.4 26.6 95.3C24.5 97.7 23.3 100.7 22.5 103.8C22.4 102.8 22.4 101.9 22.3 101C22.3 100.5 22.3 100 22.3 99.4C22.8 96.9 23.6 94.5 25.1 92.6C27.9 88.9 33.2 88.8 37.5 88.8C38.7 88.8 40.1 88.9 41.5 89C42.3 89.1 43.2 89.3 44 89.4C46.4 89.7 48.8 89.8 51.2 89.6C58.5 89.6 65.5 88.1 67.7 80.6C68.1 79.3 68.2 77.9 68.3 76.6C68.4 74.8 68.3 73.3 67.4 71.7C67.2 71.3 66.5 71.3 66.3 71.7C66.5 71 66.6 70.3 66.9 69.6C67.4 70.3 68.6 71.1 69.7 71.8ZM22.3 104.7C22.9 101.5 24 98.4 26 95.8C24.2 99.6 23.4 103.8 25.2 107.7C24.5 107.8 23.8 107.9 23.1 107.9C22.6 106.9 22.4 105.8 22.3 104.7ZM64.5 81.1C65 78.7 65.1 76.1 65.4 73.8C65.2 76.2 65.5 78.7 64.5 81.1ZM25.2 89.6C24.7 90 24.3 90.4 23.9 90.8C24.3 90.3 24.7 89.9 25.2 89.6ZM23.5 109.1C23.4 109 23.4 108.9 23.3 108.8C23.8 108.8 24.4 108.8 24.9 108.8C24.5 108.9 24 109 23.5 109.1Z"
            fill="white" />
        <path
            d="M58.0999 9.99998C58.7999 9.49998 59.5999 8.99998 60.4999 8.59998C59.6999 8.99998 58.8999 9.49998 58.0999 9.99998Z"
            fill="white" />
        <path
            d="M95.9999 49.2C96.1999 48.9 95.7999 48.7 95.5999 49C90.3999 55.8 86.3999 64.4 78.0999 67.3C81.2999 66.3 84.0999 64.6 86.5999 62C90.2999 58.2 92.8999 53.4 95.9999 49.2Z"
            fill="white" />
        <path
            d="M148.4 69.1C148.2 68.1 147.7 67 147.1 66.1C146 64.5 144.4 63.5 142.6 62.8C140.9 62.1 139 61.7 137.2 61.2C135.6 60.7 133.9 60.1 132.7 58.9C131.7 57.9 131.3 56.7 130.9 55.4C131.1 55.2 131.4 55 131.6 54.8C133.4 52.9 134.3 50.4 135.1 48C136.1 45.2 136.9 42.3 137.2 39.4C137.5 36.6 137.3 33.7 136.1 31.1C134.9 28.3 132.4 26.2 129.7 25C124.2 22.6 117.4 24.2 114.4 29.7C114.2 30.1 114 30.6 113.8 31.1C113.8 30.9 113.8 30.7 113.8 30.4C113.8 30.4 113.7 30.3 113.7 30.4C113.6 30.9 113.6 31.3 113.5 31.8C112.9 33.7 112.8 35.7 113 37.7C113.2 40.5 113.9 43.3 114.9 45.9C115.9 48.5 117.4 51 119.3 53.1C119.7 53.5 120.1 53.9 120.6 54.3C120.3 54.8 120.1 55.3 120 55.8C119.7 56.8 119.6 57.7 119.4 58.7C119.2 59.5 118.9 60.3 118.2 60.9C117.1 61.7 115.7 61.9 114.4 62C112.7 62.1 111.1 61.9 109.5 61.6C107.9 61.3 106.3 61 104.7 61.2C103.2 61.4 101.7 62.1 100.8 63.4C100.1 64.5 99.9999 66.1 99.8999 67.4C99.8999 69.1 99.9999 71.2 100.9 72.7C101.2 73.2 101.8 73.1 102.1 72.7C103.5 72.8 105.1 72.4 106.5 72.3C108.5 72.1 110.5 71.7 112.5 71.5C116.6 71 120.8 70.7 125 70.6C128.9 70.5 132.7 70.8 136.6 71.4C138.5 71.7 140.3 72 142.2 72.3C143.1 72.5 144 72.6 145 72.8C145.9 73 146.9 73.4 147.7 72.9C147.7 73 147.8 73.1 147.8 73.2C148 73.6 148.5 73.6 148.6 73.2C149 72 148.7 70.4 148.4 69.1ZM146.5 67.7C146.9 68.4 147.1 69.3 147.3 70.1C147.4 70.6 147.4 71 147.5 71.5C147.2 70.5 146.9 69.6 146.6 68.6C146.3 67.8 146 67 145.5 66.3C144.3 64.6 142 64.1 140.1 63.6C139 63.3 137.9 63.1 136.9 62.8C135.7 62.4 134.6 61.9 133.5 61.4C132.2 60.7 129.4 59.2 130.2 57.4C130.4 57.8 130.5 58.3 130.8 58.7C131.2 59.4 132 60.2 132.8 60.4C134.1 61.5 135.7 62.1 137.3 62.6C140.6 63.5 144.7 64.2 146.5 67.7ZM131.8 59.4C131.8 59.3 131.8 59.3 131.8 59.4C131.3 59 131 58.5 130.7 58C130.5 57.7 130.4 57.3 130.2 57C130.3 56.8 130.3 56.6 130.4 56.4C130.4 56.2 130.4 56.1 130.3 56C130.4 56 130.5 55.9 130.5 55.9C130.6 57.1 131.1 58.4 131.8 59.4ZM114.7 34C114.9 36.2 115.9 38.4 117.1 40.3C117.1 40.6 117.1 40.9 117.1 41.2C117.1 41.3 117.2 41.3 117.2 41.2C117.3 37.6 117.5 34 118.5 30.6C117.5 33.6 117.1 36.8 117.1 40.1C116 38.1 115 35.9 114.8 33.6C114.8 33.4 114.8 33.3 114.8 33.2V33.1C115.1 31.5 115.9 30 116.9 28.8C117.7 27.9 118.7 27.1 119.9 26.5C120.1 26.4 120.2 26.3 120.4 26.3C119.5 27.7 118.9 29.2 118.5 30.7C119 29.2 119.6 27.7 120.5 26.3C125.8 24 132.9 26.7 135.2 32.1C137.5 37.5 135.4 43.8 133.6 49C132.5 52 130.2 56.9 126.2 55.1C125.6 54.8 125 54.5 124.5 54.1C124.6 54.1 124.7 54.1 124.9 54C124.8 54 124.7 54 124.5 54C123.6 53.3 122.8 52.4 122.1 51.5C120.6 49.7 119.5 47.7 118.4 45.6C117.1 43 116 40.3 115.2 37.5C115 36.9 114.9 36.3 114.7 35.7C114.6 35.1 114.6 34.6 114.7 34ZM119.5 50.6C117.6 48.1 116.3 45.1 115.5 42.1C115.3 41.4 115.1 40.7 115 40C115.3 40.9 115.6 41.9 115.9 42.8C117.2 46.3 118.9 50 121.4 52.9C120.8 52.1 120.1 51.4 119.5 50.6ZM122.5 55.6C123.7 56.3 124.9 56.5 126.2 56.6C126.4 56.6 126.5 56.5 126.5 56.4C126.8 56.5 127.1 56.6 127.5 56.6C128.1 56.7 128.6 56.6 129.2 56.5C128.8 57 128.6 57.7 128.8 58.4C129 59.4 129.7 60.2 130.4 60.8C132.2 62.3 134.7 63.3 137 63.9C138.1 64.2 139.2 64.4 140.4 64.6C141.7 65.6 142.6 67.1 142.9 68.9C142.9 69 143.1 69 143.1 68.8C142.7 66.9 141.9 65.5 140.5 64.5C141.6 64.7 142.8 65 143.8 65.6C145.5 66.5 146.1 68.4 146.7 70.1C146.9 70.5 147 71 147.2 71.4C146.8 71.3 146.4 71.2 146 71.2C145.7 71.1 145.3 71.1 145 71C145 68.8 143.8 66.9 142.3 65.4C143.1 66.3 143.8 67.2 144.3 68.3C144.7 69.2 144.7 70 144.8 71C144.2 70.9 143.7 70.8 143.1 70.7C141.2 70.3 139.4 70 137.5 69.7C133.6 69.1 129.7 68.8 125.7 68.9C122.6 69 119.6 69.2 116.5 69.5C114.2 69.6 111.8 69.7 109.5 70.1C108.2 70.3 106.9 70.6 105.6 70.9C105.4 69.2 106 67.7 107 66.3C107 66.3 107 66.2 106.9 66.3C105.9 67.7 105.3 69.2 105.4 70.9C105.3 70.9 105.2 70.9 105.1 71C104.6 71.1 104 71.3 103.4 71.4C102.7 69.4 103.1 67.5 103.9 65.7C104.3 65.3 104.7 64.9 105.1 64.6C104.7 64.9 104.3 65.2 104 65.5C104.3 64.9 104.7 64.3 105.2 63.7C105.2 63.7 105.2 63.6 105.1 63.7C104.6 64.4 104 65.1 103.6 65.9C102.7 67 102.1 68.3 101.8 69.6C101.8 69.2 101.7 68.8 101.7 68.4C101.7 68.2 101.7 67.9 101.7 67.7C101.9 66.6 102.3 65.6 102.9 64.7C104.2 63.1 106.5 63 108.3 63C108.8 63 109.4 63 110.1 63.1C110.5 63.2 110.8 63.2 111.2 63.3C112.3 63.4 113.3 63.5 114.4 63.4C117.6 63.4 120.7 62.7 121.7 59.4C121.9 58.8 121.9 58.2 121.9 57.6C121.9 56.8 121.9 56.1 121.5 55.4C121.4 55.2 121.1 55.2 121 55.4C121.1 55.1 121.2 54.8 121.3 54.5C121.5 55 121.9 55.3 122.5 55.6ZM101.6 70.1C101.9 68.7 102.4 67.3 103.2 66.2C102.4 67.9 102.1 69.7 102.9 71.4C102.6 71.4 102.3 71.5 102 71.5C101.7 71.1 101.6 70.6 101.6 70.1ZM120.2 59.7C120.4 58.6 120.4 57.5 120.6 56.5C120.5 57.5 120.6 58.6 120.2 59.7ZM102.9 63.4C102.7 63.6 102.5 63.7 102.3 63.9C102.5 63.8 102.6 63.6 102.9 63.4ZM102.1 72.1C102.1 72.1 102.1 72 102 72C102.2 72 102.5 72 102.7 72C102.5 72 102.3 72 102.1 72.1Z"
            fill="white" />
        <path d="M117.3 28.4C117.6 28.2 118 28 118.4 27.8C118 28 117.7 28.2 117.3 28.4Z"
            fill="white" />
        <path
            d="M134 45.7C134.1 45.6 133.9 45.5 133.8 45.6C131.5 48.6 129.7 52.4 126.1 53.6C127.5 53.2 128.7 52.4 129.8 51.3C131.5 49.6 132.7 47.5 134 45.7Z"
            fill="white" />
        <path
            d="M48.3999 69.1C48.1999 68.1 47.6999 67 47.0999 66.1C45.9999 64.5 44.3999 63.5 42.5999 62.8C40.8999 62.1 38.9999 61.7 37.1999 61.2C35.5999 60.7 33.8999 60.1 32.6999 58.9C31.6999 57.9 31.2999 56.7 30.8999 55.4C31.0999 55.2 31.3999 55 31.5999 54.8C33.3999 52.9 34.2999 50.4 35.0999 48C36.0999 45.2 36.8999 42.3 37.1999 39.4C37.4999 36.6 37.2999 33.7 36.0999 31.1C34.8999 28.3 32.3999 26.2 29.6999 25C24.1999 22.6 17.3999 24.2 14.3999 29.7C14.1999 30.1 13.9999 30.6 13.7999 31.1C13.7999 30.9 13.7999 30.7 13.7999 30.4C13.7999 30.4 13.6999 30.3 13.6999 30.4C13.5999 30.9 13.5999 31.3 13.4999 31.8C12.8999 33.7 12.7999 35.7 12.9999 37.7C13.1999 40.5 13.8999 43.3 14.8999 45.9C15.8999 48.5 17.3999 51 19.2999 53.1C19.6999 53.5 20.0999 53.9 20.5999 54.3C20.2999 54.8 20.0999 55.3 19.9999 55.8C19.6999 56.8 19.5999 57.7 19.3999 58.7C19.1999 59.5 18.8999 60.3 18.1999 60.9C17.0999 61.7 15.6999 61.9 14.3999 62C12.6999 62.1 11.0999 61.9 9.4999 61.6C7.8999 61.3 6.2999 61 4.6999 61.2C3.1999 61.4 1.6999 62.1 0.799902 63.4C0.0999024 64.5 -9.76548e-05 66.1 -0.100098 67.4C-0.100098 69.1 -9.76324e-05 71.2 0.899902 72.7C1.1999 73.2 1.7999 73.1 2.0999 72.7C3.4999 72.8 5.0999 72.4 6.4999 72.3C8.4999 72.1 10.4999 71.7 12.4999 71.5C16.5999 71 20.7999 70.7 24.9999 70.6C28.8999 70.5 32.6999 70.8 36.5999 71.4C38.4999 71.7 40.2999 72 42.1999 72.3C43.0999 72.5 43.9999 72.6 44.9999 72.8C45.8999 73 46.8999 73.4 47.6999 72.9C47.6999 73 47.7999 73.1 47.7999 73.2C47.9999 73.6 48.4999 73.6 48.5999 73.2C48.9999 72 48.6999 70.4 48.3999 69.1ZM46.4999 67.7C46.8999 68.4 47.0999 69.3 47.2999 70.1C47.3999 70.6 47.3999 71 47.4999 71.5C47.1999 70.5 46.8999 69.6 46.5999 68.6C46.2999 67.8 45.9999 67 45.4999 66.3C44.2999 64.6 41.9999 64.1 40.0999 63.6C38.9999 63.3 37.8999 63.1 36.8999 62.8C35.6999 62.4 34.5999 61.9 33.4999 61.4C32.1999 60.7 29.3999 59.2 30.1999 57.4C30.3999 57.8 30.4999 58.3 30.7999 58.7C31.1999 59.4 31.9999 60.2 32.7999 60.4C34.0999 61.5 35.6999 62.1 37.2999 62.6C40.5999 63.5 44.6999 64.2 46.4999 67.7ZM31.7999 59.4C31.7999 59.3 31.7999 59.3 31.7999 59.4C31.2999 59 30.9999 58.5 30.6999 58C30.4999 57.7 30.3999 57.3 30.1999 57C30.2999 56.8 30.2999 56.6 30.3999 56.4C30.3999 56.2 30.3999 56.1 30.2999 56C30.3999 56 30.4999 55.9 30.4999 55.9C30.5999 57.1 31.0999 58.4 31.7999 59.4ZM14.6999 34C14.8999 36.2 15.8999 38.4 17.0999 40.3C17.0999 40.6 17.0999 40.9 17.0999 41.2C17.0999 41.3 17.1999 41.3 17.1999 41.2C17.2999 37.6 17.4999 34 18.4999 30.6C17.4999 33.6 17.0999 36.8 17.0999 40.1C15.9999 38.1 14.9999 35.9 14.7999 33.6C14.7999 33.4 14.7999 33.3 14.7999 33.2V33.1C15.0999 31.5 15.8999 30 16.8999 28.8C17.6999 27.9 18.6999 27.1 19.8999 26.5C20.0999 26.4 20.1999 26.3 20.3999 26.3C19.4999 27.7 18.8999 29.2 18.4999 30.7C18.9999 29.2 19.5999 27.7 20.4999 26.3C25.7999 24 32.8999 26.7 35.1999 32.1C37.4999 37.5 35.3999 43.8 33.5999 49C32.4999 52 30.1999 56.9 26.1999 55.1C25.5999 54.8 24.9999 54.5 24.4999 54.1C24.5999 54.1 24.6999 54.1 24.8999 54C24.7999 54 24.6999 54 24.4999 54C23.5999 53.3 22.7999 52.4 22.0999 51.5C20.5999 49.7 19.4999 47.7 18.3999 45.6C17.0999 43 15.9999 40.3 15.1999 37.5C14.9999 36.9 14.8999 36.3 14.6999 35.7C14.5999 35.1 14.5999 34.6 14.6999 34ZM19.4999 50.6C17.5999 48.1 16.2999 45.1 15.4999 42.1C15.2999 41.4 15.0999 40.7 14.9999 40C15.2999 40.9 15.5999 41.9 15.8999 42.8C17.1999 46.3 18.8999 50 21.3999 52.9C20.7999 52.1 20.0999 51.4 19.4999 50.6ZM22.3999 55.6C23.5999 56.3 24.7999 56.5 26.0999 56.6C26.2999 56.6 26.3999 56.5 26.3999 56.4C26.6999 56.5 26.9999 56.6 27.3999 56.6C27.9999 56.7 28.4999 56.6 29.0999 56.5C28.6999 57 28.4999 57.7 28.6999 58.4C28.8999 59.4 29.5999 60.2 30.2999 60.8C32.0999 62.3 34.5999 63.3 36.8999 63.9C37.9999 64.2 39.0999 64.4 40.2999 64.6C41.5999 65.6 42.4999 67.1 42.7999 68.9C42.7999 69 42.9999 69 42.9999 68.8C42.5999 66.9 41.7999 65.5 40.3999 64.5C41.4999 64.7 42.6999 65 43.6999 65.6C45.3999 66.5 45.9999 68.4 46.5999 70.1C46.7999 70.5 46.8999 71 47.0999 71.4C46.6999 71.3 46.2999 71.2 45.8999 71.2C45.5999 71.1 45.1999 71.1 44.8999 71C44.8999 68.8 43.6999 66.9 42.1999 65.4C42.9999 66.3 43.6999 67.2 44.1999 68.3C44.5999 69.2 44.5999 70 44.6999 71C44.0999 70.9 43.5999 70.8 42.9999 70.7C41.0999 70.3 39.2999 70 37.3999 69.7C33.4999 69.1 29.5999 68.8 25.5999 68.9C22.4999 69 19.4999 69.2 16.3999 69.5C14.0999 69.6 11.6999 69.7 9.3999 70.1C8.0999 70.3 6.7999 70.6 5.4999 70.9C5.2999 69.2 5.8999 67.7 6.8999 66.3C6.8999 66.3 6.8999 66.2 6.7999 66.3C5.7999 67.7 5.1999 69.2 5.2999 70.9C5.1999 70.9 5.0999 70.9 4.9999 71C4.4999 71.1 3.8999 71.3 3.2999 71.4C2.5999 69.4 2.9999 67.5 3.7999 65.7C4.1999 65.3 4.5999 64.9 4.9999 64.6C4.5999 64.9 4.1999 65.2 3.8999 65.5C4.1999 64.9 4.5999 64.3 5.0999 63.7C5.0999 63.7 5.0999 63.6 4.9999 63.7C4.4999 64.4 3.8999 65.1 3.4999 65.9C2.5999 67 1.9999 68.3 1.6999 69.6C1.6999 69.2 1.5999 68.8 1.5999 68.4C1.5999 68.2 1.5999 67.9 1.5999 67.7C1.7999 66.6 2.1999 65.6 2.7999 64.7C4.0999 63.1 6.3999 63 8.1999 63C8.6999 63 9.2999 63 9.9999 63.1C10.3999 63.2 10.6999 63.2 11.0999 63.3C12.1999 63.4 13.1999 63.5 14.2999 63.4C17.4999 63.4 20.5999 62.7 21.5999 59.4C21.7999 58.8 21.7999 58.2 21.7999 57.6C21.7999 56.8 21.7999 56.1 21.3999 55.4C21.2999 55.2 20.9999 55.2 20.8999 55.4C20.9999 55.1 21.0999 54.8 21.1999 54.5C21.3999 55 21.8999 55.3 22.3999 55.6ZM1.5999 70.1C1.8999 68.7 2.3999 67.3 3.1999 66.2C2.3999 67.9 2.0999 69.7 2.8999 71.4C2.5999 71.4 2.2999 71.5 1.9999 71.5C1.6999 71.1 1.5999 70.6 1.5999 70.1ZM20.1999 59.7C20.3999 58.6 20.3999 57.5 20.5999 56.5C20.4999 57.5 20.5999 58.6 20.1999 59.7ZM2.7999 63.4C2.5999 63.6 2.3999 63.7 2.1999 63.9C2.4999 63.8 2.5999 63.6 2.7999 63.4ZM2.0999 72.1C2.0999 72.1 2.0999 72 1.9999 72C2.1999 72 2.4999 72 2.6999 72C2.4999 72 2.2999 72 2.0999 72.1Z"
            fill="white" />
        <path
            d="M17.2998 28.4C17.5998 28.2 17.9998 28 18.3998 27.8C17.9998 28 17.6998 28.2 17.2998 28.4Z"
            fill="white" />
        <path
            d="M33.9999 45.7C34.0999 45.6 33.8999 45.5 33.7999 45.6C31.4999 48.6 29.6999 52.4 26.0999 53.6C27.4999 53.2 28.6999 52.4 29.7999 51.3C31.4999 49.6 32.5999 47.5 33.9999 45.7Z"
            fill="white" />
        <path
            d="M24.7998 53.9C25.2998 53.8 25.6998 53.7 26.0998 53.6C25.6998 53.7 25.1998 53.8 24.7998 53.9Z"
            fill="white" />
    </g>
    <defs>
        <clipPath id="clip0_199_22">
            <rect width="148.8" height="112.5" fill="white" />
        </clipPath>
    </defs>
</svg>