<svg width="147" height="117" viewBox="0 0 147 117" fill="none" xmlns="http://www.w3.org/2000/svg">
    <path
        d="M132.3 27.3C129.8 23.7 127 20.3 124.2 17.2C116.8 9.09998 107.8 2.39998 96.7 0.699978C84.6 -1.20002 71.9 1.09998 60.3 4.69998C57.7 5.39998 55.2 6.09998 52.7 6.89998C41 10.7 29.1 16.7 21.4 26.5C19.2 29.3 17.5 32.4 16.3 35.7C13.3 41.3 11.7 47.6 12.6 53.7C13.7 60.6 18.5 66.3 23.7 70.7C27.2 74.6 31.5 77.7 36.3 79.3C38.7 80.6 41.1 81.9 43.5 83C27.3 91 17 107.6 0.400037 115.1C-0.599963 115.5 0.100037 117.2 1.10004 116.9C1.70004 116.7 2.40004 116.4 3.00004 116.2C4.10004 117.2 6.00004 116.9 7.30004 116.9C10.4 116.7 13.5 116 16.5 115.3C25.6 113.2 34.6 110.5 43.5 107.6C52.4 104.7 61.2 101.6 70 98.2C72.9 97.1 75.9 95.9 78.7 94.7C80.1 94.1 81.6 93.5 82.1 91.9C82.1 91.9 82.1 91.9 82.1 91.8C82.1 91.8 82.1 91.9 82 91.9C82.3 91.4 81.9 90.9 81.4 90.9C81.5 90.9 81.6 90.8 81.7 90.8C82.3 91 82.9 91.2 83.5 91.4C83.4 91.6 83.6 91.9 83.8 91.9C84.4 92 85.1 92 85.7 92C92.5 93.6 100.1 93.3 106.4 92.5C117.3 91 128.2 86.2 135.6 77.9C137.6 75.7 139.2 73.3 140.4 70.8C141 70.1 141.6 69.3 142.2 68.5C152.6 54.2 143.8 38.8 132.3 27.3ZM142.7 49.1C142.5 48.2 142.2 47.3 142 46.5C143 49.1 143.6 51.9 143.7 54.7C143.5 52.8 143.1 51 142.7 49.1ZM99 4.29998C106.7 5.99998 113.4 10.7 119.1 16.4C118.6 16.1 118.2 15.8 117.7 15.4C109.8 10.1 100.8 5.49998 91.4 3.19998C93.9 3.39998 96.5 3.69998 99 4.29998ZM69.8 95.2C61.5 98.4 53.1 101.4 44.7 104.2C41.2 105.4 37.7 106.6 34.2 107.7C48.6 102.6 62.8 96.8 77.3 92.1C74.8 93.3 72.3 94.3 69.8 95.2ZM81 91.2C81 91.1 81.1 91.1 81.1 91C81.1 91 81 91.1 81 91.2ZM5.80004 115.6C5.70004 115.6 5.60004 115.7 5.60004 115.8C5.00004 115.9 4.50004 115.9 4.10004 115.8C20 108.9 30 93 45.8 85.6C46.4 85.3 46.6 84.9 46.6 84.4C46.8 84.5 46.9 84.5 47.1 84.6C47.7 84.9 48.2 84.1 47.6 83.7C46 82.6 44.4 81.5 42.7 80.5C43.9 80.3 43.9 78.5 42.8 78.1C36.5 75.9 30.9 73.4 26.2 68.5C21.9 63.9 19.1 58 18 51.8C17 46.2 17.7 41 19.7 36.2C22 32.2 25 28.5 28.1 25.5C36 17.9 46.4 12.7 56.9 9.09998C61.2 7.89998 65.6 6.89998 70 6.19998C75.2 5.39998 80.7 4.79998 85.9 5.49998C91.3 6.29998 96.6 8.09998 101.6 10.3C112 14.8 121.7 21.2 129.8 29.2C135.8 37.8 140.8 48.1 140.8 58.4C140.8 62.5 139.7 66.3 137.8 69.7C132.5 75.7 124.5 79.8 117.6 82.7C112.1 85 106.4 86.7 100.6 88.1C97.6 88.8 94.5 89.2 91.4 89.7C90.4 89.6 89.5 89.4 88.5 89.3C87.1 89 85.8 88.7 84.5 88.3C84.4 88.2 84.2 88.1 84 88.1C81.6 87.4 79.3 86.5 76.9 85.6C75.7 85.1 75.2 86.9 76.1 87.6C77 88.3 78 89 79.1 89.5C54.3 97 30.5 107.6 5.80004 115.6ZM101.7 89.9C106.4 88.9 111.1 87.6 115.6 86.1C119.7 84.7 123.8 83 127.7 80.9C126 82.2 124.2 83.3 122.4 84.2C116.1 87.6 108.9 89.5 101.7 89.9Z"
        fill="#FCFCFC" />
</svg>